<svg xmlns="http://www.w3.org/2000/svg" viewBox="0 0 159.39 136.91"><defs><style>.cls-1{fill:#e0e0e0;}.cls-2{fill:#fff;}.cls-3{fill:#f5f5f5;}.cls-4{fill:#ebebeb;}.cls-5{fill:#263238;}.cls-6{fill:#ffbe9d;}.cls-7{fill:#e8505b;}.cls-8{opacity:0.3;}.cls-9{fill:#455a64;}.cls-10{fill:#eb996e;}</style></defs><g id="Background_Complete" data-name="Background Complete"><path class="cls-1" d="M299.76,221.76l-16.12,7.64L313,236.22l-11.17-14A1.71,1.71,0,0,0,299.76,221.76Z" transform="translate(-176 -183.8)"/><path class="cls-1" d="M281.63,232.59h29.52a.37.37,0,0,1,.37.37v16.37a.89.89,0,0,1-.89.89H282.15a.89.89,0,0,1-.89-.89V233A.37.37,0,0,1,281.63,232.59Z" transform="translate(-113.73 -244.57) rotate(13.07)"/><path class="cls-2" d="M311.11,236.2l-13.78,4.63L285.2,230.76l2.14-8.06a1.65,1.65,0,0,1,2-1.21l22.32,5.19a1.63,1.63,0,0,1,1.23,2Z" transform="translate(-176 -183.8)"/><path class="cls-1" d="M296.45,239.47,280,245.23h0a1.34,1.34,0,0,0,1,1.61l26.89,6.24a1.34,1.34,0,0,0,1.61-1l0-.1L298,239.83A1.44,1.44,0,0,0,296.45,239.47Z" transform="translate(-176 -183.8)"/><rect class="cls-1" x="289.31" y="226.39" width="8.97" height="0.92" transform="translate(-117.12 -244.33) rotate(13.06)"/><rect class="cls-3" x="288.64" y="229.89" width="19.9" height="1.03" transform="translate(-116.2 -245.32) rotate(13.06)"/><rect class="cls-3" x="288.06" y="232.35" width="19.9" height="1.03" transform="translate(-115.66 -245.13) rotate(13.06)"/><polygon class="cls-3" points="130.7 53.89 129.89 54.16 113.53 50.56 111.86 49.16 111.9 48.92 131.22 53.4 131.14 53.74 130.7 53.89"/><polygon class="cls-3" points="125.09 55.77 117.76 54.07 116 52.6 126.96 55.14 125.09 55.77"/><path class="cls-4" d="M295.85,239.68a4.24,4.24,0,0,1-.61.25l-1.71.62c-1.44.51-3.44,1.2-5.65,2l-5.67,1.9-1.73.55a4.73,4.73,0,0,1-.64.18,3.11,3.11,0,0,1,.62-.25l1.7-.62c1.44-.51,3.44-1.2,5.65-2l5.67-1.9,1.73-.55A4.73,4.73,0,0,1,295.85,239.68Z" transform="translate(-176 -183.8)"/><path class="cls-4" d="M309.48,252s-2.53-2.51-5.56-5.69-5.46-5.8-5.42-5.84,2.53,2.51,5.57,5.69S309.53,251.93,309.48,252Z" transform="translate(-176 -183.8)"/><path class="cls-4" d="M311.77,236a2.08,2.08,0,0,1-.5.23l-1.39.54c-1.18.44-2.81,1-4.63,1.66s-3.47,1.15-4.67,1.52c-.6.19-1.09.33-1.43.42a2.12,2.12,0,0,1-.53.13,3.51,3.51,0,0,1,.51-.2l1.41-.49,4.65-1.58,4.64-1.6,1.41-.48A3.06,3.06,0,0,1,311.77,236Z" transform="translate(-176 -183.8)"/><path class="cls-4" d="M295.85,239.68a4.57,4.57,0,0,1-.49-.38L294,238.2l-4.36-3.58c-1.7-1.39-3.24-2.67-4.32-3.63-.55-.47-1-.86-1.27-1.14a3.67,3.67,0,0,1-.45-.45,3.66,3.66,0,0,1,.5.39l1.31,1.09,4.36,3.58c1.71,1.4,3.24,2.68,4.33,3.63.54.48,1,.87,1.27,1.15A3.53,3.53,0,0,1,295.85,239.68Z" transform="translate(-176 -183.8)"/><path class="cls-1" d="M311.11,236.2a.45.45,0,0,1,0-.11l.06-.33.27-1.26c.25-1.11.61-2.68,1-4.62.06-.24.11-.49.17-.74a5.36,5.36,0,0,0,.15-.78,1.53,1.53,0,0,0-.69-1.37,1.91,1.91,0,0,0-.81-.29l-.9-.21-1.88-.43-8.37-1.94-8.37-2-1.88-.44c-.3-.06-.61-.16-.89-.19a1.55,1.55,0,0,0-1.42.72,2.46,2.46,0,0,0-.27.76c-.15.52-.28,1-.41,1.51l-1.25,4.57-.35,1.23-.09.32a.39.39,0,0,1,0,.11.45.45,0,0,1,0-.11l.07-.33c.08-.3.18-.71.31-1.25.29-1.09.69-2.65,1.19-4.58l.39-1.51a2.93,2.93,0,0,1,.29-.81,1.85,1.85,0,0,1,.66-.61,1.68,1.68,0,0,1,.91-.19,8.81,8.81,0,0,1,.92.18l1.88.43,8.38,1.94,8.37,2,1.87.44.9.21a2.35,2.35,0,0,1,.87.32,1.75,1.75,0,0,1,.75,1.53,4.93,4.93,0,0,1-.16.8l-.18.75c-.46,1.93-.83,3.5-1.1,4.6-.13.53-.23.95-.31,1.25l-.08.32A.7.7,0,0,1,311.11,236.2Z" transform="translate(-176 -183.8)"/><polygon class="cls-4" points="97.08 5.11 124.57 0 128.68 18.57 100.13 23.39 97.08 5.11"/><path class="cls-1" d="M300.57,183.8s0,0,0,.08l-.16.21-.61.82-2.29,3-7.65,9.88-.05.07-.07,0-.54-.29-11.38-6.05-3.44-1.86-.93-.51-.24-.14-.08-.05.09,0,.24.12.95.48,3.47,1.8,11.42,6,.53.28-.13,0,7.7-9.84,2.34-2.95.64-.79.17-.21Z" transform="translate(-176 -183.8)"/><path class="cls-1" d="M276.13,207.19s1.72-2.83,3.95-6.26,4.08-6.18,4.12-6.14-1.72,2.83-3.94,6.26S276.18,207.22,276.13,207.19Z" transform="translate(-176 -183.8)"/><path class="cls-1" d="M304.68,202.37s-2.61-1.92-5.74-4.39-5.65-4.52-5.62-4.56,2.61,1.92,5.75,4.39S304.71,202.33,304.68,202.37Z" transform="translate(-176 -183.8)"/><polygon class="cls-3" points="141.17 17.96 159.39 22.37 156.81 34.87 138.01 29.98 141.17 17.96"/><path class="cls-1" d="M335.4,206.17a1.23,1.23,0,0,1-.2.13l-.6.34-2.22,1.21-7.38,4-.08,0-.05-.07-.25-.32c-2.07-2.66-3.93-5.07-5.3-6.84l-1.59-2.08-.42-.58c-.1-.13-.15-.2-.14-.21a1.37,1.37,0,0,1,.17.19l.45.55,1.64,2,5.35,6.8.25.32-.13,0,7.42-3.9,2.24-1.15.62-.31C335.32,206.2,335.39,206.16,335.4,206.17Z" transform="translate(-176 -183.8)"/><path class="cls-1" d="M314,213.78c0-.05,1.81-1.29,4.11-2.77s4.2-2.66,4.23-2.61-1.81,1.29-4.12,2.78S314.05,213.83,314,213.78Z" transform="translate(-176 -183.8)"/><path class="cls-1" d="M332.81,218.67c-.05,0-1.1-1.88-2.34-4.25s-2.2-4.33-2.15-4.35,1.1,1.87,2.34,4.25S332.86,218.64,332.81,218.67Z" transform="translate(-176 -183.8)"/></g><g id="Plant"><path class="cls-5" d="M298.21,313.14l.44.15c.29.11.72.26,1.3.42a15.13,15.13,0,0,0,5.2.53,20.59,20.59,0,0,0,3.75-.6,23.37,23.37,0,0,0,4.26-1.49,26,26,0,0,0,8.68-6.63,8.11,8.11,0,0,0,1.59-2.65,4.17,4.17,0,0,0-.15-3.14,3.16,3.16,0,0,0-1.11-1.19,4,4,0,0,0-1.58-.55,6.25,6.25,0,0,0-3.41.56,13.59,13.59,0,0,1-1.73.61,3.31,3.31,0,0,1-1.87-.05,2,2,0,0,1-1.35-1.31,2.35,2.35,0,0,1,.38-1.89,3.52,3.52,0,0,1,1.51-1.24A13.62,13.62,0,0,1,316,294a26.07,26.07,0,0,0,3.69-1.52,24.63,24.63,0,0,0,3.47-2.15,8,8,0,0,0,1.54-1.37,2.93,2.93,0,0,0,.78-1.84,1.8,1.8,0,0,0-.29-.95,2.16,2.16,0,0,0-.74-.7,4.76,4.76,0,0,0-2-.56,11.66,11.66,0,0,1-2.18-.3,2.44,2.44,0,0,1-1.68-1.42,1.33,1.33,0,0,1,.14-1.15,2.81,2.81,0,0,1,.86-.76c.62-.41,1.23-.83,1.82-1.28a29.77,29.77,0,0,0,3.36-3,14.66,14.66,0,0,0,2.73-3.63,4.5,4.5,0,0,0,.46-2.19,3.34,3.34,0,0,0-.86-2.05,4.48,4.48,0,0,0-4.13-1.36,7.42,7.42,0,0,0-3.86,2.23c-2.09,2.21-3.12,5.11-4.84,7.52a11.53,11.53,0,0,1-1.42,1.7,4,4,0,0,1-.87.69,1.16,1.16,0,0,1-1.14,0,1.42,1.42,0,0,1-.59-1,3.7,3.7,0,0,1,0-1.1,3,3,0,0,0,0-1,1.86,1.86,0,0,0-.5-.87,2.53,2.53,0,0,0-1.84-.72,2.84,2.84,0,0,0-1.82.78,4.48,4.48,0,0,0-1.15,1.64,7.25,7.25,0,0,0-.49,1.95c-.09.66-.11,1.33-.14,2l-.06,2c0,1.31-.09,2.61-.13,3.89,0,.64,0,1.27-.07,1.91a6,6,0,0,1-.36,1.87,2.18,2.18,0,0,1-1.29,1.33,2.7,2.7,0,0,1-1.84-.12,7.2,7.2,0,0,1-2.83-2.14,7.61,7.61,0,0,1-.95-1.46,16.09,16.09,0,0,0-.78-1.49,2.35,2.35,0,0,0-1.2-1,2.18,2.18,0,0,0-1.53.11,3,3,0,0,0-1.21.94,3.38,3.38,0,0,0-.62,1.38,21.26,21.26,0,0,0-.26,3c-.07,1-.1,1.92-.11,2.84a35.45,35.45,0,0,0,.31,5.18,25.66,25.66,0,0,0,1,4.41c.19.67.46,1.27.67,1.87l.39.84a8.29,8.29,0,0,0,.39.79,16.71,16.71,0,0,0,3.13,4.19,6.63,6.63,0,0,0,.59.54l.44.37.35.31-.37-.29-.44-.37a5.41,5.41,0,0,1-.59-.53,16.33,16.33,0,0,1-3.18-4.18c-.15-.25-.27-.52-.4-.79s-.26-.55-.39-.84c-.22-.6-.49-1.21-.68-1.88a24.94,24.94,0,0,1-1-4.43,34.15,34.15,0,0,1-.33-5.19c0-.93,0-1.88.1-2.85a20.84,20.84,0,0,1,.26-3,3.55,3.55,0,0,1,.64-1.43,3.18,3.18,0,0,1,1.27-1,2.35,2.35,0,0,1,1.63-.12,2.52,2.52,0,0,1,1.29,1.07,14.53,14.53,0,0,1,.8,1.51,7.66,7.66,0,0,0,.92,1.42,7.17,7.17,0,0,0,2.77,2.09,2.55,2.55,0,0,0,1.72.12,2.06,2.06,0,0,0,1.19-1.24,12.26,12.26,0,0,0,.41-3.71q.06-1.92.12-3.9l.07-2a19.75,19.75,0,0,1,.13-2,7.52,7.52,0,0,1,.5-2,4.74,4.74,0,0,1,1.2-1.71,3.16,3.16,0,0,1,1.94-.83,2.79,2.79,0,0,1,2,.78,2.11,2.11,0,0,1,.55,1,3.35,3.35,0,0,1,0,1.09,3.69,3.69,0,0,0,0,1.05,1.28,1.28,0,0,0,.5.83,1,1,0,0,0,.94,0,3.71,3.71,0,0,0,.83-.66,11.91,11.91,0,0,0,1.4-1.67,43.42,43.42,0,0,0,2.26-3.81,18,18,0,0,1,2.6-3.73,7.44,7.44,0,0,1,4-2.29,4.7,4.7,0,0,1,4.33,1.42,3.61,3.61,0,0,1,.91,2.18,4.76,4.76,0,0,1-.49,2.29,15,15,0,0,1-2.76,3.68,29.28,29.28,0,0,1-3.39,3c-.59.46-1.21.88-1.83,1.29a2.59,2.59,0,0,0-.8.7,1.11,1.11,0,0,0-.12,1,2.26,2.26,0,0,0,1.55,1.3,11.61,11.61,0,0,0,2.14.29,4.79,4.79,0,0,1,2.09.59,2.46,2.46,0,0,1,.81.76,2,2,0,0,1,.32,1.06,3.08,3.08,0,0,1-.83,2,8.05,8.05,0,0,1-1.57,1.41,26.61,26.61,0,0,1-3.5,2.16,25.27,25.27,0,0,1-3.72,1.52,15.25,15.25,0,0,0-1.83.66,3.28,3.28,0,0,0-1.44,1.18,2.14,2.14,0,0,0-.35,1.74,1.79,1.79,0,0,0,1.23,1.19,3.14,3.14,0,0,0,1.77.05,12.22,12.22,0,0,0,1.7-.6,6.46,6.46,0,0,1,3.5-.56,4.16,4.16,0,0,1,1.65.57,3.27,3.27,0,0,1,1.16,1.26,4.27,4.27,0,0,1,.15,3.25,8,8,0,0,1-1.62,2.7,26,26,0,0,1-8.74,6.65,23.74,23.74,0,0,1-4.29,1.47,19.78,19.78,0,0,1-3.76.59,15,15,0,0,1-5.22-.57,13.43,13.43,0,0,1-1.3-.44Z" transform="translate(-176 -183.8)"/><path class="cls-5" d="M300.43,308.29a118.18,118.18,0,0,1,5.12-12.4l1.51-3.18c.5-1,1-2.07,1.54-3a57.57,57.57,0,0,1,3.46-5.47c1.18-1.68,2.36-3.24,3.48-4.68s2.2-2.77,3.22-3.94a47,47,0,0,1,5.26-5.14c.66-.55,1.2-1,1.56-1.25l.41-.31.15-.1s0,.05-.13.12l-.4.33c-.35.29-.88.72-1.53,1.28a49.86,49.86,0,0,0-5.19,5.19c-1,1.17-2.08,2.5-3.19,3.94s-2.29,3-3.46,4.69a60.56,60.56,0,0,0-3.44,5.45c-.54,1-1,2-1.52,3.05s-1,2.1-1.51,3.18a118.76,118.76,0,0,0-5.13,12.36" transform="translate(-176 -183.8)"/><path class="cls-5" d="M308.67,289.65a2.12,2.12,0,0,1-.11-.56c-.05-.37-.11-.89-.18-1.55-.14-1.3-.26-3.11-.39-5.1s-.28-3.8-.43-5.1c-.07-.65-.14-1.18-.19-1.54a2.21,2.21,0,0,1-.05-.57,3.93,3.93,0,0,1,.14.55c.08.36.17.89.27,1.54.2,1.29.37,3.1.5,5.1s.23,3.75.32,5.11c0,.61.08,1.13.1,1.55A3.08,3.08,0,0,1,308.67,289.65Z" transform="translate(-176 -183.8)"/><path class="cls-5" d="M325.55,287.16a3,3,0,0,1-.67.06c-.43,0-1.06,0-1.83.11-1.54.1-3.66.33-6,.67-2.07.31-4.08.68-5.94,1.1-.75.16-1.36.31-1.78.41a3.85,3.85,0,0,1-.66.14,2.83,2.83,0,0,1,.63-.23c.42-.13,1-.3,1.77-.49,1.51-.38,3.61-.82,5.95-1.17a57.48,57.48,0,0,1,6-.6c.78,0,1.4,0,1.84,0A4.52,4.52,0,0,1,325.55,287.16Z" transform="translate(-176 -183.8)"/><path class="cls-5" d="M300.64,308a2.28,2.28,0,0,1-.1-.21l-.27-.61c-.22-.54-.53-1.33-.9-2.3-.73-2-1.66-4.68-2.64-7.71s-1.89-5.75-2.59-7.72c-.34-.95-.61-1.74-.82-2.32l-.22-.64c-.05-.14-.07-.22-.07-.22s.05.07.11.21l.26.61c.23.54.54,1.33.9,2.3.74,1.95,1.67,4.68,2.65,7.71s2.29,6.19,3,8.16c.34.95.22,1.3.43,1.88l.22.63A.7.7,0,0,1,300.64,308Z" transform="translate(-176 -183.8)"/><path class="cls-5" d="M323.2,301.68l-.23.08-.65.19-2.42.68c-2,.58-4.85,1.4-7.95,2.32-2.9.86-5.6,1.64-8,2.25-1,.27-1.86.48-2.43.61l-.67.15a.71.71,0,0,1-.24,0l.23-.08.65-.19,2.42-.68c2-.58,4.85-1.4,7.95-2.32s5.92-1.72,8-2.26c1-.26,1.85-.47,2.43-.6l.67-.15A.71.71,0,0,1,323.2,301.68Z" transform="translate(-176 -183.8)"/></g><g id="Character"><path class="cls-6" d="M257.72,216.59s-.23-1.1-.62-4.29l-3.51-6.88s.78-1.44,2.59,1.61a1.73,1.73,0,0,0,3.12-1.37,2.79,2.79,0,0,0-5-1s-1.13.11-1.26-.76,2.41-3,4.57-2.42a6.52,6.52,0,0,1,2.39,1.35s-.47-7.23.12-7.29,1.4.38,1.84,8.3c0,0,.25-6.25.37-7s1.2-1.34,1.33.67c0,.22.41,6.37.41,6.37s.71-4.07.78-4.39c.2-.86,1.05-.77,1.13.37.06.86.34,4.53.34,4.53l.52,11.33h.07" transform="translate(-176 -183.8)"/><path class="cls-7" d="M268.94,212.87l-13.18-.34-1.31,31.89-14.89-6.58,0,.06c-.89-.4-1.68-.76-2.09-1-8.24-4.49-13.64-5-22.48-1.88h0L198,241.81c-3.28,1.54-11.81,3-14.74,16.45l-.38,1.62,13.53,9.72,9.29,24.48,11.13,24.52,25.58-.83,13.36-16.66-11.34-21.67-7.05-24.26c5,3.3,14.23,7.8,25.3,5.46C274.7,258.09,268.94,212.87,268.94,212.87Z" transform="translate(-176 -183.8)"/><g class="cls-8"><path d="M205.64,293.85a25.65,25.65,0,0,0,6.51,2.83,4.69,4.69,0,0,0,3.78,0c1.11-.68,1.28-2.71,0-3.11l10.74-2.42c-1.46-4.2.94-9,4.57-11.53s7.76-3.28,12.18-3.66l5.36,16.61L230.92,317l-14.65.42Z" transform="translate(-176 -183.8)"/></g><path class="cls-7" d="M200,270.91s-6.71,14.68-5.17,22c.85,4.1,14.26,7.6,22.8,8.64l-2.56,14.34s-31.74-3-37.69-15.6c-3.37-7.13,0-24.6,6.47-44.37Z" transform="translate(-176 -183.8)"/><path class="cls-2" d="M230.59,288.11l-.23.12-.67.31c-.58.27-1.43.64-2.49,1.08-2.12.88-5.09,2-8.43,3.09s-6.41,1.87-8.65,2.39c-1.12.26-2,.45-2.66.57l-.72.14a.86.86,0,0,1-.26,0l.25-.07.72-.18,2.64-.63c2.22-.55,5.29-1.38,8.62-2.45s6.3-2.18,8.43-3l2.52-1,.69-.28Z" transform="translate(-176 -183.8)"/><path class="cls-2" d="M239.43,237.39c0,.05-12.49,4.59-27.94,10.13s-28,10-28,9.94,12.49-4.59,27.94-10.14S239.41,237.34,239.43,237.39Z" transform="translate(-176 -183.8)"/><path class="cls-5" d="M196.76,278.34l0-.09.1-.25.41-.95c.36-.82.85-2,1.35-3.55a26.81,26.81,0,0,0,1.22-5.47,18.21,18.21,0,0,0-.49-6.81,13.4,13.4,0,0,0-3.31-5.92,11.5,11.5,0,0,0-4.74-2.86,9.93,9.93,0,0,0-3.74-.39l-.59.07c-.17,0-.31.06-.43.08l-.26.05h-.09l.08,0,.26-.07.43-.1.59-.09a9.56,9.56,0,0,1,3.79.33,11.54,11.54,0,0,1,4.83,2.87,13.41,13.41,0,0,1,3.38,6,18.23,18.23,0,0,1,.48,6.89,26.63,26.63,0,0,1-1.27,5.5c-.52,1.52-1,2.72-1.41,3.53-.19.41-.34.73-.45.94l-.12.24Z" transform="translate(-176 -183.8)"/><path class="cls-5" d="M228.65,234.08l.23.1c.14.08.36.19.61.36a8.2,8.2,0,0,1,1.92,1.8,13.18,13.18,0,0,1,1.88,3.4,47.46,47.46,0,0,1,1.38,4.55l2.21,8.35c.26,1.05.48,1.91.64,2.53l.17.69a1.15,1.15,0,0,1,0,.25l-.08-.24-.2-.68c-.18-.62-.42-1.47-.71-2.52-.59-2.15-1.39-5.08-2.27-8.32-.44-1.63-.84-3.18-1.36-4.54a13.17,13.17,0,0,0-1.82-3.38,8.81,8.81,0,0,0-1.84-1.82C229,234.25,228.64,234.1,228.65,234.08Z" transform="translate(-176 -183.8)"/><path class="cls-2" d="M250.6,242.62l-.18.08-.52.23-2,.86c-1.76.74-4.32,1.8-7.49,3.09-6.34,2.59-15.12,6.08-24.89,9.76s-18.67,6.87-25.13,9.12c-3.24,1.12-5.86,2-7.67,2.62l-2.09.69-.55.18-.18.05.18-.07.54-.19,2.07-.74,7.65-2.68c6.45-2.28,15.34-5.49,25.11-9.17s18.56-7.15,24.91-9.7l7.51-3,2-.83.54-.21Z" transform="translate(-176 -183.8)"/><path class="cls-2" d="M239,258.45l-.15.07-.46.2-1.75.72c-1.51.63-3.72,1.52-6.46,2.59-5.48,2.15-13.09,5-21.58,7.91s-16.26,5.31-21.9,7c-2.83.83-5.12,1.48-6.7,1.91l-1.83.5-.48.12-.16,0s.05,0,.16-.06l.47-.14,1.82-.54c1.57-.45,3.86-1.12,6.67-2,5.64-1.69,13.39-4.11,21.88-7s16.11-5.74,21.6-7.85l6.48-2.53,1.77-.69.46-.18Z" transform="translate(-176 -183.8)"/><path class="cls-2" d="M270,244.71l-.23.2-.7.54-1.11.83c-.44.31-.94.68-1.51,1.06-1.12.77-2.49,1.65-4,2.57s-3.3,1.87-5.17,2.78-3.69,1.7-5.37,2.37-3.21,1.2-4.52,1.61c-.64.21-1.24.38-1.76.53s-1,.28-1.34.37l-.85.22a1.11,1.11,0,0,1-.3.06,1.65,1.65,0,0,1,.29-.1l.84-.25c.37-.11.82-.24,1.33-.41s1.11-.34,1.75-.56c1.29-.43,2.82-1,4.49-1.65s3.48-1.46,5.35-2.37,3.61-1.86,5.16-2.76,2.93-1.78,4.06-2.54c.57-.36,1.07-.72,1.52-1s.83-.57,1.13-.8l.72-.51C269.92,244.76,270,244.7,270,244.71Z" transform="translate(-176 -183.8)"/><path class="cls-2" d="M270.63,234.12c0,.06-3.63,1.52-8.14,3.27s-8.19,3.13-8.21,3.08,3.62-1.52,8.14-3.27S270.61,234.07,270.63,234.12Z" transform="translate(-176 -183.8)"/><path class="cls-2" d="M269.83,224.25c0,.05-3.19,1-7.15,2.13s-7.19,2-7.2,1.93,3.18-1,7.14-2.13S269.81,224.19,269.83,224.25Z" transform="translate(-176 -183.8)"/><path class="cls-2" d="M269.13,214.59s-3.09.78-6.92,1.62-6.94,1.48-6.95,1.42,3.08-.78,6.91-1.62S269.11,214.53,269.13,214.59Z" transform="translate(-176 -183.8)"/><path class="cls-2" d="M241.48,269.38c0,.05-8.81,3.58-19.72,7.88S202,285,202,285s8.81-3.58,19.72-7.88S241.46,269.32,241.48,269.38Z" transform="translate(-176 -183.8)"/><path class="cls-2" d="M194.79,286.85l-.18.09-.53.22-2,.75c-1.68.62-4,1.43-6.6,2.26s-5,1.51-6.69,2l-2.05.53-.56.13c-.13,0-.2,0-.2,0l.19-.07.55-.17,2-.6c1.71-.5,4.07-1.2,6.67-2s4.92-1.62,6.61-2.2l2-.69.54-.18C194.72,286.86,194.79,286.84,194.79,286.85Z" transform="translate(-176 -183.8)"/><path class="cls-2" d="M199.5,296.91s-4.26,1.84-9.56,4-9.61,3.85-9.63,3.8,4.26-1.84,9.56-4S199.48,296.85,199.5,296.91Z" transform="translate(-176 -183.8)"/><path class="cls-2" d="M207.29,299.69s-2.36,2.88-5.36,6.35-5.47,6.25-5.51,6.21,2.35-2.88,5.35-6.35S207.25,299.65,207.29,299.69Z" transform="translate(-176 -183.8)"/><path class="cls-2" d="M215.26,301.71c.05,0-.91,3.05-2.15,6.76s-2.3,6.71-2.35,6.69.91-3,2.15-6.76S215.2,301.69,215.26,301.71Z" transform="translate(-176 -183.8)"/><path class="cls-2" d="M267.33,257.05c0,.05-2.27,1-5.1,2.11s-5.16,2-5.18,1.91,2.27-1,5.1-2.1S267.31,257,267.33,257.05Z" transform="translate(-176 -183.8)"/><g class="cls-8"><path d="M233.45,240.47c3.69,10,10.31,15.55,19.7,20.55a34.59,34.59,0,0,1-15.48-5.67" transform="translate(-176 -183.8)"/></g><path class="cls-9" d="M230.12,320h70.7v-30.2a10.25,10.25,0,0,0-10.25-10.25H240.36a10.24,10.24,0,0,0-10.24,10.25Z" transform="translate(-176 -183.8)"/><path class="cls-9" d="M71,95.77h0a7.65,7.65,0,0,1,7.65,7.65v31.82a1,1,0,0,1-1,1H55.09a1,1,0,0,1-1-1V112.67A16.89,16.89,0,0,1,71,95.77Z"/><path class="cls-5" d="M235.33,320V289.77a10.2,10.2,0,0,1,10.2-10.2h-7.27s-8.54,1.14-8.54,11.82S230,320,230,320Z" transform="translate(-176 -183.8)"/><rect class="cls-5" x="19.34" y="133.35" width="59.32" height="3.37"/><rect class="cls-9" x="78.66" y="133.35" width="48.46" height="3.37"/><path class="cls-5" d="M254.66,318.83a1.09,1.09,0,0,0,0-.12V312c0-4.24.05-10.08.09-16.52,0-1.61.05-3.19,0-4.7a17.18,17.18,0,0,0-.76-4.28,10,10,0,0,0-1.89-3.42,10.39,10.39,0,0,0-2.66-2.14,10.18,10.18,0,0,0-4.76-1.27,6.36,6.36,0,0,0-.78,0,3.84,3.84,0,0,0-.57.06l-.35,0h-.12l.11,0,.35-.06a3.72,3.72,0,0,1,.57-.08,6.21,6.21,0,0,1,.79,0,9.91,9.91,0,0,1,4.83,1.23,9.55,9.55,0,0,1,4.66,5.62,17.13,17.13,0,0,1,.78,4.33c.1,1.52.07,3.1.05,4.71-.06,6.45-.11,12.28-.15,16.52,0,2.1-.05,3.81-.06,5,0,.57,0,1,0,1.36l0,.35C254.67,318.79,254.67,318.83,254.66,318.83Z" transform="translate(-176 -183.8)"/><path class="cls-5" d="M302.79,317.06c0,.06-11,.13-24.65.15s-24.66,0-24.66-.06,11-.12,24.66-.15S302.79,317,302.79,317.06Z" transform="translate(-176 -183.8)"/><path class="cls-5" d="M302.79,320.65c0,.05-11,.07-24.48,0s-24.47-.11-24.47-.17,11-.07,24.47,0S302.79,320.59,302.79,320.65Z" transform="translate(-176 -183.8)"/><path class="cls-5" d="M296.41,313.31v-.56c0-.37,0-.91,0-1.6,0-1.4,0-3.43,0-6l.06.06-31.73,0c.05,0-.1.11.11-.1h0v2.05c0,.69,0,1.38,0,2.06v4l-.1-.11,22.63.05,6.67,0h0l-6.65,0-22.7.05h-.1v-8.22h0l.1-.1,31.73,0h.06v.06c0,2.58,0,4.62,0,6,0,.69,0,1.22,0,1.59v.4A.79.79,0,0,1,296.41,313.31Z" transform="translate(-176 -183.8)"/><path class="cls-5" d="M278.49,307.26v3.62h-.36V308l-1.43,2.44h-.18L275.1,308v2.88h-.37v-3.62h.32l1.57,2.68,1.56-2.68Z" transform="translate(-176 -183.8)"/><path class="cls-5" d="M281.94,309.91h-2l-.44,1h-.4l1.66-3.62h.38l1.65,3.62h-.4Zm-.14-.31-.87-1.94-.86,1.94Z" transform="translate(-176 -183.8)"/><path class="cls-5" d="M283.38,307.26h.38v3.62h-.38Z" transform="translate(-176 -183.8)"/><path class="cls-5" d="M284.94,307.26h.38v3.29h2v.33h-2.41Z" transform="translate(-176 -183.8)"/><path class="cls-7" d="M292.33,271.29v-6H281.21v23.87a4.72,4.72,0,1,0,4.57-.12v-17.8Z" transform="translate(-176 -183.8)"/><circle class="cls-5" cx="107.74" cy="109.39" r="1.82"/><path class="cls-5" d="M215.45,235.19a1.46,1.46,0,0,1,.1.25,5.93,5.93,0,0,1,.24.72,9.16,9.16,0,0,1,.27,2.79,9.37,9.37,0,0,1-1.16,4,8.26,8.26,0,0,1-3.71,3.42,7.79,7.79,0,0,1-5,.6,8.36,8.36,0,0,1-3.67-1.91,8.6,8.6,0,0,1-1.75-2.18,5,5,0,0,1-.33-.69c-.07-.16-.1-.24-.09-.25s.15.33.49.9a9,9,0,0,0,1.78,2.11,8.15,8.15,0,0,0,3.61,1.83,7.66,7.66,0,0,0,4.88-.6,8.17,8.17,0,0,0,3.64-3.33,9.25,9.25,0,0,0,1.17-3.89,9.4,9.4,0,0,0-.2-2.76C215.56,235.54,215.43,235.2,215.45,235.19Z" transform="translate(-176 -183.8)"/><polygon class="cls-4" points="73.23 112.84 78.65 112.77 78.44 131.17 73.41 131.37 73.23 112.84"/><path class="cls-5" d="M249.41,315.17a34.18,34.18,0,0,1,2.4-2.75,33,33,0,0,1,2.56-2.6,33.15,33.15,0,0,1-2.4,2.74A32.18,32.18,0,0,1,249.41,315.17Z" transform="translate(-176 -183.8)"/><path class="cls-5" d="M254.65,302.76a83,83,0,0,1-5.42-6,77.22,77.22,0,0,1,5.42,6Z" transform="translate(-176 -183.8)"/><path class="cls-5" d="M208.65,215.91a1.42,1.42,0,0,0,2.41,1c.76-.73.5-2,0-2.95a5.31,5.31,0,0,1-1-2.95,7.22,7.22,0,0,1,1-2.17,4.57,4.57,0,0,0,.1-4.06,3.84,3.84,0,0,0-3.39-2.13c-1.44,0-3,.93-4.23.27-.92-.48-1.31-1.61-2.11-2.27-1.25-1-3.12-.69-4.59,0s-2.88,1.63-4.5,1.71a22,22,0,0,1-4-.69,7.08,7.08,0,0,0-6,12,4.59,4.59,0,0,0,2.73,1.45" transform="translate(-176 -183.8)"/><path class="cls-6" d="M210.44,246.25h0a8,8,0,0,1-10.13-5.1c-.8-2.4-1.47-4.43-1.47-4.43s-6.4,1-8.39-5.09-5.17-19.57-5.17-19.57l-.2-.82c6.1-5.26,14.77-6.13,22.33-3.37l.39,1.25,7.92,27.51A8.05,8.05,0,0,1,210.44,246.25Z" transform="translate(-176 -183.8)"/><path class="cls-5" d="M190.63,221a.94.94,0,0,0-.46-1.69.85.85,0,0,0-.63.18.93.93,0,0,0,.46,1.68A.83.83,0,0,0,190.63,221Z" transform="translate(-176 -183.8)"/><path class="cls-5" d="M188.1,220.25c.12.07.58-.58,1.42-.85s1.58,0,1.64-.16-.13-.22-.46-.34a2.12,2.12,0,0,0-1.35,0,2.17,2.17,0,0,0-1.09.8C188.06,220,188,220.22,188.1,220.25Z" transform="translate(-176 -183.8)"/><path class="cls-5" d="M198.34,217.6a.93.93,0,1,0,1.4,1.22.93.93,0,0,0-1.4-1.22Z" transform="translate(-176 -183.8)"/><path class="cls-5" d="M197.22,218.21c.13.07.59-.58,1.42-.85s1.59,0,1.65-.16-.13-.22-.46-.34a2.17,2.17,0,0,0-2.44.8C197.19,218,197.16,218.17,197.22,218.21Z" transform="translate(-176 -183.8)"/><path class="cls-5" d="M196.05,226.19a4.72,4.72,0,0,0-1.45.15c-.23,0-.42,0-.48-.06a1.31,1.31,0,0,1,0-.69c0-.62.08-1.25.12-1.91a25.71,25.71,0,0,0,0-4.94,26.3,26.3,0,0,0-.5,4.91q0,1-.09,1.92a1.42,1.42,0,0,0,.17.94.6.6,0,0,0,.48.23,1.72,1.72,0,0,0,.38-.07A4.92,4.92,0,0,0,196.05,226.19Z" transform="translate(-176 -183.8)"/><path class="cls-2" d="M199.06,226.26c.71-.8-2,2-3.73,2.49a2.42,2.42,0,0,0,3,.06A1.83,1.83,0,0,0,199.06,226.26Z" transform="translate(-176 -183.8)"/><path class="cls-10" d="M198.8,236.64a14.82,14.82,0,0,0,7.23-4.77s-.49,5-6.75,6.35Z" transform="translate(-176 -183.8)"/><path class="cls-6" d="M208.7,213.28c.12-.08,4.43-1.77,5.32,3.59s-4.82,4.5-4.86,4.34S208.7,213.28,208.7,213.28Z" transform="translate(-176 -183.8)"/><path class="cls-10" d="M210.49,219.06s.11.05.28.09a.93.93,0,0,0,.7-.1,2.33,2.33,0,0,0,.72-2.25,3,3,0,0,0-.48-1.3,1.13,1.13,0,0,0-.82-.6.48.48,0,0,0-.51.35c0,.16,0,.26,0,.28s-.13-.07-.13-.3a.63.63,0,0,1,.16-.37.73.73,0,0,1,.49-.23,1.34,1.34,0,0,1,1.12.67,3.3,3.3,0,0,1,.57,1.45,2.46,2.46,0,0,1-1,2.54,1,1,0,0,1-.88,0C210.52,219.18,210.48,219.07,210.49,219.06Z" transform="translate(-176 -183.8)"/><path class="cls-5" d="M184.59,215a10.57,10.57,0,0,0,8.36-3c2.73-2.47,6.21-4.28,7.2-3.87s2.08,3.63,5.48,3.7c0,0,1.53,6.29,4,5.37s-1.83-10.13-1.83-10.13l-6.83-2.5-7,.6L186.85,208l-3.45,3.68Z" transform="translate(-176 -183.8)"/><path class="cls-5" d="M206.73,201.73a7.14,7.14,0,0,0-1.29.66,6.53,6.53,0,0,0-1,1.07,2,2,0,0,1,.85-1.24A2,2,0,0,1,206.73,201.73Z" transform="translate(-176 -183.8)"/><path class="cls-5" d="M203.49,200s.14.19.29.53a5.66,5.66,0,0,1,.39,1.38,4.25,4.25,0,0,1,0,1.45,1.58,1.58,0,0,1-.21.57,8.45,8.45,0,0,0,0-2C203.8,200.86,203.42,200,203.49,200Z" transform="translate(-176 -183.8)"/><polygon class="cls-1" points="43.8 112.56 71.29 107.45 75.39 126.02 46.85 130.84 43.8 112.56"/><path class="cls-5" d="M247.29,291.24s0,0,0,.08l-.15.22c-.15.2-.36.47-.61.82l-2.29,3c-2,2.53-4.65,6-7.65,9.87l0,.07-.08,0-.53-.28-11.39-6.05-3.44-1.86-.93-.51-.24-.14-.07-.05s0,0,.08,0l.25.12,1,.48,3.47,1.8,11.42,6,.53.28-.13,0c3-3.85,5.72-7.32,7.7-9.84l2.33-2.95.65-.8.17-.2Z" transform="translate(-176 -183.8)"/><path class="cls-5" d="M222.85,314.64s1.72-2.83,4-6.26,4.07-6.18,4.12-6.15-1.72,2.84-3.95,6.26S222.9,314.67,222.85,314.64Z" transform="translate(-176 -183.8)"/><path class="cls-5" d="M251.4,309.82s-2.61-1.92-5.74-4.4-5.65-4.51-5.62-4.56,2.61,1.93,5.74,4.4S251.43,309.77,251.4,309.82Z" transform="translate(-176 -183.8)"/><path class="cls-6" d="M220.53,300.5s.19,3.6,1.92,3.56,7.86-3.37,8.57-2.21-1.17,2.76-1.17,2.76,2.16,0,1.36,1.26-3.2,7.33-5.42,7.89c-3.2.82-10.53,1.14-10.53,1.14l2.26-12.65Z" transform="translate(-176 -183.8)"/><path class="cls-10" d="M230.52,303.86s-.07.1-.23.26l-.7.63a20,20,0,0,1-2.52,1.8,19.63,19.63,0,0,1-2.78,1.38c-.37.15-.67.26-.88.33a1.45,1.45,0,0,1-.34.08s.45-.21,1.17-.54a28.92,28.92,0,0,0,2.72-1.43,26.93,26.93,0,0,0,2.54-1.74A9.42,9.42,0,0,1,230.52,303.86Z" transform="translate(-176 -183.8)"/><path class="cls-10" d="M230.42,307.42a3.68,3.68,0,0,1-.63.91,9.6,9.6,0,0,1-2,1.79,9.78,9.78,0,0,1-2.38,1.22,4.12,4.12,0,0,1-1.07.27s.4-.15,1-.41A11.48,11.48,0,0,0,227.7,310a11.28,11.28,0,0,0,2-1.72C230.14,307.74,230.4,307.4,230.42,307.42Z" transform="translate(-176 -183.8)"/></g></svg>