<svg xmlns="http://www.w3.org/2000/svg" viewBox="0 0 201.97 148.76"><defs><style>.cls-1{fill:#f5f5f5;}.cls-2{fill:#e0e0e0;}.cls-3{fill:#fff;}.cls-4{fill:#ebebeb;}.cls-5{fill:#263238;}.cls-6{fill:#455a64;}.cls-7{opacity:0.2;}.cls-8{fill:#ff725e;}.cls-9{fill:#ffbf9d;}.cls-10{fill:#ff9a6c;}.cls-11{opacity:0.3;}</style></defs><g id="Background_Complete" data-name="Background Complete"><polygon class="cls-1" points="145.91 134.29 145.91 145.4 162.16 145.4 180.07 145.4 180.07 134.29 145.91 134.29"/><polygon class="cls-2" points="144.48 131.19 144.48 134.29 181.27 134.29 181.27 131.19 162.16 131.19 144.48 131.19"/><polygon class="cls-2" points="162.87 145.4 180.07 145.4 180.07 134.29 181.27 134.29 181.27 131.19 162.16 131.19 162.16 134 162.87 145.4"/><rect class="cls-2" x="150.69" y="136.08" width="6.93" height="1.67"/><rect class="cls-3" x="149.8" y="139.85" width="8.9" height="3.53"/><polygon class="cls-1" points="151.17 120.09 151.17 131.2 167.41 131.2 185.33 131.2 185.33 120.09 151.17 120.09"/><polygon class="cls-4" points="149.73 116.99 149.73 120.09 186.52 120.09 186.52 116.99 167.41 116.99 149.73 116.99"/><polygon class="cls-4" points="168.13 131.2 185.33 131.2 185.33 120.09 186.52 120.09 186.52 116.99 167.41 116.99 167.41 119.81 168.13 131.2"/><rect class="cls-2" x="155.94" y="121.88" width="6.93" height="1.67"/><rect class="cls-3" x="155.05" y="125.65" width="8.9" height="3.53"/></g><g id="Device"><rect class="cls-2" x="39.28" y="0.09" width="155.75" height="102.99" rx="5.12"/><path class="cls-5" d="M428.52,287.23l.33,0a2.25,2.25,0,0,0,.41,0,3.8,3.8,0,0,0,.56-.12,4.54,4.54,0,0,0,1.47-.65,5,5,0,0,0,1.55-1.57,6,6,0,0,0,.56-1.22,5.66,5.66,0,0,0,.22-1.47c0-1,0-2.18,0-3.42,0-2.48,0-5.34,0-8.56,0-12.87,0-31.49,0-54.51q0-8.62,0-18.06v-7.17a8.76,8.76,0,0,0-.19-2.4,5,5,0,0,0-3.19-3.42c-.19-.08-.4-.11-.59-.17s-.41-.07-.61-.09c-.41,0-.83,0-1.25,0H283a5,5,0,0,0-4.82,3.59,5.36,5.36,0,0,0-.22,1.59v92.24a7.22,7.22,0,0,0,.1,1.4,5.16,5.16,0,0,0,1.28,2.43,4.93,4.93,0,0,0,1.07.86,5.12,5.12,0,0,0,.62.31,3.55,3.55,0,0,0,.65.22,10.47,10.47,0,0,0,2.75.18H354l54.51,0,14.82,0h0l-14.82,0-54.51,0h-71a5.49,5.49,0,0,1-1.4-.19c-.24-.05-.45-.15-.68-.22s-.43-.2-.63-.33a5.29,5.29,0,0,1-1.11-.89,5.37,5.37,0,0,1-.84-1.16,5.71,5.71,0,0,1-.48-1.35,6.9,6.9,0,0,1-.11-1.43v-1.42c0-15.22,0-31.19,0-47.75V189.51a5.69,5.69,0,0,1,.22-1.64,5.16,5.16,0,0,1,1.88-2.68,5.24,5.24,0,0,1,3.12-1H427.74c.42,0,.84,0,1.26,0a4.58,4.58,0,0,1,.63.1,4.63,4.63,0,0,1,.61.17,5.18,5.18,0,0,1,3.28,3.52l.08.3c0,.1,0,.21,0,.31a4.2,4.2,0,0,1,.06.61c0,.41,0,.82,0,1.22v7.17q0,9.42,0,18.06c0,23,0,41.64,0,54.51,0,3.22,0,6.08,0,8.56,0,1.24,0,2.38,0,3.42a5.74,5.74,0,0,1-.22,1.48,5.28,5.28,0,0,1-.57,1.22,5.07,5.07,0,0,1-1.57,1.59,4.66,4.66,0,0,1-1.48.64,3.24,3.24,0,0,1-.56.11,2.15,2.15,0,0,1-.4,0Z" transform="translate(-238.61 -184.15)"/><path class="cls-2" d="M434.3,289.59H278.06a6.24,6.24,0,0,1-6.25-6.25v-2.76H440.55v2.76A6.25,6.25,0,0,1,434.3,289.59Z" transform="translate(-238.61 -184.15)"/><path class="cls-5" d="M434.3,289.59h.2c.13,0,.34,0,.6-.05l.45-.07.53-.14c.19-.05.39-.14.61-.22a6.76,6.76,0,0,0,.66-.33,6.28,6.28,0,0,0,1.4-1.08,6.07,6.07,0,0,0,1.2-1.76,6.13,6.13,0,0,0,.56-2.45c0-.9,0-1.87,0-2.9l0,0-162.48.05h-6.26l.09-.09v2.2a7.38,7.38,0,0,0,.21,2.15,6.18,6.18,0,0,0,2.4,3.45,6.37,6.37,0,0,0,4,1.12h52.91l53.63,0,36,0,9.77,0h0l-9.77,0-36,0-53.63,0H278.55a6.66,6.66,0,0,1-4.14-1.16,6.35,6.35,0,0,1-2.48-3.56,7.72,7.72,0,0,1-.21-2.19v-2.29h6.35l162.48.06h0v0c0,1,0,2,0,2.91A6.22,6.22,0,0,1,440,286a6,6,0,0,1-1.22,1.77,6.25,6.25,0,0,1-1.41,1.08c-.23.13-.46.23-.67.33a6.49,6.49,0,0,1-.62.21l-.53.14-.45.07a5.51,5.51,0,0,1-.6,0Z" transform="translate(-238.61 -184.15)"/><polygon class="cls-5" points="101.81 96.43 103.9 99.76 133.36 99.76 135.31 96.43 101.81 96.43"/><rect class="cls-6" x="46.49" y="7.13" width="141.2" height="83.75" rx="2.98"/><path class="cls-5" d="M423.26,275a3.14,3.14,0,0,0,1.12-.22,3.18,3.18,0,0,0,1.14-.81,3.07,3.07,0,0,0,.75-1.75c0-3,0-7.33,0-13,0-11.25,0-27.53,0-47.65V194.82a5.72,5.72,0,0,0-.05-1,3,3,0,0,0-1-1.74,3,3,0,0,0-1.89-.71H288.15a3,3,0,0,0-2.39,1.21,2.89,2.89,0,0,0-.53,1.28,13.13,13.13,0,0,0,0,1.41v75.8c0,.42,0,.85,0,1.25a2.79,2.79,0,0,0,.38,1.15,2.91,2.91,0,0,0,1.9,1.4,5.45,5.45,0,0,0,1.22.08h36.52l32.91,0,47.65,0h12.95l-12.95,0-47.65,0H288.71a5.36,5.36,0,0,1-1.26-.07,3.18,3.18,0,0,1-2-1.48,3,3,0,0,1-.4-1.22c0-.44,0-.85,0-1.27,0-1.68,0-3.38,0-5.08V195.27a11.6,11.6,0,0,1,0-1.44,3.13,3.13,0,0,1,3.1-2.64H423.3a3.09,3.09,0,0,1,2,.74,3.13,3.13,0,0,1,1,1.82,5.35,5.35,0,0,1,.05,1v1q0,8.24,0,15.79c0,20.12,0,36.4,0,47.65,0,5.63,0,10,0,13a3,3,0,0,1-.76,1.77,2.93,2.93,0,0,1-1.16.8,2.68,2.68,0,0,1-.83.2Z" transform="translate(-238.61 -184.15)"/><path class="cls-3" d="M337.45,212v.8H334.1v-4.33h3.27v.81H335.1v.94h2V211h-2v1Z" transform="translate(-238.61 -184.15)"/><path class="cls-3" d="M341.58,210.91v1.9h-1v-1.75c0-.54-.25-.79-.67-.79s-.8.28-.8.9v1.64h-1v-3.33h.92v.39a1.47,1.47,0,0,1,1.1-.43A1.3,1.3,0,0,1,341.58,210.91Z" transform="translate(-238.61 -184.15)"/><path class="cls-3" d="M344.6,212.65a1.4,1.4,0,0,1-.78.21,1.1,1.1,0,0,1-1.25-1.19V210.3h-.51v-.74h.51v-.81h1v.81h.83v.74h-.83v1.36a.38.38,0,0,0,.41.43.65.65,0,0,0,.39-.12Z" transform="translate(-238.61 -184.15)"/><path class="cls-3" d="M348.28,211.42h-2.52a.9.9,0,0,0,1,.67,1.15,1.15,0,0,0,.83-.32l.52.55a1.95,1.95,0,0,1-3.28-1.17,1.69,1.69,0,0,1,1.78-1.71,1.64,1.64,0,0,1,1.73,1.72A2.46,2.46,0,0,1,348.28,211.42Zm-2.53-.56h1.64a.83.83,0,0,0-1.64,0Z" transform="translate(-238.61 -184.15)"/><path class="cls-3" d="M351,209.44v.89l-.22,0a.82.82,0,0,0-.88.93v1.57h-1v-3.33h.93v.44A1.33,1.33,0,0,1,351,209.44Z" transform="translate(-238.61 -184.15)"/><path class="cls-3" d="M355.5,211.28v1.53h-1v-1.54l-1.67-2.79h1.06l1.16,1.93,1.15-1.93h1Z" transform="translate(-238.61 -184.15)"/><path class="cls-3" d="M356.92,211.15a1.83,1.83,0,1,1,1.83,1.71A1.71,1.71,0,0,1,356.92,211.15Zm2.68,0a.85.85,0,1,0-.85.92A.84.84,0,0,0,359.6,211.15Z" transform="translate(-238.61 -184.15)"/><path class="cls-3" d="M364.57,209.48v3.33h-.91v-.39a1.37,1.37,0,0,1-1,.44,1.33,1.33,0,0,1-1.42-1.5v-1.88h1v1.74c0,.56.24.81.67.81s.77-.29.77-.9v-1.65Z" transform="translate(-238.61 -184.15)"/><path class="cls-3" d="M367.53,209.44v.89l-.21,0a.82.82,0,0,0-.89.93v1.57h-1v-3.33h.92v.44A1.33,1.33,0,0,1,367.53,209.44Z" transform="translate(-238.61 -184.15)"/><path class="cls-3" d="M369.68,210.65a2.37,2.37,0,1,1,2.37,2.24A2.24,2.24,0,0,1,369.68,210.65Zm3.72,0a1.36,1.36,0,1,0-1.35,1.38A1.32,1.32,0,0,0,373.4,210.65Z" transform="translate(-238.61 -184.15)"/><path class="cls-3" d="M376,209.3h-1.39v-.82h3.77v.82H377v3.51h-1Z" transform="translate(-238.61 -184.15)"/><path class="cls-3" d="M382.69,210.05c0,1-.73,1.57-1.88,1.57h-.88v1.19h-1v-4.33h1.88C382,208.48,382.69,209.08,382.69,210.05Zm-1,0c0-.47-.31-.75-.92-.75h-.82v1.5h.82C381.36,210.8,381.67,210.52,381.67,210.05Z" transform="translate(-238.61 -184.15)"/><g class="cls-7"><rect class="cls-3" x="79.33" y="37.59" width="10.99" height="14.97" rx="1.92"/></g><g class="cls-7"><rect class="cls-3" x="93.16" y="37.59" width="10.99" height="14.97" rx="1.92"/></g><g class="cls-7"><rect class="cls-3" x="106.99" y="37.59" width="10.99" height="14.97" rx="1.92"/></g><g class="cls-7"><rect class="cls-3" x="120.81" y="37.59" width="10.99" height="14.97" rx="1.92"/></g><g class="cls-7"><rect class="cls-3" x="134.64" y="37.59" width="10.99" height="14.97" rx="1.92"/></g><g class="cls-7"><rect class="cls-3" x="148.47" y="37.59" width="10.99" height="14.97" rx="1.92"/></g><path class="cls-5" d="M324.58,229.29l1.32.71-.59,1-1.33-.78,0,1.46h-1.14v-1.48l-1.32.8-.58-1,1.31-.71-1.31-.72.58-1,1.32.79V226.9H324l0,1.47,1.33-.79.59,1Z" transform="translate(-238.61 -184.15)"/><rect class="cls-8" x="102.1" y="61.75" width="34.58" height="10.08" rx="5.04"/><path class="cls-3" d="M348.34,250.71a1.57,1.57,0,0,1,2.71-1l-.42.39a.91.91,0,0,0-.71-.33.91.91,0,0,0,0,1.82.91.91,0,0,0,.71-.34l.42.39a1.45,1.45,0,0,1-1.17.51A1.46,1.46,0,0,1,348.34,250.71Z" transform="translate(-238.61 -184.15)"/><path class="cls-3" d="M351.21,251a1.2,1.2,0,1,1,1.2,1.12A1.13,1.13,0,0,1,351.21,251Zm1.76,0a.56.56,0,1,0-.56.6A.56.56,0,0,0,353,251Z" transform="translate(-238.61 -184.15)"/><path class="cls-3" d="M356.27,250.88v1.25h-.64V251c0-.35-.16-.51-.44-.51s-.52.19-.52.59v1.08H354v-2.19h.61v.26a.93.93,0,0,1,.72-.29A.86.86,0,0,1,356.27,250.88Z" transform="translate(-238.61 -184.15)"/><path class="cls-3" d="M358.25,252a.86.86,0,0,1-.52.14.72.72,0,0,1-.81-.78v-.9h-.34V250h.34v-.53h.63V250h.54v.49h-.54v.89a.25.25,0,0,0,.27.29.45.45,0,0,0,.26-.08Z" transform="translate(-238.61 -184.15)"/><path class="cls-3" d="M358.53,249.29a.37.37,0,0,1,.39-.36.36.36,0,0,1,.4.34.37.37,0,0,1-.4.37A.36.36,0,0,1,358.53,249.29Zm.08.65h.63v2.19h-.63Z" transform="translate(-238.61 -184.15)"/><path class="cls-3" d="M362.06,250.88v1.25h-.63V251c0-.35-.16-.51-.44-.51s-.53.19-.53.59v1.08h-.63v-2.19h.6v.26a1,1,0,0,1,.73-.29A.86.86,0,0,1,362.06,250.88Z" transform="translate(-238.61 -184.15)"/><path class="cls-3" d="M364.84,249.94v2.19h-.61v-.26a.93.93,0,0,1-1.61-.69v-1.24h.64v1.14c0,.37.16.53.44.53s.5-.18.5-.59v-1.08Z" transform="translate(-238.61 -184.15)"/><path class="cls-3" d="M367.55,251.21H365.9a.57.57,0,0,0,.62.44.74.74,0,0,0,.55-.21l.34.37a1.15,1.15,0,0,1-.9.35,1.13,1.13,0,0,1-1.25-1.12,1.11,1.11,0,0,1,1.17-1.13,1.08,1.08,0,0,1,1.13,1.13A1,1,0,0,1,367.55,251.21Zm-1.66-.36H367a.52.52,0,0,0-.54-.46A.52.52,0,0,0,365.89,250.85Z" transform="translate(-238.61 -184.15)"/><path class="cls-5" d="M358.87,187.79a1.55,1.55,0,1,1-1.55-1.55A1.54,1.54,0,0,1,358.87,187.79Z" transform="translate(-238.61 -184.15)"/><path class="cls-5" d="M415.84,196.34v-1.49a.3.3,0,0,1,.29-.32h2.23a.3.3,0,0,1,.29.32v1.49a.3.3,0,0,1-.29.32h-2.23A.3.3,0,0,1,415.84,196.34Z" transform="translate(-238.61 -184.15)"/><path class="cls-5" d="M420.08,197.16h-4.42a.38.38,0,0,1-.39-.39v-2.44a.38.38,0,0,1,.39-.39H420a.36.36,0,0,1,.36.36v.45a.06.06,0,0,0,.06.05h.48a.23.23,0,0,1,.23.24v.79a.29.29,0,0,1-.29.29h-.36a.06.06,0,0,0-.06.06v.62A.36.36,0,0,1,420.08,197.16Zm-4.42-3a.22.22,0,0,0-.22.22v2.44a.22.22,0,0,0,.22.22h4.42a.19.19,0,0,0,.18-.19v-.62a.23.23,0,0,1,.23-.24h.36a.11.11,0,0,0,.12-.11V195a.06.06,0,0,0-.06-.06h-.48a.23.23,0,0,1-.23-.23v-.45a.19.19,0,0,0-.19-.19Z" transform="translate(-238.61 -184.15)"/></g><g id="Character"><path class="cls-5" d="M281,238.61a3,3,0,0,0-2.66-2,1.9,1.9,0,0,0-1.13-2.23,3.29,3.29,0,0,0-2.67.19,8.48,8.48,0,0,1-1.76.81,9.87,9.87,0,0,1-2.54-.1,4.77,4.77,0,0,0-4.28,2.48c-.28.54-.46,1.14-.77,1.66s-.58.78-.83,1.2a3.59,3.59,0,0,0,.29,4l12-2.76a2.87,2.87,0,0,0,4.37-3.22Z" transform="translate(-238.61 -184.15)"/><polygon class="cls-9" points="69.94 98.54 58.4 97.4 57.73 103.39 70.77 102.94 69.94 98.54"/><path class="cls-9" d="M317.32,286.2a.65.65,0,0,1-.67.26.47.47,0,0,1-.15-.06c-.34-.17-.19-.9-.19-.9l-1.7-.56a18.92,18.92,0,0,0-3.44,1.94c-.95.83-2.88-.27-2.88-.27l-.12-3.81,3.65-2.39s-.23.14.08-.36,1.28-.14,1.28-.14c.2-.25.87-.24.87-.24l2.75.77a1.9,1.9,0,0,1,1.26,1.1l.89,2.06a5.38,5.38,0,0,1,.26,1.75.57.57,0,0,1-.71.27s-.28.86-.51.86a2,2,0,0,1-.67-.28Z" transform="translate(-238.61 -184.15)"/><path class="cls-10" d="M311.88,286.38l.19-.1.52-.31a21,21,0,0,1,2.05-1h0l1.68.57,0-.09a2,2,0,0,0,0,.43.84.84,0,0,0,.13.45.44.44,0,0,0,.22.14.61.61,0,0,0,.24.06.73.73,0,0,0,.47-.17l.09-.1,0,0h0l-.1,0h0l.05,0a2.25,2.25,0,0,0,.21.12l.23.1.13,0a.32.32,0,0,0,.17,0,.66.66,0,0,0,.2-.21,2.53,2.53,0,0,0,.13-.22,3.94,3.94,0,0,0,.18-.48l-.11.06a.68.68,0,0,0,.68-.12.52.52,0,0,0,.18-.33,2,2,0,0,0,0-.35,8.88,8.88,0,0,0-.28-1.32h0l-.47-1.1-.3-.7a3.32,3.32,0,0,0-.34-.68,1.89,1.89,0,0,0-.57-.52,2.23,2.23,0,0,0-.69-.26l-2.59-.72h0a2.63,2.63,0,0,0-.49.05.77.77,0,0,0-.44.22l.1,0a1,1,0,0,0-.91-.09,1.16,1.16,0,0,0-.56.64l0,0L309.27,282l-.68.45c-.16.11-.24.16-.23.17a1.15,1.15,0,0,0,.25-.14l.7-.42,2.54-1.58h0v0a1,1,0,0,1,.49-.56.83.83,0,0,1,.76.09l.06,0,.05-.05a.71.71,0,0,1,.36-.16,2.15,2.15,0,0,1,.45,0h0l2.59.73a2.23,2.23,0,0,1,.64.24,1.64,1.64,0,0,1,.51.47,3.28,3.28,0,0,1,.32.65l.3.7.48,1.1h0a10.22,10.22,0,0,1,.27,1.29,1.1,1.1,0,0,1,0,.31.31.31,0,0,1-.12.22.5.5,0,0,1-.5.09l-.08,0,0,.08a3,3,0,0,1-.18.45.74.74,0,0,1-.24.35h-.07l-.1,0-.21-.09-.2-.1-.05,0h0l-.11,0h0v0l-.08.07a.54.54,0,0,1-.36.14.58.58,0,0,1-.19,0,.32.32,0,0,1-.15-.09,1.09,1.09,0,0,1-.07-.76v-.06l-.06,0-1.7-.55h0a17.33,17.33,0,0,0-2,1l-.51.33C311.93,286.33,311.88,286.37,311.88,286.38Z" transform="translate(-238.61 -184.15)"/><path class="cls-10" d="M313.5,281a3.24,3.24,0,0,0,.85.41,9.13,9.13,0,0,0,2.29.53l-.08-.08a4.14,4.14,0,0,0,.09.46,7.07,7.07,0,0,0,1.07,2.43,6,6,0,0,0,.51.62c.13.14.21.21.22.2s-.26-.33-.62-.9a7.56,7.56,0,0,1-1-2.39c0-.15-.06-.3-.09-.45v-.07h-.07a11,11,0,0,1-2.27-.47A7.09,7.09,0,0,0,313.5,281Z" transform="translate(-238.61 -184.15)"/><path class="cls-10" d="M315.9,283a3.47,3.47,0,0,0,.44,1.68,3.6,3.6,0,0,0,1.05,1.39s-.47-.62-.88-1.47S316,283,315.9,283Z" transform="translate(-238.61 -184.15)"/><path class="cls-10" d="M307.92,285.4l.08.06a1.65,1.65,0,0,0,.26.15,2.87,2.87,0,0,0,1.08.3,3,3,0,0,0,1.68-.32A3.24,3.24,0,0,0,312.5,284l-.11.05a7.39,7.39,0,0,0,2,.41,6.45,6.45,0,0,0,.76,0,2.87,2.87,0,0,0,.76-.12.58.58,0,0,0,.31-.27.49.49,0,0,0,0-.41.51.51,0,0,0-.27-.29l-.31-.14c-.82-.34-1.58-.61-2.21-.81s-1.16-.35-1.53-.44a3.44,3.44,0,0,0-.57-.12l.55.19c.36.11.87.27,1.5.49s1.38.51,2.19.85l.31.14a.34.34,0,0,1,.18.19.36.36,0,0,1,0,.27.45.45,0,0,1-.22.18,2.21,2.21,0,0,1-.69.1,6.26,6.26,0,0,1-.75,0,7.1,7.1,0,0,1-2-.39l-.08,0,0,.08a3.08,3.08,0,0,1-1.38,1.5,3,3,0,0,1-1.6.35,3.63,3.63,0,0,1-1.07-.24A3.14,3.14,0,0,0,307.92,285.4Z" transform="translate(-238.61 -184.15)"/><path class="cls-9" d="M271.11,267.86a5.24,5.24,0,0,1-5.12-5.25l-.22-17.38c-.2-4.67,2.27-8.68,6.81-8.76H273a8.25,8.25,0,0,1,7.79,8c.15,4.05.31,8,.2,10.13-.23,4.47-4.66,4.92-4.66,4.92s0,1.67,0,3a5.25,5.25,0,0,1-5.21,5.33Z" transform="translate(-238.61 -184.15)"/><path class="cls-10" d="M276.33,259.57a10.37,10.37,0,0,1-5.61-2,5.42,5.42,0,0,0,5.6,3.21Z" transform="translate(-238.61 -184.15)"/><path class="cls-5" d="M279.18,248.28c0,.22-.29.4-.63.4s-.62-.17-.62-.39.29-.41.63-.41S279.18,248.05,279.18,248.28Z" transform="translate(-238.61 -184.15)"/><path class="cls-5" d="M273.1,248.49a.64.64,0,0,1-.62.62.61.61,0,0,1-.62-.61.63.63,0,0,1,.62-.62A.61.61,0,0,1,273.1,248.49Z" transform="translate(-238.61 -184.15)"/><path class="cls-5" d="M275.4,251.72a4.2,4.2,0,0,1,1.1-.16c.17,0,.33,0,.36-.16a.82.82,0,0,0-.09-.52c-.14-.44-.29-.89-.45-1.36a24.56,24.56,0,0,1-1-3.55,21.87,21.87,0,0,1,1.27,3.46c.15.47.3.93.43,1.36a1.1,1.1,0,0,1,.07.7.44.44,0,0,1-.3.24,1,1,0,0,1-.29,0A4.93,4.93,0,0,1,275.4,251.72Z" transform="translate(-238.61 -184.15)"/><path class="cls-5" d="M273.51,244.18c-.09.17-.74,0-1.53-.09s-1.45,0-1.52-.14.1-.24.39-.37a2.42,2.42,0,0,1,1.18-.19,2.56,2.56,0,0,1,1.15.36C273.44,243.92,273.56,244.1,273.51,244.18Z" transform="translate(-238.61 -184.15)"/><path class="cls-5" d="M279.89,244.42c-.14.15-.68,0-1.34,0s-1.21.07-1.34-.1,0-.23.29-.37a2.08,2.08,0,0,1,1.09-.23,2.21,2.21,0,0,1,1.07.34C279.88,244.18,280,244.34,279.89,244.42Z" transform="translate(-238.61 -184.15)"/><path class="cls-9" d="M266,248.56c-.07,0-2.95-1-3,2a2.25,2.25,0,0,0,3,2.38Z" transform="translate(-238.61 -184.15)"/><path class="cls-10" d="M265.08,251.79s-.05,0-.14.08a.48.48,0,0,1-.38,0,1.34,1.34,0,0,1-.59-1.2,2.06,2.06,0,0,1,.15-.76.65.65,0,0,1,.4-.41.26.26,0,0,1,.3.15c0,.09,0,.15,0,.16s.06,0,0-.18a.38.38,0,0,0-.11-.19.42.42,0,0,0-.29-.09.75.75,0,0,0-.55.48,1.9,1.9,0,0,0-.19.85,1.4,1.4,0,0,0,.75,1.33.53.53,0,0,0,.48-.08C265.08,251.87,265.1,251.8,265.08,251.79Z" transform="translate(-238.61 -184.15)"/><path class="cls-5" d="M268.13,240.9a2.19,2.19,0,0,1,1.49-1.7,3.08,3.08,0,0,1,2,0c1.68.61,4.55,1.52,5.3.94a4.68,4.68,0,0,0,1.34-1.39l.59.64c.48-.27-1-1.88-2.15-2.44a10.39,10.39,0,0,0-6.18-.87,7.2,7.2,0,0,0-4.65,3.46,12.31,12.31,0,0,0-1.32,6.16c0,.65-.1,2.51.53,2.65a1.15,1.15,0,0,1,1.07,1.27,1.3,1.3,0,0,0,.31.93c.54.6,1.21,0,1.52-.52a13.57,13.57,0,0,0,.6-6.93,9.23,9.23,0,0,1-.48-1.89A1.32,1.32,0,0,1,268.13,240.9Z" transform="translate(-238.61 -184.15)"/><path class="cls-5" d="M275.52,253.37s-.12.17-.4.23a1.63,1.63,0,0,1-1.08-.17,1.7,1.7,0,0,1-.73-.81c-.1-.27-.09-.44,0-.46s.33.58,1,.93S275.49,253.27,275.52,253.37Z" transform="translate(-238.61 -184.15)"/><path class="cls-6" d="M278.62,294.28l-14.27-3.13-9.15-22.72S243,271.15,240.92,278c-1.75,5.92-5.35,32.07,2.85,48.2a12.4,12.4,0,0,0,11.06,6.72h62.41a15.47,15.47,0,0,0,15.38-13.75,66.5,66.5,0,0,0,.55-8.11l-10-7.69Z" transform="translate(-238.61 -184.15)"/><g class="cls-11"><path d="M316.77,302.19a50.3,50.3,0,0,0,16.13,14.26l.3-7.79-11.8-8.4Z" transform="translate(-238.61 -184.15)"/></g><path class="cls-1" d="M269.65,264c0,.42,3.24,1.75,4.71,1.17,2.23-.89,2-2.65,2-2.65l1.23,1.31L290,282.77l9.23,6.09-14.78,4.68-15.49-17.8Z" transform="translate(-238.61 -184.15)"/><path class="cls-8" d="M265.74,257.66l-.33.61L263.94,261l-6.14,3.91,12.62,15,5.76,13.61,13.8,4.32s-6.57-10.1-8.61-15.26a71.63,71.63,0,0,0-4.11-8.7,85.74,85.74,0,0,1-3.37-8.2Z" transform="translate(-238.61 -184.15)"/><path class="cls-8" d="M295.3,284.67l2.7,2.53.77,1.56-10.06-4.69-7.27-10.17s-2.59-5.74-3.48-7.8-1.63-3.39-1.63-3.39V261l3.67,3.31,3.06.91,5.11,8.09Z" transform="translate(-238.61 -184.15)"/><path class="cls-8" d="M292.2,275.16s-1.23-2.61-2.22-4.77a9.76,9.76,0,0,0-7.55-5.35l5.86,16.24,7.17,5.09s2.05.72,2.3,0c0,0,1.5-5.38,1.45-5.4s-5.11-1.54-5.11-1.54l-2-4.55" transform="translate(-238.61 -184.15)"/><path class="cls-5" d="M303,270.09l-7,11.61,7.3-.21,6.44-10.77a.62.62,0,0,0-.54-.93h-5.7A.6.6,0,0,0,303,270.09Z" transform="translate(-238.61 -184.15)"/><path class="cls-9" d="M276.18,283.22l17.44-2.08,2.94-5.13,2.3-1.26a1.13,1.13,0,0,1,1.22.07l.22.16,1.7-.21a1.36,1.36,0,0,1,.84.16l1.21.69a.57.57,0,0,1,.29.5h0a.58.58,0,0,1-.69.57l-1.17-.22-1.8.59s1.16.12,1.31,1-.44.9-.44.9a1.13,1.13,0,0,1,.37,1.74s1,.68-.13,2c-.77.87-6.33,3.7-6.33,3.7l-19.28,7.17Z" transform="translate(-238.61 -184.15)"/><path class="cls-10" d="M301.87,280.72s.13,0,.28.16a.92.92,0,0,1,.19.86,2.65,2.65,0,0,1-.75,1.08,9.22,9.22,0,0,1-1.23,1,17.22,17.22,0,0,1-2.51,1.39,6.92,6.92,0,0,1-1.11.44,10.06,10.06,0,0,1,1.05-.56,21.36,21.36,0,0,0,2.47-1.42,10.34,10.34,0,0,0,1.21-1,2.47,2.47,0,0,0,.74-1,.88.88,0,0,0-.11-.78C302,280.77,301.86,280.74,301.87,280.72Z" transform="translate(-238.61 -184.15)"/><path class="cls-10" d="M300.23,275a2.62,2.62,0,0,1-.87.33,2.44,2.44,0,0,1-.92.15,2.39,2.39,0,0,1,.87-.33A2.46,2.46,0,0,1,300.23,275Z" transform="translate(-238.61 -184.15)"/><path class="cls-10" d="M302.48,276.47a4.53,4.53,0,0,1-1.21.5,4.77,4.77,0,0,1-1.27.33,4.54,4.54,0,0,1,1.21-.5A5.06,5.06,0,0,1,302.48,276.47Z" transform="translate(-238.61 -184.15)"/><path class="cls-10" d="M300.39,278.8c-.06,0-.08-.16-.14-.33s-.13-.3-.09-.34.19.07.26.29S300.44,278.81,300.39,278.8Z" transform="translate(-238.61 -184.15)"/><path class="cls-10" d="M301,280.82c-.05,0,0-.26-.1-.55s-.2-.5-.16-.54.25.16.34.5S301,280.83,301,280.82Z" transform="translate(-238.61 -184.15)"/><path class="cls-8" d="M258.29,264.62c-.58.35-5.52,3.72-4.8,9.24s11.65,18,13.93,18.24l8.76,1.44V283.22L272,283l-5.52-10.8Z" transform="translate(-238.61 -184.15)"/><path class="cls-5" d="M276.18,282.72l-.32,0-.88,0-3.14.06h0l0,0-2.22-3c-1.32-1.79-2.51-3.42-3.36-4.6l-1-1.41a3.51,3.51,0,0,1-.34-.53,5.2,5.2,0,0,1,.41.49l1.05,1.37c.88,1.16,2.09,2.77,3.41,4.56l2.2,3-.07,0H275l.88,0A1.14,1.14,0,0,1,276.18,282.72Z" transform="translate(-238.61 -184.15)"/><path class="cls-5" d="M274.05,267.07a2.21,2.21,0,0,1-.18-.32l-.43-.9h.09a11.73,11.73,0,0,0-.84,1.45,12.67,12.67,0,0,1-1.1,1.94l-.07.1-.08-.1c-.56-.7-1.21-1.44-1.91-2.2-1.53-1.67-3-3.1-4-4.16l-1.23-1.25a4.33,4.33,0,0,1-.44-.48,3.43,3.43,0,0,1,.49.42l1.27,1.21c1.07,1,2.55,2.45,4.09,4.12.7.77,1.34,1.52,1.91,2.23h-.15a12.89,12.89,0,0,0,1.11-1.9,12.07,12.07,0,0,1,.9-1.45l.05-.07,0,.08.39.93C274,266.94,274.05,267.06,274.05,267.07Z" transform="translate(-238.61 -184.15)"/><path class="cls-5" d="M280,264.43a1.51,1.51,0,0,1,.27.51c.14.35.29.86.46,1.46l.11.42-.27-.35a11.34,11.34,0,0,0-1.29-1.36c-.4-.37-.8-.71-1.16-1l.15-.06a16.44,16.44,0,0,0-.06,1.74,1.89,1.89,0,0,1-.08.67,6.23,6.23,0,0,1,0-.67,11.09,11.09,0,0,1,0-1.76l0-.17.13.11c.36.31.77.65,1.18,1a10.21,10.21,0,0,1,1.29,1.4l-.15.07c-.15-.61-.28-1.11-.39-1.46A4.06,4.06,0,0,1,280,264.43Z" transform="translate(-238.61 -184.15)"/><path class="cls-5" d="M292.71,281.25a2.53,2.53,0,0,1-.42-.38l-1.08-1.1c-.45-.47-1-1-1.58-1.66-.27-.35-.5-.73-.79-1.1a7.5,7.5,0,0,1-.73-1.27c-.42-.9-.73-1.8-1-2.61s-.53-1.54-.76-2.15-.44-1.09-.6-1.41a5.2,5.2,0,0,1-.25-.51s0,0,.09.12.14.19.23.35a14,14,0,0,1,.66,1.4c.25.6.51,1.33.81,2.14s.61,1.7,1,2.59a7.85,7.85,0,0,0,.71,1.24c.28.38.52.76.78,1.1.55.63,1.1,1.2,1.53,1.67l1,1.15A3.26,3.26,0,0,1,292.71,281.25Z" transform="translate(-238.61 -184.15)"/><path class="cls-5" d="M297.78,287.08l33.12-.93a3.81,3.81,0,0,1,1.53.28,9.69,9.69,0,0,1,4.85,5c2.16,4.58,12.2,23.87,12.2,23.87l-10.16,5.2-12.45-23.1-38.39-3.26.44-3.07Z" transform="translate(-238.61 -184.15)"/><path class="cls-2" d="M336.31,316.43l5.29,9.09.35,2.29a2.58,2.58,0,0,0,2.94,2.16L361,327.49a1.26,1.26,0,0,0,1-1.72,1.08,1.08,0,0,0-.77-.62c-1.34-.35-11.74-4.16-11.74-4.16l-4.33-8.68Z" transform="translate(-238.61 -184.15)"/><path class="cls-5" d="M340.74,318.53a9.81,9.81,0,0,1-1.19-1.46,10.06,10.06,0,0,1-1-1.56A9.13,9.13,0,0,1,339.7,317,9.25,9.25,0,0,1,340.74,318.53Z" transform="translate(-238.61 -184.15)"/><path class="cls-5" d="M343.9,317.26a6.71,6.71,0,0,1-1.11-1.53A6.79,6.79,0,0,1,342,314c.05,0,.42.74.94,1.63S344,317.23,343.9,317.26Z" transform="translate(-238.61 -184.15)"/><path class="cls-5" d="M346.11,329.68s-.12-.32-.36-.79a4.67,4.67,0,0,0-3.13-2.46c-.52-.13-.85-.13-.85-.17a2.08,2.08,0,0,1,.88,0,4.33,4.33,0,0,1,3.24,2.54A1.94,1.94,0,0,1,346.11,329.68Z" transform="translate(-238.61 -184.15)"/><path class="cls-5" d="M357,328.11a1.27,1.27,0,0,1-.26-.6,2.82,2.82,0,0,1,.08-1.58,3.86,3.86,0,0,1,.84-1.34c.28-.29.48-.44.5-.42a2.67,2.67,0,0,1-.39.52A5,5,0,0,0,357,326a3.16,3.16,0,0,0-.13,1.48A4.64,4.64,0,0,1,357,328.11Z" transform="translate(-238.61 -184.15)"/><path class="cls-5" d="M287.63,291.6s34.18-3.43,35.84-3.29c3.07.25,8.72,5.09,18.75,11.82a92.27,92.27,0,0,1,14.4,12.1l-3.21,7.32s-22.48-8.19-26-11.14c-2.93-2.45-8.28-5.93-8.28-5.93l-13.18.13-9.8.86a14.39,14.39,0,0,1-12.71-5.59l-3.8-5Z" transform="translate(-238.61 -184.15)"/><path class="cls-6" d="M319,302.37l.16.11.46.31,1.78,1.25c1.54,1.1,3.8,2.68,6.57,4.78a6.55,6.55,0,0,0,.53.39l.57.35c.4.21.81.43,1.24.63l1.32.62,1.4.61c1.89.82,3.95,1.68,6.14,2.57,4.38,1.78,9.3,3.72,14.6,5.76l-.12.05,2.91-7.36,0,.1-4-4.07h0c-.94-.81-1.94-1.68-3-2.53a207.75,207.75,0,0,0-19.16-14.05h0a18.13,18.13,0,0,0-2.9-2,13.82,13.82,0,0,0-3.1-1.35l-.8-.19-.8-.13-.79,0h-3.86l-10.32,0-6.7,0h-1.78l1.78,0,6.7,0,10.32,0H322l.81,0,.81.13.81.19a14.21,14.21,0,0,1,3.14,1.36,18.5,18.5,0,0,1,2.94,2.05h0a202.94,202.94,0,0,1,19.18,14.05c1,.85,2,1.72,3,2.53h0l4,4.07,0,.05,0,.06c-1,2.54-2,5-2.91,7.36l0,.08-.08,0c-5.31-2-10.22-4-14.6-5.78q-3.29-1.35-6.14-2.59l-1.39-.62-1.32-.62c-.43-.21-.84-.43-1.25-.64l-.58-.36c-.19-.12-.35-.27-.53-.4-2.75-2.11-5-3.71-6.54-4.82l-1.75-1.27-.46-.33Z" transform="translate(-238.61 -184.15)"/><path class="cls-2" d="M346.15,317.69l9.47,3.73,1.58,1.7a2.58,2.58,0,0,0,3.64.14l12-11.07a1.25,1.25,0,0,0-.14-2,1.09,1.09,0,0,0-1-.09c-1.31.47-12.06,3.13-12.06,3.13l-7.2-5.74Z" transform="translate(-238.61 -184.15)"/><path class="cls-5" d="M346.15,317.69l.1-.18.32-.53,1.23-2,4.56-7.48,0-.07.06.05c2.11,1.69,4.55,3.62,7.21,5.73h-.07l6.41-1.62,3.39-.88c.57-.15,1.15-.3,1.72-.47l.43-.13A1.41,1.41,0,0,1,372,310a1.17,1.17,0,0,1,.89.33,1.35,1.35,0,0,1,.13,1.77,2,2,0,0,1-.32.33l-.33.3-.65.61-2.55,2.35-4.82,4.46c-.77.7-1.51,1.4-2.24,2.07l-1.08,1a3.7,3.7,0,0,1-.57.46,2.6,2.6,0,0,1-.66.29,2.64,2.64,0,0,1-2.56-.64c-.6-.63-1.15-1.24-1.68-1.82l0,0-6.94-2.77-1.87-.76-.48-.19-.16-.07.18.06.49.19,1.9.73,6.93,2.68h0c.54.58,1.1,1.19,1.69,1.81a2.49,2.49,0,0,0,2.42.59,2.65,2.65,0,0,0,.62-.27,4.61,4.61,0,0,0,.55-.44l1.07-1,2.24-2.08,4.81-4.46,2.55-2.36.65-.6a6,6,0,0,0,.62-.61,1.16,1.16,0,0,0-.1-1.52,1,1,0,0,0-.76-.29,1.7,1.7,0,0,0-.42.1l-.43.13-1.74.48-3.39.88-6.41,1.6h0l0,0-7.19-5.76.1,0c-1.92,3.11-3.5,5.64-4.59,7.4l-1.27,2-.34.53Z" transform="translate(-238.61 -184.15)"/><path class="cls-5" d="M361.69,322.34s-.28-.2-.74-.45a4.69,4.69,0,0,0-4-.29c-.49.19-.77.37-.79.34a1.93,1.93,0,0,1,.73-.48,4.28,4.28,0,0,1,4.12.3A1.81,1.81,0,0,1,361.69,322.34Z" transform="translate(-238.61 -184.15)"/><path class="cls-5" d="M369.81,315a1.34,1.34,0,0,1-.55-.35,2.75,2.75,0,0,1-.82-1.36,3.93,3.93,0,0,1-.06-1.58,1.74,1.74,0,0,1,.18-.62,2.6,2.6,0,0,1,0,.64,4.87,4.87,0,0,0,.11,1.51,3,3,0,0,0,.73,1.3C369.63,314.78,369.83,314.93,369.81,315Z" transform="translate(-238.61 -184.15)"/><path class="cls-6" d="M313.16,302.38c-.73-3.48-2.23-7-5.2-9-2.25-1.49-5-1.86-7.71-2.18l-56-6.89c-.5,8.83,3.27,19.81,7.13,27.77a7.76,7.76,0,0,0,2.43,3.25c1.4.92,3.19.91,4.86.87,18.84-.48,37.69-1.28,56.43-3.34C314,309.46,313.89,305.86,313.16,302.38Z" transform="translate(-238.61 -184.15)"/><path class="cls-5" d="M264.84,286.84a4.59,4.59,0,0,1-.66,0l-1.79-.19c-1.51-.18-3.59-.44-5.89-.75s-4.38-.64-5.87-.9c-.75-.13-1.36-.24-1.77-.34a4.37,4.37,0,0,1-.65-.15,2.88,2.88,0,0,1,.66.08l1.78.27c1.5.23,3.58.52,5.88.84l5.88.81,1.78.25Z" transform="translate(-238.61 -184.15)"/><path class="cls-5" d="M265.13,332.91l-.06-.11-.15-.32-.57-1.26-.41-.9c-.14-.34-.28-.71-.44-1.1-.3-.8-.68-1.69-1-2.71l-.53-1.59c-.19-.55-.34-1.14-.51-1.75-.37-1.2-.66-2.51-1-3.89a64.36,64.36,0,0,1-1.27-18.3c.13-1.41.24-2.75.43-4,.1-.63.16-1.23.27-1.8s.21-1.13.31-1.65c.17-1.06.43-2,.62-2.82.1-.41.18-.8.28-1.15l.28-1c.16-.56.3-1,.39-1.32l.11-.34a.7.7,0,0,1,0-.11,1.13,1.13,0,0,0,0,.12l-.09.35c-.09.31-.21.76-.36,1.32l-.26,1c-.09.35-.17.74-.27,1.15-.18.83-.42,1.77-.59,2.82-.09.53-.19,1.08-.29,1.65s-.17,1.18-.25,1.8c-.2,1.24-.29,2.58-.42,4a71.77,71.77,0,0,0,0,9.17,70.91,70.91,0,0,0,1.28,9.08c.32,1.38.59,2.69.95,3.89.18.6.32,1.19.5,1.74l.52,1.6c.31,1,.68,1.91,1,2.71.15.39.28.76.42,1.1l.39.91c.23.54.41,1,.53,1.27l.14.33A1.26,1.26,0,0,1,265.13,332.91Z" transform="translate(-238.61 -184.15)"/><path class="cls-5" d="M264.54,315.12a13,13,0,0,1-2.21,0,11.08,11.08,0,0,1-2.19-.2,12.84,12.84,0,0,1,2.2,0A11.25,11.25,0,0,1,264.54,315.12Z" transform="translate(-238.61 -184.15)"/><path class="cls-5" d="M264,317.67a7,7,0,0,1-2.26-.59,6.79,6.79,0,0,1-2-1.15c0-.05.92.49,2.11,1S264,317.62,264,317.67Z" transform="translate(-238.61 -184.15)"/><path class="cls-5" d="M259.12,300.09a2.85,2.85,0,0,1-1.46.45,2.92,2.92,0,0,1-1.51-.16c0-.06.67,0,1.49,0S259.1,300,259.12,300.09Z" transform="translate(-238.61 -184.15)"/><path class="cls-5" d="M260.24,299.25a2.49,2.49,0,0,1-1.61-.2,2.41,2.41,0,0,1-1.26-1,7.65,7.65,0,0,0,1.34.83A8.37,8.37,0,0,0,260.24,299.25Z" transform="translate(-238.61 -184.15)"/><path class="cls-5" d="M280,239.09a2.48,2.48,0,0,0-1.68-1.5,4.19,4.19,0,0,0-2.3.09l-7.28,1.66a12.32,12.32,0,0,0,4.47,1.5c1.81.19,3.09.21,4.17-.41a1.38,1.38,0,0,0,1.92.69A1.75,1.75,0,0,0,280,239.09Z" transform="translate(-238.61 -184.15)"/><path class="cls-5" d="M352.66,315.42a10.11,10.11,0,0,1-2.18-.63,10,10,0,0,1-2.05-1c0-.05.95.35,2.11.79S352.67,315.37,352.66,315.42Z" transform="translate(-238.61 -184.15)"/><path class="cls-5" d="M354.26,312.31s-.84-.39-1.87-.88-1.87-.86-1.85-.91a7.81,7.81,0,0,1,1.93.74A8.08,8.08,0,0,1,354.26,312.31Z" transform="translate(-238.61 -184.15)"/><path class="cls-2" d="M296.3,290.27l14.67.18,17.71-3.51a1.38,1.38,0,0,0,1.1-1.15l2.41-16a1.18,1.18,0,0,0-1.35-1.34l-18.11,2.95a1.17,1.17,0,0,0-1,1l-2,16.22-13.42-.06a.83.83,0,0,0-.83.82h0A.83.83,0,0,0,296.3,290.27Z" transform="translate(-238.61 -184.15)"/><path class="cls-5" d="M296.3,290.27a.55.55,0,0,1-.28,0,.83.83,0,0,1-.53-.61.85.85,0,0,1,.71-1c.54,0,1.14,0,1.84,0l11.7,0-.07.06c.58-4.67,1.26-10.2,2-16.33a1.25,1.25,0,0,1,.77-.91,3.3,3.3,0,0,1,.59-.13l.59-.09,2.36-.39,4.87-.8,5-.82,2.58-.42,1.31-.21.65-.11a3.64,3.64,0,0,1,.68-.07,1.27,1.27,0,0,1,1.1.88,1.52,1.52,0,0,1,0,.73l-.11.68c-.14.91-.27,1.81-.41,2.71-.27,1.79-.53,3.55-.8,5.28s-.52,3.43-.77,5.09L330,285l-.1.62a1.74,1.74,0,0,1-.17.62,1.46,1.46,0,0,1-1,.77l-1.19.23L311,290.51h0l-10.75-.16-2.91-.05-.76,0h.76l2.91,0,10.75.11h0l16.55-3.3,1.18-.24a1.32,1.32,0,0,0,.88-.68,1.55,1.55,0,0,0,.15-.57l.09-.61c.07-.41.13-.83.19-1.24.25-1.66.51-3.36.77-5.1s.52-3.49.79-5.28c.14-.9.27-1.8.41-2.71l.1-.68a1.16,1.16,0,0,0,0-.64,1.09,1.09,0,0,0-.94-.76,3,3,0,0,0-.64.08l-.66.1-1.3.21-2.58.42-5,.82L316,271l-2.37.39-.58.09a3.27,3.27,0,0,0-.56.12,1.1,1.1,0,0,0-.67.79c-.77,6.11-1.46,11.64-2.05,16.3v.06h-.05l-11.7-.09c-.69,0-1.31,0-1.84,0a.78.78,0,0,0-.57.38.74.74,0,0,0-.1.57.83.83,0,0,0,.5.6A1.65,1.65,0,0,0,296.3,290.27Z" transform="translate(-238.61 -184.15)"/><path class="cls-5" d="M313.32,272c.05,0-.43,4.24-1.08,9.46s-1.22,9.44-1.27,9.43.44-4.24,1.08-9.46S313.27,272,313.32,272Z" transform="translate(-238.61 -184.15)"/><path class="cls-3" d="M321.19,278.54a1.42,1.42,0,0,0,.46,1.93,1.4,1.4,0,0,0,1.78-.85,1.27,1.27,0,1,0-2.24-1.08Z" transform="translate(-238.61 -184.15)"/></g><g id="Speech_Bubble" data-name="Speech Bubble"><path class="cls-3" d="M327.86,244.45H294.08a1.76,1.76,0,0,0-1.76,1.76V261.6a1.76,1.76,0,0,0,1.76,1.76h14.17l3,3.86,2.51-3.86h14.09a1.76,1.76,0,0,0,1.76-1.76V246.21A1.76,1.76,0,0,0,327.86,244.45Z" transform="translate(-238.61 -184.15)"/><path class="cls-5" d="M327.86,244.45H328a1.63,1.63,0,0,1,.48.1,1.73,1.73,0,0,1,.66.46,1.7,1.7,0,0,1,.46,1c0,1.67,0,4.11,0,7.2,0,1.54,0,3.25,0,5.1v2.88a3.93,3.93,0,0,1,0,.76,1.74,1.74,0,0,1-.32.72,1.79,1.79,0,0,1-1.39.75H313.77l.07,0-2.51,3.86-.06.1-.08-.1-3-3.86.07,0H294.61c-.25,0-.48,0-.74,0a1.85,1.85,0,0,1-1.59-1.43,3.11,3.11,0,0,1,0-.74V249.5c0-.89,0-1.77,0-2.64v-.65a1.88,1.88,0,0,1,.12-.66,1.82,1.82,0,0,1,.88-1,1.72,1.72,0,0,1,.63-.2c.22,0,.43,0,.64,0h16.75l12.15,0,3.3,0h0l-3.3,0-12.15,0H294.51c-.21,0-.43,0-.62,0a1.51,1.51,0,0,0-.58.18,1.62,1.62,0,0,0-.79.88,1.77,1.77,0,0,0-.11.6v15.06a3.18,3.18,0,0,0,0,.7,1.71,1.71,0,0,0,.79,1.07,1.67,1.67,0,0,0,.65.22c.22,0,.48,0,.72,0h13.68l0,0,3,3.87h-.14l2.51-3.86,0,0h14.22a1.65,1.65,0,0,0,1.28-.68,1.69,1.69,0,0,0,.3-.67,3.51,3.51,0,0,0,0-.73c0-1,0-2,0-2.88,0-1.85,0-3.56,0-5.1,0-3.09,0-5.53,0-7.2a1.75,1.75,0,0,0-1.08-1.43A2.22,2.22,0,0,0,327.86,244.45Z" transform="translate(-238.61 -184.15)"/><rect class="cls-8" x="59.58" y="63.67" width="4.26" height="3.3" rx="0.45"/><path class="cls-3" d="M298.26,247.91l1.62,1.73a.71.71,0,0,0,.35.24.52.52,0,0,0,.48-.18c.29-.31.57-.62.86-.92l.82-.87s0-.11-.06-.07l-1.55,1.65a1.48,1.48,0,0,1-.25.25c-.23.15-.43,0-.58-.16l-.88-.94-.75-.8s-.1,0-.06.07Z" transform="translate(-238.61 -184.15)"/><path class="cls-3" d="M298.24,251.1l1.31-1.48.18-.21s0-.11-.06-.06c-.44.49-.87,1-1.3,1.48l-.19.21s0,.1.06.06Z" transform="translate(-238.61 -184.15)"/><path class="cls-3" d="M302.39,251l-1.22-1.41-.18-.21s-.1,0-.06.06l1.22,1.42.18.21s.1,0,.06-.07Z" transform="translate(-238.61 -184.15)"/><path class="cls-5" d="M305.6,250.59V249.5l-.54.9h-.19l-.53-.88v1.07h-.4v-1.82h.35l.68,1.13.68-1.13H306v1.82Z" transform="translate(-238.61 -184.15)"/><path class="cls-5" d="M307.76,250H306.7a.38.38,0,0,0,.4.28.51.51,0,0,0,.36-.14l.21.24a.72.72,0,0,1-.58.22.73.73,0,0,1-.8-.72.72.72,0,0,1,.75-.72.7.7,0,0,1,.73.73A.45.45,0,0,1,307.76,250Zm-1.06-.24h.69a.35.35,0,0,0-.69,0Z" transform="translate(-238.61 -184.15)"/><path class="cls-5" d="M307.91,250.46l.13-.29a1,1,0,0,0,.49.14c.19,0,.26-.05.26-.13,0-.23-.85,0-.85-.56,0-.26.24-.45.65-.45a1.3,1.3,0,0,1,.54.12l-.14.29a.77.77,0,0,0-.4-.1c-.18,0-.26.06-.26.13,0,.24.84,0,.84.56,0,.26-.24.44-.66.44A1.15,1.15,0,0,1,307.91,250.46Z" transform="translate(-238.61 -184.15)"/><path class="cls-5" d="M309.29,250.46l.13-.29a1,1,0,0,0,.49.14c.19,0,.26-.05.26-.13,0-.23-.85,0-.85-.56,0-.26.24-.45.65-.45a1.26,1.26,0,0,1,.54.12l-.14.29a.74.74,0,0,0-.4-.1c-.18,0-.26.06-.26.13,0,.24.85,0,.85.56,0,.26-.25.44-.67.44A1.15,1.15,0,0,1,309.29,250.46Z" transform="translate(-238.61 -184.15)"/><path class="cls-5" d="M312.05,249.79v.8h-.39v-.17a.44.44,0,0,1-.42.19c-.33,0-.53-.18-.53-.42s.18-.42.61-.42h.32c0-.17-.11-.28-.32-.28a.69.69,0,0,0-.41.13l-.14-.28a1.06,1.06,0,0,1,.6-.17C311.8,249.17,312.05,249.37,312.05,249.79Zm-.41.36V250h-.28c-.19,0-.25.07-.25.16s.09.17.23.17A.3.3,0,0,0,311.64,250.15Z" transform="translate(-238.61 -184.15)"/><path class="cls-5" d="M313.87,249.19v1.17a.68.68,0,0,1-.78.76,1.2,1.2,0,0,1-.69-.19l.16-.3a.8.8,0,0,0,.49.16c.29,0,.42-.13.42-.38v-.06a.58.58,0,0,1-.45.18.68.68,0,1,1,0-1.36.59.59,0,0,1,.47.2v-.18Zm-.4.66a.34.34,0,0,0-.37-.35.35.35,0,1,0,0,.69A.34.34,0,0,0,313.47,249.85Z" transform="translate(-238.61 -184.15)"/><path class="cls-5" d="M315.61,250h-1.06a.38.38,0,0,0,.4.28.51.51,0,0,0,.36-.14l.21.24a.72.72,0,0,1-.58.22.73.73,0,0,1-.8-.72.72.72,0,0,1,.75-.72.7.7,0,0,1,.73.73A.45.45,0,0,1,315.61,250Zm-1.06-.24h.69a.35.35,0,0,0-.69,0Z" transform="translate(-238.61 -184.15)"/><path class="cls-5" d="M315.76,250.46l.13-.29a1,1,0,0,0,.49.14c.19,0,.26-.05.26-.13,0-.23-.85,0-.85-.56,0-.26.24-.45.65-.45a1.3,1.3,0,0,1,.54.12l-.14.29a.77.77,0,0,0-.4-.1c-.18,0-.26.06-.26.13,0,.24.84,0,.84.56,0,.26-.24.44-.66.44A1.15,1.15,0,0,1,315.76,250.46Z" transform="translate(-238.61 -184.15)"/><path class="cls-5" d="M317.92,249.68a1,1,0,1,1,1,.94A.95.95,0,0,1,317.92,249.68Zm1.57,0a.57.57,0,1,0-.57.58A.55.55,0,0,0,319.49,249.68Z" transform="translate(-238.61 -184.15)"/><path class="cls-5" d="M320.59,249.11H320v-.34h1.59v.34H321v1.48h-.42Z" transform="translate(-238.61 -184.15)"/><path class="cls-5" d="M323.4,249.43c0,.41-.31.66-.79.66h-.37v.5h-.42v-1.82h.79C323.09,248.77,323.4,249,323.4,249.43Zm-.43,0c0-.2-.13-.32-.39-.32h-.34v.64h.34C322.84,249.75,323,249.63,323,249.43Z" transform="translate(-238.61 -184.15)"/><path class="cls-5" d="M298,255.92c0-1.72.95-2.69,2.23-2.69s2.24,1,2.24,2.69-.95,2.7-2.24,2.7S298,257.64,298,255.92Zm3.25,0c0-1.18-.41-1.67-1-1.67s-1,.49-1,1.67.42,1.68,1,1.68S301.2,257.11,301.2,255.92Z" transform="translate(-238.61 -184.15)"/><path class="cls-5" d="M307.37,257c0,1-.88,1.6-2.2,1.6S303,258,303,257a1.32,1.32,0,0,1,.79-1.23,1.2,1.2,0,0,1-.61-1.07c0-.92.82-1.49,2-1.49s2,.57,2,1.49a1.22,1.22,0,0,1-.61,1.07A1.32,1.32,0,0,1,307.37,257Zm-1.22,0c0-.46-.38-.74-1-.74s-1,.28-1,.74.37.75,1,.75S306.15,257.44,306.15,257Zm-1.79-2.21c0,.39.32.64.81.64s.82-.25.82-.64-.33-.66-.82-.66S304.36,254.36,304.36,254.77Z" transform="translate(-238.61 -184.15)"/><path class="cls-5" d="M312.29,257c0,1-.88,1.6-2.2,1.6s-2.19-.62-2.19-1.6a1.32,1.32,0,0,1,.79-1.23,1.2,1.2,0,0,1-.61-1.07c0-.92.82-1.49,2-1.49s2,.57,2,1.49a1.2,1.2,0,0,1-.61,1.07A1.31,1.31,0,0,1,312.29,257Zm-1.22,0c0-.46-.38-.74-1-.74s-1,.28-1,.74.37.75,1,.75S311.07,257.44,311.07,257Zm-1.79-2.21c0,.39.31.64.81.64s.82-.25.82-.64-.33-.66-.82-.66S309.28,254.36,309.28,254.77Z" transform="translate(-238.61 -184.15)"/><path class="cls-5" d="M314.85,253.32v5.21h-1.2v-4.24h-1v-1Z" transform="translate(-238.61 -184.15)"/><path class="cls-5" d="M319.66,257.55v1h-3.94v-.78l2-1.9c.46-.44.54-.71.54-1,0-.41-.28-.65-.83-.65a1.27,1.27,0,0,0-1.08.52l-.88-.56a2.41,2.41,0,0,1,2.07-1c1.16,0,1.94.59,1.94,1.54a2.08,2.08,0,0,1-.87,1.65l-1.2,1.13Z" transform="translate(-238.61 -184.15)"/><path class="cls-5" d="M324,256.94c0,.88-.68,1.68-2.16,1.68a3.58,3.58,0,0,1-2-.56l.47-.92a2.54,2.54,0,0,0,1.49.47c.6,0,1-.25,1-.67s-.29-.64-1-.64h-.55v-.8l1.07-1.21h-2.22v-1h3.65v.78l-1.18,1.34A1.49,1.49,0,0,1,324,256.94Z" transform="translate(-238.61 -184.15)"/></g></svg>