<svg xmlns="http://www.w3.org/2000/svg" viewBox="0 0 158.13 153.08"><defs><style>.cls-1{fill:#ebebeb;}.cls-2{fill:#e0e0e0;}.cls-3{fill:#f0f0f0;}.cls-4{fill:#fff;}.cls-5{fill:#fafafa;}.cls-6{fill:#263238;}.cls-7{fill:#e8505b;}.cls-8{opacity:0.3;}.cls-10,.cls-9{opacity:0.1;}.cls-11{opacity:0.2;}.cls-12{fill:#455a64;}.cls-13{fill:#f5f5f5;}.cls-14{fill:#b78876;}.cls-15{fill:#a36957;}</style></defs><g id="Background_Complete" data-name="Background Complete"><path class="cls-1" d="M232.63,181.22l-37.27,48.41,100.21-24.91-55.81-25.29A5.9,5.9,0,0,0,232.63,181.22Z" transform="translate(-170.92 -177.5)"/><path class="cls-2" d="M194.84,230l37.62-48.87a6.08,6.08,0,0,1,7.38-1.86l56.36,25.53Zm42.47-50.87a5.69,5.69,0,0,0-4.52,2.25h0l-36.9,47.93L295,204.66l-55.28-25A5.65,5.65,0,0,0,237.31,179.1Z" transform="translate(-170.92 -177.5)"/><path class="cls-3" d="M201.11,216.24H304.73a0,0,0,0,1,0,0v49.64A10.71,10.71,0,0,1,294,276.59H211.82a10.71,10.71,0,0,1-10.71-10.71V216.24A0,0,0,0,1,201.11,216.24Z" transform="translate(-222.9 -109.21) rotate(-13.96)"/><path class="cls-4" d="M289.73,207.61l-34.84,35.6-52.67-11.85-6-27.93a5.63,5.63,0,0,1,4.13-6.74l76.17-18.94a5.64,5.64,0,0,1,6.83,4.11Z" transform="translate(-170.92 -177.5)"/><path class="cls-2" d="M250.11,240.41l-41.37,43.23h0a4.61,4.61,0,0,0,5.59,3.36L306,264.19a4.6,4.6,0,0,0,3.36-5.58l-.08-.35-54.1-19.07A4.82,4.82,0,0,0,250.11,240.41Z" transform="translate(-170.92 -177.5)"/><rect class="cls-2" x="207.02" y="204.48" width="30.71" height="3.14" transform="translate(-214.08 -117.74) rotate(-13.97)"/><rect class="cls-2" x="208.43" y="207.67" width="68.13" height="3.54" transform="translate(-214.3 -112.78) rotate(-13.97)"/><rect class="cls-2" x="210.52" y="216.07" width="68.13" height="3.54" transform="translate(-216.27 -112.03) rotate(-13.97)"/><polygon class="cls-2" points="107.69 41.52 105.62 43.59 50.11 58.1 42.86 56.4 42.59 55.62 108.49 39.23 108.78 40.37 107.69 41.52"/><polygon class="cls-2" points="93.49 55.98 68.48 62.2 60.84 60.45 98.21 51.16 93.49 55.98"/><path class="cls-5" d="M248.6,242l-.09.11-.3.33-1.15,1.23-4.27,4.51c-3.61,3.8-8.59,9.05-14.14,14.81S218,273.91,214.31,277.61c-1.86,1.85-3.37,3.35-4.42,4.37-.52.5-.92.9-1.21,1.17l-.32.31-.11.09.1-.11.3-.32,1.18-1.2,4.37-4.42c3.68-3.72,8.74-8.91,14.29-14.67l14.19-14.76L247,243.6c.5-.52.9-.92,1.18-1.2l.31-.31C248.56,242,248.6,242,248.6,242Z" transform="translate(-170.92 -177.5)"/><path class="cls-5" d="M309.32,258.26c0,.06-11.56-3.95-25.77-8.94s-25.71-9.09-25.69-9.15,11.55,4,25.77,9S309.34,258.21,309.32,258.26Z" transform="translate(-170.92 -177.5)"/><path class="cls-5" d="M291.39,205.9l-.08.1-.24.27-.92,1-3.46,3.75c-2.93,3.16-7,7.49-11.58,12.21s-8.77,9-11.83,12l-3.65,3.57-1,1-.26.24c-.06.06-.09.08-.1.08l.08-.09.25-.27,1-1,3.6-3.62c3-3.06,7.21-7.29,11.79-12s8.66-9,11.62-12.17c1.47-1.56,2.67-2.82,3.5-3.71l1-1,.26-.26Z" transform="translate(-170.92 -177.5)"/><path class="cls-5" d="M248.6,242l-.14,0-.4-.09-1.55-.38c-1.34-.34-3.29-.81-5.69-1.37C236,239,229.34,237.51,222,235.91s-14.05-3.09-18.85-4.27c-2.4-.58-4.34-1.07-5.68-1.44l-1.53-.41-.4-.12-.14,0s0,0,.14,0l.41.1,1.54.37c1.34.34,3.29.81,5.7,1.38,4.81,1.14,11.48,2.6,18.86,4.2s14,3.09,18.84,4.27c2.41.58,4.35,1.08,5.68,1.44l1.54.42.4.11C248.56,242,248.6,242,248.6,242Z" transform="translate(-170.92 -177.5)"/><path class="cls-2" d="M289.73,207.61s0-.12-.11-.37l-.28-1.11c-.25-1-.62-2.42-1.08-4.27-.94-3.72-2.28-9.08-3.95-15.72-.2-.83-.42-1.68-.63-2.54l-.33-1.32c-.06-.22-.11-.45-.18-.66a4.93,4.93,0,0,0-.24-.64,5.46,5.46,0,0,0-1.73-2.18,5.53,5.53,0,0,0-2.67-1.08,5.72,5.72,0,0,0-1.49,0c-.5.09-1,.22-1.5.35l-3.07.76-6.42,1.6-28.55,7.11-28.56,7.09-6.42,1.59-1.55.39a7.94,7.94,0,0,0-1.48.45,5.35,5.35,0,0,0-1.3.78,5.55,5.55,0,0,0-1,1.09,6,6,0,0,0-.69,1.3,5.66,5.66,0,0,0-.31,1.4,8.81,8.81,0,0,0,.33,2.8c.4,1.82.77,3.57,1.13,5.25,1.43,6.68,2.58,12.09,3.38,15.84.4,1.87.7,3.32.91,4.31.1.49.18.86.23,1.12s.07.39.07.39l-.09-.38-.25-1.12-.95-4.3c-.82-3.74-2-9.15-3.45-15.83q-.54-2.5-1.14-5.25a8.9,8.9,0,0,1-.35-2.84,6.17,6.17,0,0,1,.33-1.46,5.88,5.88,0,0,1,.71-1.33,5.11,5.11,0,0,1,1.05-1.13,5.64,5.64,0,0,1,1.33-.81,9.2,9.2,0,0,1,1.52-.47l1.55-.38,6.41-1.6,28.56-7.11L266,180.26l6.41-1.59,3.07-.76c.51-.12,1-.26,1.52-.35a6.11,6.11,0,0,1,1.54,0,5.76,5.76,0,0,1,2.76,1.12,5.69,5.69,0,0,1,1.77,2.25,4.06,4.06,0,0,1,.25.66c.07.23.12.45.18.67l.32,1.32q.33,1.31.63,2.55l3.88,15.73,1,4.28c.12.48.21.86.27,1.11S289.73,207.61,289.73,207.61Z" transform="translate(-170.92 -177.5)"/></g><g id="Floor"><line class="cls-6" y1="152.85" x2="158.13" y2="152.85"/><path class="cls-6" d="M329.05,330.35c0,.06-35.4.11-79.06.11s-79.07,0-79.07-.11,35.4-.1,79.07-.1S329.05,330.3,329.05,330.35Z" transform="translate(-170.92 -177.5)"/></g><g id="Mail_Sent" data-name="Mail Sent"><polygon class="cls-7" points="75.04 9.46 71.17 12.4 71.36 18.03 67.82 15.22 65.86 16.89 58.42 7.71 75.04 9.46"/><path class="cls-7" d="M240.64,191.1c0,.17,1.64,4.43,1.64,4.43l-3.54-2.81Z" transform="translate(-170.92 -177.5)"/><g class="cls-8"><path d="M240.64,191.1c0,.17,1.64,4.43,1.64,4.43l-3.54-2.81Z" transform="translate(-170.92 -177.5)"/></g><polygon class="cls-7" points="58.42 7.71 69.72 13.6 71.36 18.03 71.17 12.4 58.42 7.71"/><polygon class="cls-9" points="58.42 7.71 69.72 13.6 71.36 18.03 71.17 12.4 58.42 7.71"/><path class="cls-6" d="M260.66,261.16a2.87,2.87,0,0,1-1-.14,3,3,0,0,1-1-.35,2.42,2.42,0,0,1,1,.14A2.52,2.52,0,0,1,260.66,261.16Z" transform="translate(-170.92 -177.5)"/><path class="cls-6" d="M263.86,261.94c0,.06-.29,0-.62,0s-.59-.2-.58-.25.3,0,.63,0S263.88,261.88,263.86,261.94Z" transform="translate(-170.92 -177.5)"/><path class="cls-6" d="M250.65,194.8a3.5,3.5,0,0,1-1-.16,2.91,2.91,0,0,1-1-.31,4,4,0,0,1,2,.47Z" transform="translate(-170.92 -177.5)"/><path class="cls-6" d="M254.44,196.42a3.11,3.11,0,0,1-1-.39,3.31,3.31,0,0,1-.89-.53,2.25,2.25,0,0,1,1,.33A2.32,2.32,0,0,1,254.44,196.42Z" transform="translate(-170.92 -177.5)"/><path class="cls-6" d="M257.72,198.91a3.17,3.17,0,0,1-.83-.62c-.43-.37-.77-.68-.73-.73s.43.19.87.57S257.76,198.87,257.72,198.91Z" transform="translate(-170.92 -177.5)"/><path class="cls-6" d="M260.22,202.18c-.05,0-.31-.35-.62-.82a3.26,3.26,0,0,1-.51-.9s.37.3.69.78S260.28,202.15,260.22,202.18Z" transform="translate(-170.92 -177.5)"/><path class="cls-6" d="M261.65,206a3,3,0,0,1-.35-1,3.62,3.62,0,0,1-.22-1c.06,0,.27.39.43.95A2.43,2.43,0,0,1,261.65,206Z" transform="translate(-170.92 -177.5)"/><path class="cls-6" d="M261.86,210.15a3.12,3.12,0,0,1-.05-1,3.16,3.16,0,0,1,.1-1,2.22,2.22,0,0,1,.12,1A2.26,2.26,0,0,1,261.86,210.15Z" transform="translate(-170.92 -177.5)"/><path class="cls-6" d="M260.79,214.12a3.09,3.09,0,0,1,.29-1,3.2,3.2,0,0,1,.41-.95,2.2,2.2,0,0,1-.21,1A2,2,0,0,1,260.79,214.12Z" transform="translate(-170.92 -177.5)"/><path class="cls-6" d="M258.4,217.46s.26-.39.63-.81.67-.78.72-.74a2,2,0,0,1-.55.88C258.82,217.23,258.44,217.51,258.4,217.46Z" transform="translate(-170.92 -177.5)"/><path class="cls-6" d="M254.94,219.69a3.22,3.22,0,0,1,.89-.53,3.47,3.47,0,0,1,.94-.43c0,.05-.33.35-.84.62A2.28,2.28,0,0,1,254.94,219.69Z" transform="translate(-170.92 -177.5)"/><path class="cls-6" d="M250.93,220.55a3.34,3.34,0,0,1,1-.18,3.12,3.12,0,0,1,1-.06,2.21,2.21,0,0,1-1,.27A2.09,2.09,0,0,1,250.93,220.55Z" transform="translate(-170.92 -177.5)"/><path class="cls-6" d="M246.9,219.79a3.84,3.84,0,0,1,1,.25,3.59,3.59,0,0,1,1,.35,2,2,0,0,1-1-.14A2,2,0,0,1,246.9,219.79Z" transform="translate(-170.92 -177.5)"/><path class="cls-6" d="M244,217c.06,0,.24.4.56.85a5.55,5.55,0,0,1,.59.84s-.43-.23-.77-.72A1.54,1.54,0,0,1,244,217Z" transform="translate(-170.92 -177.5)"/><path class="cls-6" d="M245.78,213.75c0,.06-.43.2-.87.52s-.69.71-.75.68.12-.5.62-.86A1.43,1.43,0,0,1,245.78,213.75Z" transform="translate(-170.92 -177.5)"/><path class="cls-6" d="M249.32,215.22c-.06,0-.31-.36-.72-.73s-.82-.56-.79-.62.5,0,.94.46A1.57,1.57,0,0,1,249.32,215.22Z" transform="translate(-170.92 -177.5)"/><path class="cls-6" d="M249.45,219.22a4.88,4.88,0,0,1,.19-1,5.64,5.64,0,0,1,.19-1,1.72,1.72,0,0,1,0,1.05A1.85,1.85,0,0,1,249.45,219.22Z" transform="translate(-170.92 -177.5)"/><path class="cls-6" d="M246.77,222.29s.32-.35.75-.71.76-.68.81-.64-.23.42-.67.8A2.06,2.06,0,0,1,246.77,222.29Z" transform="translate(-170.92 -177.5)"/><path class="cls-6" d="M243.11,224.19c0-.06.37-.29.89-.53a2.4,2.4,0,0,1,1-.33,2.54,2.54,0,0,1-.89.53A2.83,2.83,0,0,1,243.11,224.19Z" transform="translate(-170.92 -177.5)"/><path class="cls-6" d="M239.43,226.06c0-.05.34-.33.83-.62a2.48,2.48,0,0,1,1-.4c0,.06-.37.3-.86.58A2.69,2.69,0,0,1,239.43,226.06Z" transform="translate(-170.92 -177.5)"/><path class="cls-6" d="M236.31,228.75a2.3,2.3,0,0,1,.64-.82c.41-.4.79-.67.83-.62s-.28.38-.68.77S236.36,228.79,236.31,228.75Z" transform="translate(-170.92 -177.5)"/><path class="cls-6" d="M234,232.13c-.06,0,.12-.46.42-.95s.61-.84.66-.81a3,3,0,0,1-.48.92C234.26,231.77,234,232.16,234,232.13Z" transform="translate(-170.92 -177.5)"/><path class="cls-6" d="M232.44,236a2.2,2.2,0,0,1,.19-1,2.37,2.37,0,0,1,.45-.94,2.82,2.82,0,0,1-.25,1A2.67,2.67,0,0,1,232.44,236Z" transform="translate(-170.92 -177.5)"/><path class="cls-6" d="M231.9,240.05a2.23,2.23,0,0,1-.07-1,2.41,2.41,0,0,1,.21-1,2.85,2.85,0,0,1,0,1A3,3,0,0,1,231.9,240.05Z" transform="translate(-170.92 -177.5)"/><path class="cls-6" d="M232.44,244.13a2.43,2.43,0,0,1-.32-1,2,2,0,0,1-.09-1,3.49,3.49,0,0,1,.3,1A2.5,2.5,0,0,1,232.44,244.13Z" transform="translate(-170.92 -177.5)"/><path class="cls-6" d="M234,247.93a2.32,2.32,0,0,1-.59-.86,2.25,2.25,0,0,1-.33-1,3.34,3.34,0,0,1,.52.89A3,3,0,0,1,234,247.93Z" transform="translate(-170.92 -177.5)"/><path class="cls-6" d="M236.51,251.23s-.4-.26-.77-.7a2.31,2.31,0,0,1-.57-.88c.05,0,.36.31.73.74A3,3,0,0,1,236.51,251.23Z" transform="translate(-170.92 -177.5)"/><path class="cls-6" d="M239.69,253.85a2.23,2.23,0,0,1-.92-.49c-.46-.34-.79-.68-.75-.73a3.33,3.33,0,0,1,.88.55C239.36,253.52,239.72,253.8,239.69,253.85Z" transform="translate(-170.92 -177.5)"/><path class="cls-6" d="M243.4,255.63a2.25,2.25,0,0,1-1-.25,2.29,2.29,0,0,1-.9-.52,3,3,0,0,1,1,.32A2.88,2.88,0,0,1,243.4,255.63Z" transform="translate(-170.92 -177.5)"/><path class="cls-6" d="M245.48,256.16s0,.1-.06.09,0-.05,0-.11,0-.1.06-.1S245.49,256.1,245.48,256.16Z" transform="translate(-170.92 -177.5)"/><rect class="cls-7" x="237.64" y="245.14" width="4.5" height="2.8" transform="matrix(0.95, 0.31, -0.31, 0.95, -82, -240.05)"/><g class="cls-8"><rect x="237.64" y="245.14" width="4.5" height="2.8" transform="matrix(0.95, 0.31, -0.31, 0.95, -82, -240.05)"/></g><path class="cls-7" d="M242.47,245.91a16,16,0,0,1-2.48,1l-.07,0,0-.06-.07-.1a19.44,19.44,0,0,1-1.61-2.29,16.89,16.89,0,0,1,1.78,2.16l.07.1-.12,0A17.91,17.91,0,0,1,242.47,245.91Z" transform="translate(-170.92 -177.5)"/><g class="cls-10"><path d="M242.47,245.91a16,16,0,0,1-2.48,1l-.07,0,0-.06-.07-.1a19.44,19.44,0,0,1-1.61-2.29,16.89,16.89,0,0,1,1.78,2.16l.07.1-.12,0A17.91,17.91,0,0,1,242.47,245.91Z" transform="translate(-170.92 -177.5)"/></g><path class="cls-7" d="M239.43,246.14a3.54,3.54,0,0,1-1,.61,3.48,3.48,0,0,1-1.1.42,6.61,6.61,0,0,1,2.11-1Z" transform="translate(-170.92 -177.5)"/><g class="cls-10"><path d="M239.43,246.14a3.54,3.54,0,0,1-1,.61,3.48,3.48,0,0,1-1.1.42,6.61,6.61,0,0,1,2.11-1Z" transform="translate(-170.92 -177.5)"/></g><path class="cls-7" d="M241.68,248.6a3,3,0,0,1-.55-1c-.26-.59-.43-1.08-.35-1.08a3.3,3.3,0,0,1,.55,1A3.41,3.41,0,0,1,241.68,248.6Z" transform="translate(-170.92 -177.5)"/><g class="cls-10"><path d="M241.68,248.6a3,3,0,0,1-.55-1c-.26-.59-.43-1.08-.35-1.08a3.3,3.3,0,0,1,.55,1A3.41,3.41,0,0,1,241.68,248.6Z" transform="translate(-170.92 -177.5)"/></g><rect class="cls-7" x="247.5" y="254.36" width="11.59" height="7.21" transform="translate(-77.77 -243.67) rotate(18.18)"/><path class="cls-7" d="M259.93,256.34a2.11,2.11,0,0,1-.49.23l-1.37.53c-1.17.45-2.78,1-4.58,1.71l-.08,0,0-.07-.18-.24c-1.2-1.58-2.28-3-3.05-4.07l-.9-1.26a2.79,2.79,0,0,1-.31-.47,3,3,0,0,1,.37.42l1,1.21c.8,1,1.9,2.46,3.1,4l.19.24-.13,0c1.81-.66,3.43-1.24,4.6-1.65l1.4-.47A2.86,2.86,0,0,1,259.93,256.34Z" transform="translate(-170.92 -177.5)"/><g class="cls-11"><path d="M259.93,256.34a2.11,2.11,0,0,1-.49.23l-1.37.53c-1.17.45-2.78,1-4.58,1.71l-.08,0,0-.07-.18-.24c-1.2-1.58-2.28-3-3.05-4.07l-.9-1.26a2.79,2.79,0,0,1-.31-.47,3,3,0,0,1,.37.42l1,1.21c.8,1,1.9,2.46,3.1,4l.19.24-.13,0c1.81-.66,3.43-1.24,4.6-1.65l1.4-.47A2.86,2.86,0,0,1,259.93,256.34Z" transform="translate(-170.92 -177.5)"/></g><path class="cls-7" d="M252.1,256.93a22.36,22.36,0,0,1-2.67,1.42,23,23,0,0,1-2.76,1.23,20.66,20.66,0,0,1,2.67-1.43A19.65,19.65,0,0,1,252.1,256.93Z" transform="translate(-170.92 -177.5)"/><g class="cls-11"><path d="M252.1,256.93a22.36,22.36,0,0,1-2.67,1.42,23,23,0,0,1-2.76,1.23,20.66,20.66,0,0,1,2.67-1.43A19.65,19.65,0,0,1,252.1,256.93Z" transform="translate(-170.92 -177.5)"/></g><path class="cls-7" d="M257.88,263.26a19.05,19.05,0,0,1-1.26-2.62,20.7,20.7,0,0,1-1.06-2.7,18.36,18.36,0,0,1,1.26,2.62A20.1,20.1,0,0,1,257.88,263.26Z" transform="translate(-170.92 -177.5)"/><g class="cls-11"><path d="M257.88,263.26a19.05,19.05,0,0,1-1.26-2.62,20.7,20.7,0,0,1-1.06-2.7,18.36,18.36,0,0,1,1.26,2.62A20.1,20.1,0,0,1,257.88,263.26Z" transform="translate(-170.92 -177.5)"/></g><path class="cls-6" d="M249.52,254.41a1.72,1.72,0,1,1,.37-2.4A1.71,1.71,0,0,1,249.52,254.41Z" transform="translate(-170.92 -177.5)"/><path class="cls-4" d="M249.59,252.71a7.57,7.57,0,0,1-1.15.72l-.28.15,0,0,0-.05a6.35,6.35,0,0,1-.47-.93,4.58,4.58,0,0,1,.57.87l-.07,0,.27-.16A8.45,8.45,0,0,1,249.59,252.71Z" transform="translate(-170.92 -177.5)"/><rect class="cls-7" x="246.35" y="246.07" width="6.07" height="3.78" transform="translate(-81.08 -242.94) rotate(18.18)"/><g class="cls-11"><rect x="246.35" y="246.07" width="6.07" height="3.78" transform="translate(-81.08 -242.94) rotate(18.18)"/></g><path class="cls-7" d="M252.86,247.11l-.26.12-.72.28c-.61.23-1.45.55-2.4.89l0,0,0,0-.1-.12c-.63-.83-1.19-1.59-1.6-2.14l-.47-.65a1.48,1.48,0,0,1-.16-.25s.08.07.2.22l.5.63,1.62,2.12.1.13-.07,0c.95-.35,1.8-.65,2.41-.86l.73-.25A1.07,1.07,0,0,1,252.86,247.11Z" transform="translate(-170.92 -177.5)"/><g class="cls-11"><path class="cls-7" d="M252.86,247.11l-.26.12-.72.28c-.61.23-1.45.55-2.4.89l0,0,0,0-.1-.12c-.63-.83-1.19-1.59-1.6-2.14l-.47-.65a1.48,1.48,0,0,1-.16-.25s.08.07.2.22l.5.63,1.62,2.12.1.13-.07,0c.95-.35,1.8-.65,2.41-.86l.73-.25A1.07,1.07,0,0,1,252.86,247.11Z" transform="translate(-170.92 -177.5)"/></g><path class="cls-7" d="M248.76,247.42a13.67,13.67,0,0,1-1.4.74,11.53,11.53,0,0,1-1.45.64,12.47,12.47,0,0,1,1.4-.74A10.26,10.26,0,0,1,248.76,247.42Z" transform="translate(-170.92 -177.5)"/><g class="cls-11"><path class="cls-7" d="M248.76,247.42a13.67,13.67,0,0,1-1.4.74,11.53,11.53,0,0,1-1.45.64,12.47,12.47,0,0,1,1.4-.74A10.26,10.26,0,0,1,248.76,247.42Z" transform="translate(-170.92 -177.5)"/></g><path class="cls-7" d="M251.78,250.73a9.39,9.39,0,0,1-.65-1.37,10,10,0,0,1-.56-1.41,10,10,0,0,1,.66,1.37A10.68,10.68,0,0,1,251.78,250.73Z" transform="translate(-170.92 -177.5)"/><g class="cls-11"><path class="cls-7" d="M251.78,250.73a9.39,9.39,0,0,1-.65-1.37,10,10,0,0,1-.56-1.41,10,10,0,0,1,.66,1.37A10.68,10.68,0,0,1,251.78,250.73Z" transform="translate(-170.92 -177.5)"/></g><path class="cls-6" d="M206.53,202.19a8.17,8.17,0,1,1-5.91-9.94A8.17,8.17,0,0,1,206.53,202.19Z" transform="translate(-170.92 -177.5)"/><path class="cls-4" d="M201.64,195.75a39,39,0,0,1-2.07,6.11l-.56,1.39-.09.25-.25-.09a25.82,25.82,0,0,1-4.54-2,27.31,27.31,0,0,1,4.73,1.48l-.35.16c.18-.45.35-.92.54-1.4A38,38,0,0,1,201.64,195.75Z" transform="translate(-170.92 -177.5)"/></g><g id="Plant"><path class="cls-7" d="M307,317.86a7.57,7.57,0,0,1,4.7-.57,3.9,3.9,0,0,1,2.32,1,1.67,1.67,0,0,1,0,2.32,2.17,2.17,0,0,1-1.46.37c-1.24,0-2.62-.23-3.62.52-.56.43-.94,1.14-1.62,1.34a1.59,1.59,0,0,1-1.76-.78,2.76,2.76,0,0,1-.2-2A3.06,3.06,0,0,1,307,317.86Z" transform="translate(-170.92 -177.5)"/><g class="cls-11"><path class="cls-4" d="M307,317.86a7.57,7.57,0,0,1,4.7-.57,3.9,3.9,0,0,1,2.32,1,1.67,1.67,0,0,1,0,2.32,2.17,2.17,0,0,1-1.46.37c-1.24,0-2.62-.23-3.62.52-.56.43-.94,1.14-1.62,1.34a1.59,1.59,0,0,1-1.76-.78,2.76,2.76,0,0,1-.2-2A3.06,3.06,0,0,1,307,317.86Z" transform="translate(-170.92 -177.5)"/></g><path class="cls-7" d="M303.73,311.53c.87,1.25,2.57.84,3.36.08a6.41,6.41,0,0,0,1.43-2.92c.69-2.41,1.39-4.94.87-7.39a4.08,4.08,0,0,0-.94-2,2.14,2.14,0,0,0-2-.68,3.17,3.17,0,0,0-1.78,1.86A17.66,17.66,0,0,0,302.9,308a6.09,6.09,0,0,0,.83,3.49" transform="translate(-170.92 -177.5)"/><path class="cls-7" d="M301.33,313.33a4.53,4.53,0,0,0,.7-4.19,8,8,0,0,0-2.47-3.59,13.28,13.28,0,0,0-4.44-2.61,4.57,4.57,0,0,0-2-.34,2.1,2.1,0,0,0-1.68,1,3.13,3.13,0,0,0,.47,2.85,34.26,34.26,0,0,0,2.91,4.44,8,8,0,0,0,3.21,2.74c1.33.51,2.71.45,3.41-.47" transform="translate(-170.92 -177.5)"/><g class="cls-10"><path d="M301.33,313.33a4.53,4.53,0,0,0,.7-4.19,8,8,0,0,0-2.47-3.59,13.28,13.28,0,0,0-4.44-2.61,4.57,4.57,0,0,0-2-.34,2.1,2.1,0,0,0-1.68,1,3.13,3.13,0,0,0,.47,2.85,34.26,34.26,0,0,0,2.91,4.44,8,8,0,0,0,3.21,2.74c1.33.51,2.71.45,3.41-.47" transform="translate(-170.92 -177.5)"/></g><path class="cls-6" d="M303.67,330.37a2.66,2.66,0,0,0,.08-.56c0-.42.09-.94.15-1.55a22,22,0,0,1,.35-2.27,17.72,17.72,0,0,1,.82-2.69,10.19,10.19,0,0,1,1.37-2.42,5.13,5.13,0,0,1,1.73-1.44,4.67,4.67,0,0,1,1.46-.45,2.4,2.4,0,0,0,.57-.09h-.58a4.22,4.22,0,0,0-1.52.39,5.09,5.09,0,0,0-1.82,1.45,9.46,9.46,0,0,0-1.42,2.48,16,16,0,0,0-.82,2.72,19.67,19.67,0,0,0-.31,2.3c0,.66-.06,1.19-.07,1.56A2.28,2.28,0,0,0,303.67,330.37Z" transform="translate(-170.92 -177.5)"/><path class="cls-6" d="M303.78,329.18s0-.09,0-.26v-.75c0-.66,0-1.6,0-2.77.06-2.34.26-5.56.65-9.1s.91-6.74,1.38-9c.11-.57.23-1.08.33-1.54s.19-.84.27-1.16.13-.54.18-.73a2.46,2.46,0,0,0,.05-.26,1.46,1.46,0,0,0-.1.25l-.21.72c-.1.31-.2.7-.31,1.15s-.25,1-.37,1.54a86.34,86.34,0,0,0-1.45,9,91.16,91.16,0,0,0-.58,9.13c0,1.17,0,2.11,0,2.77l0,.75A1.11,1.11,0,0,0,303.78,329.18Z" transform="translate(-170.92 -177.5)"/><path class="cls-6" d="M303.79,323a4,4,0,0,0,0-.79c0-.51-.1-1.24-.24-2.13a31.65,31.65,0,0,0-.7-3.11,27.14,27.14,0,0,0-1.3-3.67,19.52,19.52,0,0,0-3.81-5.94,9.38,9.38,0,0,0-.9-.83l-.38-.33-.35-.24a6.4,6.4,0,0,0-.66-.42,24,24,0,0,1,2.17,1.94,20.49,20.49,0,0,1,3.72,5.91,31.77,31.77,0,0,1,1.31,3.64,30.87,30.87,0,0,1,.73,3.08c.16.88.26,1.61.32,2.11A5.77,5.77,0,0,0,303.79,323Z" transform="translate(-170.92 -177.5)"/></g><g id="Device"><polygon class="cls-12" points="73.34 93.84 89.72 93.84 96.22 75.71 95.31 75.71 88.87 92.96 73.34 93.05 73.34 93.84"/></g><g id="Desk"><polygon class="cls-6" points="66.09 96.13 66.7 152.93 68.37 152.93 67.69 95.71 66.09 96.13"/><path class="cls-6" d="M272.1,273.08c-.23,1.09,1.5,57.48,1.5,57.48h1.57l-1.27-57.48Z" transform="translate(-170.92 -177.5)"/><polygon class="cls-6" points="120.33 93.84 50.65 93.84 50.65 96.72 56.4 96.72 52.66 152.74 54.29 152.83 58.04 96.72 114.47 96.72 117.2 152.85 118.85 152.85 116.11 96.72 120.33 96.72 120.33 93.84"/></g><g id="Character"><path class="cls-7" d="M251.93,328.29l0-4.31-8.07-.08-.09,6.3.5,0c2.22.15,11.32.59,12.81.15C258.77,329.9,251.93,328.29,251.93,328.29Z" transform="translate(-170.92 -177.5)"/><path class="cls-13" d="M246.71,330.17a2.71,2.71,0,0,0-1-1.73,2.67,2.67,0,0,0-1.88-.61l0,2.26Z" transform="translate(-170.92 -177.5)"/><path class="cls-13" d="M255.27,329.2s2.39.72,2.09,1.11-9.51.29-13.57-.11V330l10.74.21S254.8,329.21,255.27,329.2Z" transform="translate(-170.92 -177.5)"/><path class="cls-6" d="M243.68,330h.14l.39,0,1.47.08c1.24.06,2.95.11,4.84.14s3.6,0,4.84,0l1.47,0,.4,0,.13,0h-2c-1.24,0-3,0-4.84,0s-3.6-.07-4.84-.11l-1.46-.05h-.54Z" transform="translate(-170.92 -177.5)"/><path class="cls-6" d="M254.54,330.35a3.8,3.8,0,0,1,.28-.69,3.6,3.6,0,0,1,.51-.56,1.14,1.14,0,0,0-.59.51A1.1,1.1,0,0,0,254.54,330.35Z" transform="translate(-170.92 -177.5)"/><path class="cls-6" d="M252.17,329.12s.14-.12.26-.31.2-.34.18-.36a1,1,0,0,0-.26.31A1,1,0,0,0,252.17,329.12Z" transform="translate(-170.92 -177.5)"/><path class="cls-6" d="M251.53,328.77s.14-.06.28-.19.24-.24.22-.26-.14.07-.28.19S251.51,328.75,251.53,328.77Z" transform="translate(-170.92 -177.5)"/><path class="cls-6" d="M251.12,328a.83.83,0,0,0,.42.06c.23,0,.42,0,.42,0s-.18,0-.42-.06A1.2,1.2,0,0,0,251.12,328Z" transform="translate(-170.92 -177.5)"/><path class="cls-6" d="M251,327.47a1,1,0,0,0,.47.14.93.93,0,0,0,.49-.06,2.15,2.15,0,0,0-.48,0A2.25,2.25,0,0,0,251,327.47Z" transform="translate(-170.92 -177.5)"/><path class="cls-6" d="M252.46,328.42a1.36,1.36,0,0,0,.51,0,2.74,2.74,0,0,0,.56-.11,1.58,1.58,0,0,0,.31-.13A.24.24,0,0,0,254,328a.19.19,0,0,0-.07-.21,1,1,0,0,0-1.18.27.89.89,0,0,0-.17.34.72.72,0,0,0,0,.14,1.74,1.74,0,0,1,.24-.44,1,1,0,0,1,.45-.28.84.84,0,0,1,.62.05c.08.06,0,.16-.05.21a1.26,1.26,0,0,1-.29.12,2.62,2.62,0,0,1-.54.13C252.65,328.41,252.46,328.4,252.46,328.42Z" transform="translate(-170.92 -177.5)"/><path class="cls-6" d="M252.59,328.45a.48.48,0,0,0,.06-.36.86.86,0,0,0-.13-.38.51.51,0,0,0-.43-.27.2.2,0,0,0-.16.24.42.42,0,0,0,.08.23,1.77,1.77,0,0,0,.24.32.68.68,0,0,0,.3.21s-.11-.1-.25-.26a2.08,2.08,0,0,1-.21-.31c-.07-.11-.12-.31,0-.33s.26.12.34.22a.85.85,0,0,1,.15.34A3.34,3.34,0,0,1,252.59,328.45Z" transform="translate(-170.92 -177.5)"/><path class="cls-6" d="M243.87,327.81s.23,0,.59,0a2.53,2.53,0,0,1,2.1,1.7,3.78,3.78,0,0,1,.14.58s0-.06,0-.16a2.63,2.63,0,0,0-.09-.44,2.43,2.43,0,0,0-2.15-1.75,1.51,1.51,0,0,0-.44,0C243.92,327.79,243.87,327.8,243.87,327.81Z" transform="translate(-170.92 -177.5)"/><path class="cls-6" d="M244.74,324.46a12.78,12.78,0,0,0-.09,1.66,13.77,13.77,0,0,0,0,1.66,12.78,12.78,0,0,0,.09-1.66A13.77,13.77,0,0,0,244.74,324.46Z" transform="translate(-170.92 -177.5)"/><path class="cls-6" d="M247.74,329.39a4.14,4.14,0,0,0,1.17.13,4.21,4.21,0,0,0,1.19-.08s-.53,0-1.18,0S247.74,329.36,247.74,329.39Z" transform="translate(-170.92 -177.5)"/><path class="cls-6" d="M246.16,329.37s0,.12.09.24.08.23.11.22,0-.12,0-.26S246.18,329.35,246.16,329.37Z" transform="translate(-170.92 -177.5)"/><path class="cls-6" d="M245.57,328.63s0,.1.11.18.17.14.19.13,0-.11-.12-.19S245.59,328.61,245.57,328.63Z" transform="translate(-170.92 -177.5)"/><path class="cls-6" d="M244.72,328.28s.11,0,.23.07.2.11.23.09-.05-.13-.2-.18S244.71,328.25,244.72,328.28Z" transform="translate(-170.92 -177.5)"/><path class="cls-6" d="M244.12,328.11s0,.07.1.09.13,0,.14,0,0-.07-.11-.1S244.13,328.09,244.12,328.11Z" transform="translate(-170.92 -177.5)"/><path class="cls-7" d="M267.81,323.94,266.05,320l-7.38,3.24,2.51,5.78.47-.17c2.08-.78,10.56-4.12,11.74-5.13S267.81,323.94,267.81,323.94Z" transform="translate(-170.92 -177.5)"/><path class="cls-13" d="M263.83,327.8a2.82,2.82,0,0,0-1.64-1.16,2.72,2.72,0,0,0-2,.22l.91,2.06Z" transform="translate(-170.92 -177.5)"/><path class="cls-13" d="M271.23,323.4s2.47-.34,2.36.15S265,327.73,261.18,329l-.06-.17,9.87-4.23S270.8,323.6,271.23,323.4Z" transform="translate(-170.92 -177.5)"/><path class="cls-6" d="M261,328.91l.13,0,.38-.14,1.36-.53c1.16-.46,2.74-1.11,4.47-1.87s3.29-1.48,4.4-2l1.32-.65.36-.18.12-.07-.13.05-.37.17-1.33.62c-1.12.52-2.68,1.23-4.41,2s-3.31,1.42-4.45,1.89l-1.36.56-.37.16Z" transform="translate(-170.92 -177.5)"/><path class="cls-6" d="M271,324.75a3.45,3.45,0,0,1,0-.75,3.52,3.52,0,0,1,.23-.72,1.3,1.3,0,0,0-.2,1.47Z" transform="translate(-170.92 -177.5)"/><path class="cls-6" d="M268.37,324.6s.08-.17.11-.39a.72.72,0,0,0,0-.4,1,1,0,0,0-.1.39A.92.92,0,0,0,268.37,324.6Z" transform="translate(-170.92 -177.5)"/><path class="cls-6" d="M267.64,324.54s.1-.11.18-.28a.69.69,0,0,0,.1-.33s-.11.12-.19.29S267.61,324.53,267.64,324.54Z" transform="translate(-170.92 -177.5)"/><path class="cls-6" d="M267,324s.2,0,.41-.12.38-.18.37-.21a1.1,1.1,0,0,0-.41.12A1.08,1.08,0,0,0,267,324Z" transform="translate(-170.92 -177.5)"/><path class="cls-6" d="M266.61,323.58a.85.85,0,0,0,.48-.06c.26-.1.44-.24.42-.26a4.59,4.59,0,0,0-.45.16A2.72,2.72,0,0,0,266.61,323.58Z" transform="translate(-170.92 -177.5)"/><path class="cls-6" d="M268.34,323.84a1.29,1.29,0,0,0,.48-.21,3.37,3.37,0,0,0,.45-.33,1.15,1.15,0,0,0,.24-.25.24.24,0,0,0,.05-.19.19.19,0,0,0-.15-.16,1,1,0,0,0-1,.72.87.87,0,0,0,0,.39c0,.09,0,.13,0,.13a1.46,1.46,0,0,1,0-.5.89.89,0,0,1,.29-.44.82.82,0,0,1,.58-.21c.1,0,.11.13.05.21a1.2,1.2,0,0,1-.22.23,3.91,3.91,0,0,1-.43.35C268.52,323.75,268.34,323.83,268.34,323.84Z" transform="translate(-170.92 -177.5)"/><path class="cls-6" d="M268.48,323.81a.63.63,0,0,0-.09-.35.8.8,0,0,0-.29-.29.51.51,0,0,0-.5-.07.22.22,0,0,0-.05.29.72.72,0,0,0,.18.17,1.35,1.35,0,0,0,.35.19c.21.08.35.09.35.07s-.13,0-.33-.13a2,2,0,0,1-.32-.2c-.11-.07-.23-.23-.12-.31s.28,0,.4.07a.82.82,0,0,1,.27.25C268.45,323.67,268.46,323.82,268.48,323.81Z" transform="translate(-170.92 -177.5)"/><path class="cls-6" d="M260.26,326.82s.21-.11.56-.22a2.53,2.53,0,0,1,2.61.7c.25.26.35.47.37.46a1,1,0,0,0-.07-.15,2.17,2.17,0,0,0-.25-.36,2.46,2.46,0,0,0-1.23-.77,2.5,2.5,0,0,0-1.46.06,2.66,2.66,0,0,0-.4.18Z" transform="translate(-170.92 -177.5)"/><path class="cls-6" d="M259.68,323.41a14.91,14.91,0,0,0,.6,1.55c.36.84.67,1.52.69,1.51a11.35,11.35,0,0,0-.6-1.55A14.38,14.38,0,0,0,259.68,323.41Z" transform="translate(-170.92 -177.5)"/><path class="cls-6" d="M264.44,326.67a4.47,4.47,0,0,0,1.13-.36,5,5,0,0,0,1-.56s-.48.21-1.08.47S264.43,326.64,264.44,326.67Z" transform="translate(-170.92 -177.5)"/><path class="cls-6" d="M263,327.3s.09.09.19.18.16.17.19.16,0-.13-.13-.23S263,327.28,263,327.3Z" transform="translate(-170.92 -177.5)"/><path class="cls-6" d="M262.15,326.86s.07.09.18.13.21.06.22,0-.07-.08-.18-.12S262.16,326.84,262.15,326.86Z" transform="translate(-170.92 -177.5)"/><path class="cls-6" d="M261.23,326.9s.12,0,.24,0,.23,0,.24,0-.09-.1-.25-.08S261.22,326.88,261.23,326.9Z" transform="translate(-170.92 -177.5)"/><path class="cls-6" d="M260.61,327s.06.05.14.05.12,0,.12-.06-.06,0-.13,0S260.61,327,260.61,327Z" transform="translate(-170.92 -177.5)"/><path class="cls-7" d="M194.61,295.17l-5.83-43.52a1.84,1.84,0,0,1,2-2.08l14,1.19a2.65,2.65,0,0,1,2.42,2.43l3.42,41.21Z" transform="translate(-170.92 -177.5)"/><g class="cls-11"><path d="M194.61,295.17l-5.83-43.52a1.84,1.84,0,0,1,2-2.08l14,1.19a2.65,2.65,0,0,1,2.42,2.43l3.42,41.21Z" transform="translate(-170.92 -177.5)"/></g><path class="cls-6" d="M208.15,231.21c-.11-1.66-.55-3.28-.79-4.92a9.19,9.19,0,0,1,.37-4.91,7.16,7.16,0,0,1,4.05-3.7,12.28,12.28,0,0,1,5.55-.63,2.55,2.55,0,0,1,1,.22,1,1,0,0,1,.56.79.61.61,0,0,1-.62.63,10,10,0,0,1,2.1.45,1.22,1.22,0,0,1,.68.49,1,1,0,0,1-.09.92,2.83,2.83,0,0,1-.71.67.64.64,0,0,1,.76.51,1.24,1.24,0,0,1-.27,1c-.2.28-.46.51-.66.79-.85,1.12-.68,2.69-.48,4.08" transform="translate(-170.92 -177.5)"/><path class="cls-14" d="M208.31,240.93l7.91-.14c.1-.92.26-4.48.26-4.48a3.94,3.94,0,0,0,3.55-3.58c.24-3.27.14-10.82.14-10.82h0a11.39,11.39,0,0,0-11.53.73l-.51.34Z" transform="translate(-170.92 -177.5)"/><path class="cls-6" d="M219.06,227.58a.47.47,0,0,1,0-.67.49.49,0,0,1,.68,0,.48.48,0,0,1-.69.66Z" transform="translate(-170.92 -177.5)"/><path class="cls-6" d="M219.9,226.79c-.05.05-.36-.21-.81-.24s-.79.18-.84.12,0-.13.19-.23a1.07,1.07,0,0,1,.67-.17,1.15,1.15,0,0,1,.65.27C219.89,226.66,219.93,226.77,219.9,226.79Z" transform="translate(-170.92 -177.5)"/><path class="cls-6" d="M214.68,226.86a.47.47,0,1,1-.54.78.47.47,0,0,1,.54-.78Z" transform="translate(-170.92 -177.5)"/><path class="cls-6" d="M215,226.88c0,.06-.36-.21-.81-.24s-.79.18-.84.12,0-.12.18-.22a1.12,1.12,0,0,1,.68-.17,1.08,1.08,0,0,1,.64.26C215,226.75,215,226.86,215,226.88Z" transform="translate(-170.92 -177.5)"/><path class="cls-6" d="M216.56,230.72a1.93,1.93,0,0,1,.74-.11c.12,0,.21,0,.22-.09a.63.63,0,0,0-.06-.35q-.15-.45-.3-.93a12.49,12.49,0,0,1-.62-2.46,12.87,12.87,0,0,1,.87,2.38c.09.33.19.64.28,1a.79.79,0,0,1,0,.49.34.34,0,0,1-.21.18h-.21A2.38,2.38,0,0,1,216.56,230.72Z" transform="translate(-170.92 -177.5)"/><path class="cls-4" d="M215.06,231.12a8.43,8.43,0,0,0,2.18.78,1.26,1.26,0,0,1-1.51.41A1,1,0,0,1,215.06,231.12Z" transform="translate(-170.92 -177.5)"/><path class="cls-15" d="M216.49,236.27a7.65,7.65,0,0,1-4.2-1.48,4,4,0,0,0,4.15,2.32Z" transform="translate(-170.92 -177.5)"/><path class="cls-6" d="M208,225.46l.17,4.25,1.59-.49c.1-.05,0-5.21,0-5.21s-.21-1.94,1.06-2.4,1.92.48,3.8.8c6.24,1.05,5.81-.86,5.81-.86s.79-.84-.81-1.77-5.61-1.24-7.8-.48c-4.32,1.49-4.57,3-4.57,4.26C207.25,225.39,208,225.46,208,225.46Z" transform="translate(-170.92 -177.5)"/><path class="cls-14" d="M208.76,225.89c-.07,0-2.43-.34-2.2,2.45s3,1.64,3,1.56S208.76,225.89,208.76,225.89Z" transform="translate(-170.92 -177.5)"/><path class="cls-15" d="M208.58,229s0,0-.12.08a.51.51,0,0,1-.36,0,1.19,1.19,0,0,1-.64-1,1.47,1.47,0,0,1,.08-.7.53.53,0,0,1,.33-.4.24.24,0,0,1,.3.11c0,.07,0,.13,0,.13s.06-.05,0-.16a.34.34,0,0,0-.13-.17.35.35,0,0,0-.27,0,.71.71,0,0,0-.47.48,1.55,1.55,0,0,0-.11.79,1.24,1.24,0,0,0,.81,1.14.5.5,0,0,0,.43-.11C208.58,229.06,208.59,229,208.58,229Z" transform="translate(-170.92 -177.5)"/><path class="cls-14" d="M239.85,263.43s3.9-.19,4.71.17c1.36.59,5.38,6.91,5.18,6.91h-1.86l-6.28-2.37-1.47.37Z" transform="translate(-170.92 -177.5)"/><path class="cls-6" d="M256.68,281.57s11.72,40.57,11.74,40.36-10.5,5.06-10.5,5.06l-7.1-29.33Z" transform="translate(-170.92 -177.5)"/><polygon class="cls-12" points="86.77 149.74 97.86 144.33 97.38 142.84 86.2 148.26 86.77 149.74"/><path class="cls-12" d="M256.23,312.32c-.05,0-.18-.24-.28-.57s-.12-.6-.07-.62.18.23.28.56S256.29,312.3,256.23,312.32Z" transform="translate(-170.92 -177.5)"/><path class="cls-12" d="M257,314.68c-.06,0-.19-.23-.29-.55s-.14-.61-.08-.63.18.24.29.56S257,314.67,257,314.68Z" transform="translate(-170.92 -177.5)"/><path class="cls-12" d="M257.71,317s-.19-.23-.29-.55-.15-.61-.09-.62.19.23.29.55S257.77,317,257.71,317Z" transform="translate(-170.92 -177.5)"/><path class="cls-12" d="M258.5,319.39c-.05,0-.19-.23-.3-.55s-.15-.6-.1-.62.19.23.3.55S258.56,319.37,258.5,319.39Z" transform="translate(-170.92 -177.5)"/><path class="cls-12" d="M259.32,321.73c-.05,0-.19-.23-.3-.55s-.17-.6-.11-.62.19.23.31.55S259.38,321.71,259.32,321.73Z" transform="translate(-170.92 -177.5)"/><path class="cls-12" d="M260.18,324.05c-.06,0-.2-.22-.32-.54s-.17-.6-.11-.62.2.22.32.54S260.24,324,260.18,324.05Z" transform="translate(-170.92 -177.5)"/><path class="cls-12" d="M259.56,325a2,2,0,0,1-.24-.43c-.14-.28-.32-.69-.54-1.2-.43-1-1-2.47-1.51-4.08s-1-3.08-1.32-4.15c-.14-.49-.27-.92-.37-1.26a3.09,3.09,0,0,1-.11-.47s.08.15.19.45.26.71.44,1.24c.37,1.1.84,2.53,1.37,4.12s1,3.06,1.45,4.09l.48,1.23A2.9,2.9,0,0,1,259.56,325Z" transform="translate(-170.92 -177.5)"/><path class="cls-6" d="M202,278.75c.1-2.15-1.12,11.79,9.59,12.16s32.62.21,32.62.21l-2.57,35.36h12.86l2.69-37.6s1.37-10.9-6.09-12.29c-4.67-.87-33.68-1.15-33.68-1.15Z" transform="translate(-170.92 -177.5)"/><polygon class="cls-12" points="70.47 149.05 84.01 149.05 84.01 146.95 70.47 146.96 70.47 149.05"/><path class="cls-12" d="M220.21,289.24h.14l.4,0,1.57-.07,5.81-.22,19.6-.67h.13l0,.13c-.17,1.44-.32,3-.45,4.51-.17,2.21-.33,4.37-.49,6.45s-.4,4.09-.59,6c-.4,3.82-.76,7.26-1.07,10.15s-.56,5.21-.73,6.83c-.09.8-.17,1.43-.22,1.86l-.06.48c0,.11,0,.17,0,.17s0-.06,0-.17l0-.48c0-.44.1-1.07.17-1.86.16-1.63.39-4,.67-6.85s.64-6.33,1-10.15c.19-1.91.41-3.91.58-6s.32-4.24.49-6.45c.13-1.55.27-3.07.45-4.52l.11.12-19.61.6-5.81.16-1.57,0h-.54Z" transform="translate(-170.92 -177.5)"/><path class="cls-12" d="M221.45,287.72c0,.06-.28.12-.62.12s-.62,0-.62-.09.27-.11.61-.12S221.45,287.66,221.45,287.72Z" transform="translate(-170.92 -177.5)"/><path class="cls-12" d="M223.92,287.66c0,.06-.27.12-.61.13s-.62,0-.62-.1.27-.11.61-.12S223.92,287.6,223.92,287.66Z" transform="translate(-170.92 -177.5)"/><path class="cls-12" d="M226.4,287.61c0,.05-.27.11-.62.12s-.62,0-.62-.1.28-.11.62-.12S226.4,287.55,226.4,287.61Z" transform="translate(-170.92 -177.5)"/><path class="cls-12" d="M228.88,287.55c0,.06-.28.11-.62.12s-.62,0-.62-.09.28-.12.62-.13S228.88,287.49,228.88,287.55Z" transform="translate(-170.92 -177.5)"/><path class="cls-12" d="M231.36,287.49c0,.06-.28.11-.62.12s-.62,0-.62-.09.27-.12.62-.12S231.36,287.43,231.36,287.49Z" transform="translate(-170.92 -177.5)"/><path class="cls-12" d="M233.83,287.43c0,.06-.27.11-.61.12s-.62,0-.62-.09.27-.11.61-.12S233.83,287.37,233.83,287.43Z" transform="translate(-170.92 -177.5)"/><path class="cls-12" d="M236.31,287.37c0,.06-.27.12-.61.12s-.63,0-.63-.09.28-.11.62-.12S236.31,287.31,236.31,287.37Z" transform="translate(-170.92 -177.5)"/><path class="cls-12" d="M238.79,287.31c0,.06-.28.12-.62.13s-.62,0-.62-.1.28-.11.62-.12S238.79,287.25,238.79,287.31Z" transform="translate(-170.92 -177.5)"/><path class="cls-12" d="M241.27,287.26c0,.06-.28.11-.62.12s-.62,0-.62-.09.27-.12.62-.13S241.27,287.2,241.27,287.26Z" transform="translate(-170.92 -177.5)"/><path class="cls-12" d="M243.74,287.2c0,.06-.27.11-.61.12s-.62,0-.62-.09.27-.12.61-.13S243.74,287.14,243.74,287.2Z" transform="translate(-170.92 -177.5)"/><path class="cls-12" d="M246.22,287.14c0,.06-.27.11-.61.12s-.62,0-.63-.09.28-.12.62-.12S246.22,287.08,246.22,287.14Z" transform="translate(-170.92 -177.5)"/><path class="cls-12" d="M248.7,287.08c0,.06-.27.12-.62.12s-.62,0-.62-.09.28-.11.62-.12S248.7,287,248.7,287.08Z" transform="translate(-170.92 -177.5)"/><path class="cls-12" d="M248.7,289.33c-.06,0-.08-.29,0-.63s.11-.61.17-.61.08.29,0,.63S248.75,289.33,248.7,289.33Z" transform="translate(-170.92 -177.5)"/><path class="cls-12" d="M248.45,291.79c-.06,0-.08-.28,0-.62s.11-.62.16-.61.08.29.05.63S248.51,291.8,248.45,291.79Z" transform="translate(-170.92 -177.5)"/><path class="cls-12" d="M248.21,294.26c-.06,0-.08-.29,0-.63s.1-.61.16-.6.08.28,0,.62S248.27,294.27,248.21,294.26Z" transform="translate(-170.92 -177.5)"/><path class="cls-12" d="M248,296.73c-.06,0-.08-.29-.05-.63s.11-.61.17-.61.08.29,0,.63S248,296.73,248,296.73Z" transform="translate(-170.92 -177.5)"/><path class="cls-12" d="M247.73,299.19c-.06,0-.08-.28,0-.62s.11-.62.17-.61.08.29.05.63S247.79,299.2,247.73,299.19Z" transform="translate(-170.92 -177.5)"/><path class="cls-12" d="M247.49,301.66c-.06,0-.08-.29-.05-.63s.11-.61.17-.6.08.28,0,.62S247.55,301.66,247.49,301.66Z" transform="translate(-170.92 -177.5)"/><path class="cls-12" d="M247.24,304.13c-.06,0-.08-.29,0-.63s.11-.61.16-.61.08.29,0,.63S247.3,304.13,247.24,304.13Z" transform="translate(-170.92 -177.5)"/><path class="cls-12" d="M247,306.59c-.06,0-.08-.28,0-.63s.1-.61.16-.6.08.29,0,.63S247.06,306.6,247,306.59Z" transform="translate(-170.92 -177.5)"/><path class="cls-12" d="M246.76,309.06c-.06,0-.08-.29,0-.63s.11-.61.17-.61.08.29.05.63S246.82,309.06,246.76,309.06Z" transform="translate(-170.92 -177.5)"/><path class="cls-12" d="M246.52,311.52c-.06,0-.08-.28-.05-.62s.11-.61.17-.61.08.29.05.63S246.58,311.53,246.52,311.52Z" transform="translate(-170.92 -177.5)"/><path class="cls-12" d="M246.28,314c-.06,0-.08-.29-.05-.63s.11-.61.17-.6.08.28,0,.62S246.34,314,246.28,314Z" transform="translate(-170.92 -177.5)"/><path class="cls-12" d="M246,316.46c-.06,0-.08-.29,0-.63s.11-.61.16-.61.08.29,0,.63S246.09,316.46,246,316.46Z" transform="translate(-170.92 -177.5)"/><path class="cls-12" d="M245.79,318.92c-.06,0-.08-.28,0-.62s.1-.62.16-.61.08.29.05.63S245.85,318.93,245.79,318.92Z" transform="translate(-170.92 -177.5)"/><path class="cls-12" d="M245.55,321.39c-.06,0-.08-.29-.05-.63s.11-.61.17-.6.08.28.05.62S245.61,321.4,245.55,321.39Z" transform="translate(-170.92 -177.5)"/><path class="cls-12" d="M245.31,323.86c-.06,0-.08-.29-.05-.63s.11-.61.17-.61.08.29,0,.63S245.37,323.86,245.31,323.86Z" transform="translate(-170.92 -177.5)"/><path class="cls-12" d="M245.18,325.16c-.06,0-.11,0-.1,0s0,0,.11,0,.1,0,.1.05S245.24,325.17,245.18,325.16Z" transform="translate(-170.92 -177.5)"/><path class="cls-6" d="M246,289.47a3.58,3.58,0,0,1-.84.92,4,4,0,0,1-1,.76,7.09,7.09,0,0,1,1.83-1.68Z" transform="translate(-170.92 -177.5)"/><path class="cls-6" d="M246.89,290a11.18,11.18,0,0,1-2.85,1.28,5.53,5.53,0,0,1,1.38-.74A5.71,5.71,0,0,1,246.89,290Z" transform="translate(-170.92 -177.5)"/><path class="cls-12" d="M220.74,261.89s-1.31-14-3.64-20.2l.47-.35-.7-2.42-8.71-1,.13,1.89a6.22,6.22,0,0,0-3,2.83c-3.12,6.63-1.58,14.37-3.24,28.72,0,0-1.95,6.73.06,8.83l19-4.43-.91-4.33c8.3-.16,22-1.69,22-1.69l-.38-7.85s-20.39.12-21.06.05" transform="translate(-170.92 -177.5)"/><path class="cls-2" d="M216.86,238.91a7.65,7.65,0,0,1,.63,1.58,3.36,3.36,0,0,1,.17.66.55.55,0,0,1-.11.33.6.6,0,0,1-.24.16c-.33.1-.51,0-.52,0s.21,0,.46-.15a.34.34,0,0,0,.21-.34,3.1,3.1,0,0,0-.18-.61A6.47,6.47,0,0,1,216.86,238.91Z" transform="translate(-170.92 -177.5)"/><path class="cls-6" d="M218.93,249.37c0,.06-3.5.11-7.82.11s-7.83,0-7.83-.11,3.51-.11,7.83-.11S218.93,249.31,218.93,249.37Z" transform="translate(-170.92 -177.5)"/><path class="cls-6" d="M218.11,245.41c0,.06-3.1.11-6.93.11s-6.94-.05-6.94-.11,3.11-.1,6.94-.1S218.11,245.35,218.11,245.41Z" transform="translate(-170.92 -177.5)"/><path class="cls-6" d="M217,241.93c0,.06-2.57.11-5.73.11s-5.74,0-5.74-.11,2.57-.11,5.74-.11S217,241.87,217,241.93Z" transform="translate(-170.92 -177.5)"/><path class="cls-6" d="M216.86,239.48c0,.06-2,.1-4.4.1s-4.39,0-4.39-.1,2-.11,4.39-.11S216.86,239.42,216.86,239.48Z" transform="translate(-170.92 -177.5)"/><path class="cls-6" d="M219.48,253.18c0,.06-3.7.1-8.27.1s-8.28,0-8.28-.1,3.7-.11,8.28-.11S219.48,253.12,219.48,253.18Z" transform="translate(-170.92 -177.5)"/><path class="cls-6" d="M220.16,257c0,.06-3.86.11-8.62.11s-8.61-.05-8.61-.11,3.86-.11,8.61-.11S220.16,256.94,220.16,257Z" transform="translate(-170.92 -177.5)"/><path class="cls-6" d="M220.58,260.53c0,.06-4,.1-8.82.1s-8.83,0-8.83-.1,3.95-.11,8.83-.11S220.58,260.47,220.58,260.53Z" transform="translate(-170.92 -177.5)"/><path class="cls-6" d="M239.85,264.38c0,.06-8.34.11-18.62.11s-18.63-.05-18.63-.11,8.34-.11,18.63-.11S239.85,264.32,239.85,264.38Z" transform="translate(-170.92 -177.5)"/><path class="cls-6" d="M240,267.47c0,.06-8.4.1-18.76.1s-18.76,0-18.76-.1,8.39-.11,18.76-.11S240,267.41,240,267.47Z" transform="translate(-170.92 -177.5)"/><path class="cls-6" d="M220,271.27c0,.06-4,.11-9,.11s-9-.05-9-.11,4-.11,9-.11S220,271.21,220,271.27Z" transform="translate(-170.92 -177.5)"/><path class="cls-6" d="M220.86,274.8c0,.06-4.36.11-9.75.11s-9.74-.05-9.74-.11,4.36-.11,9.74-.11S220.86,274.74,220.86,274.8Z" transform="translate(-170.92 -177.5)"/><path class="cls-6" d="M204.26,275.74c-.06,0-.11-6.85-.11-15.29s0-15.29.11-15.29.11,6.84.11,15.29S204.32,275.74,204.26,275.74Z" transform="translate(-170.92 -177.5)"/><path class="cls-6" d="M209,275.36c-.06,0-.11-8.37-.11-18.69s0-18.69.11-18.69.1,8.37.1,18.69S209,275.36,209,275.36Z" transform="translate(-170.92 -177.5)"/><path class="cls-6" d="M214.16,274.8c-.06,0-.11-8.07-.11-18s0-18,.11-18,.11,8.07.11,18S214.22,274.8,214.16,274.8Z" transform="translate(-170.92 -177.5)"/><path class="cls-6" d="M218.52,275.72c-.06,0-.1-6.33-.1-14.14s0-14.14.1-14.14.11,6.33.11,14.14S218.58,275.72,218.52,275.72Z" transform="translate(-170.92 -177.5)"/><path class="cls-6" d="M223.15,261.87a9.18,9.18,0,0,1,0,1.38c0,.85,0,2-.05,3.31s-.07,2.47-.11,3.31a8.54,8.54,0,0,1-.11,1.37,9,9,0,0,1,0-1.37c0-.85,0-2,.05-3.31s.07-2.47.11-3.32A8.54,8.54,0,0,1,223.15,261.87Z" transform="translate(-170.92 -177.5)"/><path class="cls-6" d="M228.06,262a8,8,0,0,1,0,1.29c0,.79,0,1.89,0,3.1s-.07,2.31-.11,3.1a7.11,7.11,0,0,1-.1,1.29,7.17,7.17,0,0,1,0-1.29c0-.79,0-1.89,0-3.11s.07-2.31.11-3.1A7.54,7.54,0,0,1,228.06,262Z" transform="translate(-170.92 -177.5)"/><path class="cls-6" d="M233,262a9.21,9.21,0,0,1,0,1.25c0,.77,0,1.83,0,3s-.06,2.24-.1,3a7.16,7.16,0,0,1-.11,1.24,7.53,7.53,0,0,1,0-1.25c0-.77,0-1.83,0-3s.06-2.24.1-3A7,7,0,0,1,233,262Z" transform="translate(-170.92 -177.5)"/><path class="cls-6" d="M237.89,261.81a6.41,6.41,0,0,1,.05,1.21c0,.75,0,1.78,0,2.92s-.06,2.17-.1,2.92a7.47,7.47,0,0,1-.1,1.21,6.32,6.32,0,0,1,0-1.21c0-.75,0-1.78,0-2.92s.06-2.18.1-2.92A7.47,7.47,0,0,1,237.89,261.81Z" transform="translate(-170.92 -177.5)"/><path class="cls-6" d="M219,263.64a4,4,0,0,1,1.82-2,10.16,10.16,0,0,1-.93,1A13.36,13.36,0,0,1,219,263.64Z" transform="translate(-170.92 -177.5)"/><path class="cls-6" d="M220.16,263.74a1.66,1.66,0,0,1,.09-1.18,1.69,1.69,0,0,1,.69-1c.05,0-.28.44-.49,1S220.22,263.73,220.16,263.74Z" transform="translate(-170.92 -177.5)"/><path class="cls-6" d="M240.19,269.65a33.23,33.23,0,0,1-.45-3.76,32.06,32.06,0,0,1-.23-3.77,32.84,32.84,0,0,1,.45,3.75A35,35,0,0,1,240.19,269.65Z" transform="translate(-170.92 -177.5)"/><path class="cls-6" d="M240.45,263.6s-.1.1-.12.3a.4.4,0,0,0,.09.29.32.32,0,0,0,.33,0,.3.3,0,0,0,.2-.27.38.38,0,0,0-.14-.27c-.16-.12-.3-.08-.31-.11s.15-.14.39,0a.49.49,0,1,1-.61.75.49.49,0,0,1-.1-.45C240.25,263.61,240.46,263.57,240.45,263.6Z" transform="translate(-170.92 -177.5)"/><path class="cls-6" d="M220.72,261.85h.09l.29,0c.26,0,.63.05,1.13.07,1,0,2.43.06,4.27,0,3.69,0,8.95-.16,15.26-.41h.09v.09c.12,2.44.25,5.1.39,7.9v.09h-.08c-1,.19-2,.27-3.06.37l-3.16.28c-2.15.17-4.36.34-6.61.5l-8.27.56h0a10,10,0,0,1-6.35-2.6,7.71,7.71,0,0,1-1.85-2.71,20.16,20.16,0,0,1-.93-3c-1-3.93-1.57-7.47-2.05-10.43-.23-1.48-.43-2.82-.6-4a23.13,23.13,0,0,1-.35-3,3.78,3.78,0,0,1,.38-1.84,2.1,2.1,0,0,1,.4-.53,4.77,4.77,0,0,0-.36.54,3.84,3.84,0,0,0-.35,1.83,28.71,28.71,0,0,0,.38,3c.19,1.16.4,2.5.64,4,.49,3,1.12,6.5,2.09,10.42A19.34,19.34,0,0,0,213,266a7.51,7.51,0,0,0,1.81,2.65,9.88,9.88,0,0,0,6.23,2.53h0l8.27-.57,6.61-.49,3.16-.27c1-.11,2.06-.19,3-.37l-.08.11c-.13-2.8-.26-5.46-.38-7.9l.1.09c-6.31.23-11.58.34-15.27.33-1.84,0-3.29,0-4.28-.1-.49,0-.87-.06-1.12-.09l-.29,0Z" transform="translate(-170.92 -177.5)"/><path class="cls-6" d="M220.72,261.85a2.49,2.49,0,0,1-.2-.61c-.12-.4-.28-1-.46-1.7-.38-1.44-.84-3.44-1.34-5.65s-1-4.2-1.31-5.65l-.4-1.71a3.94,3.94,0,0,1-.13-.63,2.73,2.73,0,0,1,.21.61c.12.4.28,1,.47,1.7.38,1.43.87,3.43,1.37,5.64s.94,4.17,1.28,5.65c.15.7.29,1.28.39,1.72A4.51,4.51,0,0,1,220.72,261.85Z" transform="translate(-170.92 -177.5)"/><path class="cls-6" d="M216.88,239.07a1.45,1.45,0,0,1,0,.44c0,.27-.1.67-.19,1.16a7.67,7.67,0,0,1-.16.81.57.57,0,0,1-.35.38,1,1,0,0,1-.53,0c-.64-.14-1.35-.31-2.08-.51-1.47-.4-2.78-.83-3.73-1.12l-1.13-.35a1.59,1.59,0,0,1-.4-.15,1.41,1.41,0,0,1,.43.07l1.14.29c1,.25,2.28.65,3.74,1,.73.2,1.43.38,2.07.52a.81.81,0,0,0,.43,0,.42.42,0,0,0,.24-.26,5.82,5.82,0,0,0,.18-.78c.11-.48.19-.88.26-1.15A1.91,1.91,0,0,1,216.88,239.07Z" transform="translate(-170.92 -177.5)"/><polygon class="cls-6" points="39.11 115.76 41.84 152.9 42.99 152.63 42.56 116.55 39.11 115.76"/><polygon class="cls-6" points="27.51 117.06 19.2 152.85 20.71 152.85 32.6 117.06 27.51 117.06"/><polygon class="cls-6" points="49.49 117.06 60.83 152.85 62.05 152.85 53.04 117.06 49.49 117.06"/><polygon class="cls-6" points="51.01 119.46 25.61 136.06 25.61 136.97 51.72 119.46 51.01 119.46"/><polygon class="cls-6" points="29.45 119.46 56.98 137.98 56.98 136.56 30.27 118.65 29.45 119.46"/><path class="cls-7" d="M194.64,295.17l32.73-.59a2.09,2.09,0,0,0,2-2.34h0a2.09,2.09,0,0,0-2.11-1.85l-33.19.54Z" transform="translate(-170.92 -177.5)"/><g class="cls-11"><path d="M194.64,295.17l32.73-.59a2.09,2.09,0,0,0,2-2.34h0a2.09,2.09,0,0,0-2.11-1.85l-33.19.54Z" transform="translate(-170.92 -177.5)"/></g><path class="cls-7" d="M191.31,269.87l3.3,25.3,25.81-.62-.07-15.36a4.3,4.3,0,0,0-4.69-4.35L196,276.61l-2.59-26.82-2.62-.22a1.84,1.84,0,0,0-2,2.09Z" transform="translate(-170.92 -177.5)"/></g></svg>