<svg xmlns="http://www.w3.org/2000/svg" xmlns:xlink="http://www.w3.org/1999/xlink" width="250" height="90" viewBox="0 0 250 90">
  <defs>
    <clipPath id="clip-path">
      <rect id="Rectangle_95" data-name="Rectangle 95" width="2.749" height="2.619"/>
    </clipPath>
    <clipPath id="clip-logo_en">
      <rect width="250" height="90"/>
    </clipPath>
  </defs>
  <g id="logo_en" clip-path="url(#clip-logo_en)">
    <g id="KFU_Logo_Arabic-01" data-name="KFU Logo Arabic-01" transform="translate(-23.27 -12.23)">
      <g id="Group_174" data-name="Group 174" transform="translate(32.27 15.23)">
        <g id="Group_157" data-name="Group 157" transform="translate(30.594 19.628)">
          <path id="Path_225" data-name="Path 225" d="M123.177,130.794a5.077,5.077,0,0,1,1.267-.355,1.7,1.7,0,0,1,1.757.773,2.561,2.561,0,0,0-1.779-.454,16.986,16.986,0,0,0-3.441,1.182,15.589,15.589,0,0,1,2.2-1.146" transform="translate(-111.721 -98.3)" fill="#fff"/>
          <path id="Path_226" data-name="Path 226" d="M103.393,130.792a14.7,14.7,0,0,1,2.2,1.146,17.169,17.169,0,0,0-3.441-1.182,2.584,2.584,0,0,0-1.779.454,1.69,1.69,0,0,1,1.757-.773,5.028,5.028,0,0,1,1.267.355" transform="translate(-100.37 -98.298)" fill="#fff"/>
          <path id="Path_227" data-name="Path 227" d="M260.569,79.6h-5.881l-6.024-8.98a8.7,8.7,0,0,1-.548-1.141h-.072V79.6H243.39V60.061c.009-.777,1.029-1.137,1.029-1.137h3.625V68.7h.072c.117-.27.305-.651.575-1.155l5.71-8.621h5.548l-7.206,9.861Z" transform="translate(-179.138 -58.92)" fill="#0f7078"/>
          <path id="Path_228" data-name="Path 228" d="M297.953,62.722h-7.291v5.072h6.7v3.778h-6.7V79.6H286s-.031-19.659,0-19.911a.978.978,0,0,1,.638-.759h11.312Z" transform="translate(-202.6 -58.926)" fill="#0f7078"/>
          <path id="Path_229" data-name="Path 229" d="M336.748,70.651q0,9.313-8.68,9.313-8.417,0-8.419-9.1V58.93h4.672V70.925q0,5.014,3.922,5.014,3.848,0,3.85-4.843V58.93h4.659V70.651Z" transform="translate(-221.139 -58.926)" fill="#0f7078"/>
          <path id="Path_230" data-name="Path 230" d="M251.235,127.567a4.19,4.19,0,0,1-.121.764,5.01,5.01,0,0,1-.723,1.649,5.191,5.191,0,0,1-1.186,1.258,5.352,5.352,0,0,1-1.532.8,5.514,5.514,0,0,1-1.77.283,5.8,5.8,0,0,1-2.242-.386,4.413,4.413,0,0,1-1.5-1,3.657,3.657,0,0,1-.84-1.411,5.155,5.155,0,0,1-.256-1.6,5.659,5.659,0,0,1,.4-2.138,4.779,4.779,0,0,1,.943-1.554l.5.157a5.1,5.1,0,0,0-.562,1.523,7.459,7.459,0,0,0-.13,1.249,3.3,3.3,0,0,0,.292,1.411,3.1,3.1,0,0,0,.791,1.047,3.456,3.456,0,0,0,1.186.656,4.729,4.729,0,0,0,1.46.225,3.869,3.869,0,0,0,1.6-.292,2.755,2.755,0,0,0,1.065-.809,3.074,3.074,0,0,0,.593-1.222,6.183,6.183,0,0,0,.18-1.545V114.97H251.3v9.955a4.4,4.4,0,0,0,.076.809,2,2,0,0,0,.274.705,1.5,1.5,0,0,0,1.334.705h.961a.367.367,0,0,1,.445.431v.5a.393.393,0,0,1-.445.445h-.517a1.885,1.885,0,0,1-1.451-.575,2.714,2.714,0,0,1-.678-1.456v.018c-.018.413-.04.768-.063,1.06" transform="translate(-177.855 -89.79)" fill="#0f7078"/>
          <path id="Path_231" data-name="Path 231" d="M282.906,133.443c.3,0,.449.144.449.431v.5a.4.4,0,0,1-.449.449H268.584c-.162,0-.261-.04-.3-.121a.691.691,0,0,1-.063-.31v-.566a.487.487,0,0,1,.067-.283.348.348,0,0,1,.292-.094h1.7v-5.175h1.873v2.767a7.7,7.7,0,0,1,.9-2.053,6.325,6.325,0,0,1,1.231-1.438,4.665,4.665,0,0,1,1.429-.845,4.326,4.326,0,0,1,1.5-.274,3.743,3.743,0,0,1,1.649.355,3.545,3.545,0,0,1,1.253.988,4.456,4.456,0,0,1,.791,1.514,6.384,6.384,0,0,1,.274,1.927v2.237h1.725Zm-3.679-2.031a4.843,4.843,0,0,0-.2-1.469,2.714,2.714,0,0,0-.557-1.006,2.216,2.216,0,0,0-.854-.584,3.026,3.026,0,0,0-1.092-.189,3.058,3.058,0,0,0-1.348.332,4.5,4.5,0,0,0-1.289,1,7.024,7.024,0,0,0-1.1,1.649,10.034,10.034,0,0,0-.782,2.3h7.219Z" transform="translate(-192.814 -96.101)" fill="#0f7078"/>
          <path id="Path_232" data-name="Path 232" d="M300.337,135.737c-.171,0-.279-.04-.319-.121a.694.694,0,0,1-.058-.31v-.566a.461.461,0,0,1,.076-.274.348.348,0,0,1,.3-.1h2.3a.784.784,0,0,0,.7-.252,1.887,1.887,0,0,0,.162-.939V128.1h1.927v4.039a3.487,3.487,0,0,0,.27,1.451,1.268,1.268,0,0,0,.97.732l.252.027c.085,0,.175.009.265.009h.827a.492.492,0,0,1,.355.1.469.469,0,0,1,.094.328v.5a.4.4,0,0,1-.449.449h-.593a.945.945,0,0,1-.265-.036,1.95,1.95,0,0,1-1.168-.678,2.824,2.824,0,0,1-.584-1.316,3.187,3.187,0,0,1-.207.827,1.8,1.8,0,0,1-.44.642,1.939,1.939,0,0,1-.719.413,3.445,3.445,0,0,1-1.092.148Zm1.631,2.251a.94.94,0,0,1,.292-.7,1.02,1.02,0,0,1,1.411,0,.94.94,0,0,1,.292.7.958.958,0,0,1-.292.714,1.02,1.02,0,0,1-1.411,0,.958.958,0,0,1-.292-.714m2.79,0a.915.915,0,0,1,.3-.7,1,1,0,0,1,.714-.283.977.977,0,0,1,.705.283.94.94,0,0,1,.292.7.958.958,0,0,1-.292.714.977.977,0,0,1-.705.283,1.013,1.013,0,0,1-.714-.283.933.933,0,0,1-.3-.714" transform="translate(-210.294 -97.021)" fill="#0f7078"/>
          <path id="Path_233" data-name="Path 233" d="M316.619,130.874c-.162,0-.261-.04-.3-.121a.7.7,0,0,1-.058-.31v-.566a.5.5,0,0,1,.067-.274.335.335,0,0,1,.292-.1h1.995a7.33,7.33,0,0,1-.207-1.739,4.832,4.832,0,0,1,.359-1.9,4.142,4.142,0,0,1,.984-1.42,4.275,4.275,0,0,1,1.424-.885,4.71,4.71,0,0,1,1.7-.31h2.475c.094.71.171,1.447.238,2.21s.1,1.545.1,2.345c0,.481-.013.979-.045,1.487s-.076,1.038-.148,1.59Zm7.017-1.375c.058-.368.094-.723.121-1.074s.036-.7.036-1.042c0-.481-.018-.952-.058-1.411s-.094-.912-.162-1.361h-.979a2.157,2.157,0,0,0-.723.139,2.059,2.059,0,0,0-.741.467,2.694,2.694,0,0,0-.584.858,3.254,3.254,0,0,0-.238,1.343,5.529,5.529,0,0,0,.1,1.056,4.291,4.291,0,0,0,.341,1.024Zm-2.062-9.232a.977.977,0,0,1,.283-.705.958.958,0,0,1,.714-.292.94.94,0,0,1,.7.292.981.981,0,0,1,.288.705.962.962,0,0,1-.288.705.923.923,0,0,1-.7.292.958.958,0,0,1-.714-.292.984.984,0,0,1-.283-.705" transform="translate(-219.272 -92.158)" fill="#0f7078"/>
          <path id="Path_234" data-name="Path 234" d="M359.4,127.115a.784.784,0,0,0,.7-.252,1.875,1.875,0,0,0,.162-.939V114.94h1.909V124.9a4.169,4.169,0,0,0,.085.885,2.022,2.022,0,0,0,.283.705,1.309,1.309,0,0,0,.526.463,1.825,1.825,0,0,0,.809.166h.773a.451.451,0,0,1,.337.1.464.464,0,0,1,.094.323v.5a.391.391,0,0,1-.431.449h-.323a1.921,1.921,0,0,1-1.46-.575,2.8,2.8,0,0,1-.723-1.451,2.714,2.714,0,0,1-.431,1.222,1.777,1.777,0,0,1-1.069.687,4.561,4.561,0,0,1-1.137.121h-7.17a6.723,6.723,0,0,1-2.143-.283,3.243,3.243,0,0,1-1.271-.746,2.385,2.385,0,0,1-.62-1.042,4.249,4.249,0,0,1-.162-1.146,3.959,3.959,0,0,1,.377-1.676,5.332,5.332,0,0,1,.876-1.366l.535.153a4.1,4.1,0,0,0-.463.97,3.649,3.649,0,0,0-.171,1.159,3.256,3.256,0,0,0,.112.809,2.09,2.09,0,0,0,.463.849,2.579,2.579,0,0,0,1.006.669,4.7,4.7,0,0,0,1.752.265H359.4Zm-6-6.105v-.943h1.155v-.912a1.981,1.981,0,0,1,.535-1.532,2.034,2.034,0,0,1,1.411-.481h.809v.948h-.553a2.716,2.716,0,0,0-.481.036,1.043,1.043,0,0,0-.4.144.748.748,0,0,0-.265.328,1.4,1.4,0,0,0-.094.557v.912h1.891v.943Z" transform="translate(-236.824 -89.773)" fill="#0f7078"/>
          <path id="Path_235" data-name="Path 235" d="M383.679,128.489c-.162,0-.261-.04-.3-.121a.7.7,0,0,1-.058-.31v-.566a.485.485,0,0,1,.067-.274c.049-.072.144-.1.292-.1h1.442a.784.784,0,0,0,.7-.252,1.878,1.878,0,0,0,.162-.934V114.94h1.927V124.9a4.628,4.628,0,0,0,.076.836,2.008,2.008,0,0,0,.274.714,1.414,1.414,0,0,0,.526.49,1.632,1.632,0,0,0,.809.18h.809a.454.454,0,0,1,.35.1.469.469,0,0,1,.094.328v.5a.393.393,0,0,1-.445.445h-.346a1.935,1.935,0,0,1-1.46-.575,2.835,2.835,0,0,1-.723-1.451,3.142,3.142,0,0,1-.207.827,1.8,1.8,0,0,1-.44.642,1.923,1.923,0,0,1-.723.413,3.457,3.457,0,0,1-1.092.144Z" transform="translate(-256.205 -89.773)" fill="#0f7078"/>
          <path id="Path_236" data-name="Path 236" d="M397.909,135.743c-.157,0-.261-.04-.3-.121a.694.694,0,0,1-.058-.31v-.566a.5.5,0,0,1,.067-.274.335.335,0,0,1,.292-.1h1.721c-.014-.3-.022-.584-.036-.858s-.018-.557-.018-.845c0-.8.031-1.586.094-2.345s.139-1.5.234-2.21H402.4a4.728,4.728,0,0,1,1.7.31,4.29,4.29,0,0,1,1.429.894,4.2,4.2,0,0,1,.979,1.42,4.717,4.717,0,0,1,.359,1.9,7.217,7.217,0,0,1-.058.872c-.04.292-.094.58-.162.867H408.5a.492.492,0,0,1,.355.1.477.477,0,0,1,.094.328v.5a.4.4,0,0,1-.449.449H397.909Zm6.6-1.375a4.528,4.528,0,0,0,.35-1.024,5.234,5.234,0,0,0,.112-1.056,3.33,3.33,0,0,0-.238-1.343,2.713,2.713,0,0,0-.593-.863,2.183,2.183,0,0,0-.75-.463,2.133,2.133,0,0,0-.719-.139h-.984c-.067.449-.121.9-.162,1.361s-.058.925-.058,1.411a15.641,15.641,0,0,0,.153,2.116Z" transform="translate(-264.042 -97.026)" fill="#0f7078"/>
          <path id="Path_237" data-name="Path 237" d="M420.759,128.489c-.162,0-.261-.04-.3-.121a.694.694,0,0,1-.058-.31v-.566a.485.485,0,0,1,.067-.274c.045-.072.144-.1.292-.1H423.1V114.94h1.941v13.549Z" transform="translate(-276.627 -89.773)" fill="#0f7078"/>
        </g>
        <rect id="Rectangle_89" data-name="Rectangle 89" width="1.927" height="13.549" transform="translate(181.775 44.795)" fill="#0f7078"/>
        <g id="Group_158" data-name="Group 158" transform="translate(188.716 44.795)">
          <path id="Path_238" data-name="Path 238" d="M459.294,123.241c.1.71.189,1.447.247,2.21s.094,1.545.094,2.345c0,.288-.009.566-.018.84s-.031.562-.054.863H461.3a.439.439,0,0,1,.337.1.476.476,0,0,1,.094.328v.5c0,.3-.144.449-.431.449h-8.271a8.125,8.125,0,0,1-.508-1.527,7.208,7.208,0,0,1-.18-1.581,4.772,4.772,0,0,1,.35-1.864,4.34,4.34,0,0,1,.948-1.429,4.109,4.109,0,0,1,1.375-.912,4.333,4.333,0,0,1,1.64-.319h2.642Zm-5.157-2.992a1,1,0,0,1,1-.979.984.984,0,0,1,.714.292.917.917,0,0,1,.3.687.966.966,0,0,1-.3.723,1,1,0,0,1-.714.292.967.967,0,0,1-.705-.292.983.983,0,0,1-.292-.723m3.437,9.25c.058-.368.1-.723.13-1.078s.04-.7.04-1.038c0-.481-.022-.952-.067-1.411s-.094-.912-.153-1.357h-.979a2.225,2.225,0,0,0-.732.139,2.1,2.1,0,0,0-.75.463,2.673,2.673,0,0,0-.584.858,3.329,3.329,0,0,0-.238,1.343,5.567,5.567,0,0,0,.1,1.056,4.289,4.289,0,0,0,.341,1.024h2.889Zm-.633-9.25a1,1,0,0,1,1.995,0,1,1,0,0,1-.283.723,1.009,1.009,0,0,1-1.42,0,.983.983,0,0,1-.292-.723" transform="translate(-452.34 -117.325)" fill="#0f7078"/>
          <path id="Path_239" data-name="Path 239" d="M471.124,134.812c-.157,0-.261-.04-.3-.121a.691.691,0,0,1-.063-.31v-.566a.485.485,0,0,1,.067-.274c.045-.072.144-.1.292-.1h3.01a7.737,7.737,0,0,1-1.271-1.6,3.584,3.584,0,0,1-.5-1.86,3.264,3.264,0,0,1,.355-1.572,3.453,3.453,0,0,1,.921-1.11,3.777,3.777,0,0,1,1.3-.66,5.246,5.246,0,0,1,1.487-.216,6.383,6.383,0,0,1,1.092.112,4.141,4.141,0,0,1,1.042.319v1.375a3.35,3.35,0,0,0-.809-.265,3.878,3.878,0,0,0-.719-.094A4.025,4.025,0,0,0,476,128a2.435,2.435,0,0,0-.858.422,2.093,2.093,0,0,0-.593.759,2.573,2.573,0,0,0-.225,1.119,3.129,3.129,0,0,0,.153.952,4.566,4.566,0,0,0,.4.876,4.126,4.126,0,0,0,.562.741,5.971,5.971,0,0,0,.624.575h4.2a.368.368,0,0,1,.449.431v.5a.4.4,0,0,1-.449.445h-9.133Z" transform="translate(-462.485 -121.263)" fill="#0f7078"/>
          <path id="Path_240" data-name="Path 240" d="M490.719,135.743c-.162,0-.261-.04-.3-.121a.694.694,0,0,1-.058-.31v-.566a.5.5,0,0,1,.067-.274.335.335,0,0,1,.292-.1h1.775c-.036-.584-.054-1.15-.054-1.7,0-.8.031-1.586.094-2.345s.139-1.5.234-2.21H495.4a4.289,4.289,0,0,1,1.658.319,4.11,4.11,0,0,1,1.375.912,4.484,4.484,0,0,1,.948,1.429,4.773,4.773,0,0,1,.355,1.864,6.937,6.937,0,0,1-.189,1.581,9.12,9.12,0,0,1-.5,1.532h-8.329Zm6.658-1.375a4.544,4.544,0,0,0,.355-1.024,5.234,5.234,0,0,0,.112-1.056,3.33,3.33,0,0,0-.238-1.343,2.713,2.713,0,0,0-.593-.863,2.183,2.183,0,0,0-.75-.463,2.157,2.157,0,0,0-.723-.139h-.979c-.058.449-.108.9-.153,1.361s-.067.925-.067,1.411a14.973,14.973,0,0,0,.157,2.116Z" transform="translate(-473.28 -122.193)" fill="#0f7078"/>
          <path id="Path_241" data-name="Path 241" d="M516.65,128.489V114.94h1.927v12.175h1.514a.433.433,0,0,1,.337.1.469.469,0,0,1,.094.328v.5a.387.387,0,0,1-.431.445Z" transform="translate(-487.759 -114.94)" fill="#0f7078"/>
          <path id="Path_242" data-name="Path 242" d="M523.134,134.817c-.162,0-.261-.04-.3-.121a.691.691,0,0,1-.063-.31v-.566a.485.485,0,0,1,.067-.274c.045-.072.144-.1.292-.1h7.255a4.662,4.662,0,0,1-.35-.988q-.128-.539-.216-1.092c-.081-.467-.171-.93-.27-1.384a4.018,4.018,0,0,0-.454-1.213,2.414,2.414,0,0,0-.845-.858,2.763,2.763,0,0,0-1.442-.328,5.828,5.828,0,0,0-1.959.4,4.92,4.92,0,0,1-.148-.481c-.04-.162-.081-.319-.13-.481a5.809,5.809,0,0,1,.553-.207,6.151,6.151,0,0,1,.665-.189,7.2,7.2,0,0,1,.728-.135,5.238,5.238,0,0,1,.741-.054,5.424,5.424,0,0,1,1.626.216,3.615,3.615,0,0,1,1.159.593,3.288,3.288,0,0,1,.791.885,5.238,5.238,0,0,1,.508,1.1,8.936,8.936,0,0,1,.31,1.24c.072.431.139.863.2,1.3.067.562.153,1.1.252,1.617a6.687,6.687,0,0,0,.436,1.447h-9.4Zm3.405,2.269a.968.968,0,0,1,.283-.714.951.951,0,0,1,.714-.283.977.977,0,0,1,.705.283.959.959,0,0,1,.292.714.94.94,0,0,1-.292.7,1.032,1.032,0,0,1-1.42,0,.949.949,0,0,1-.283-.7" transform="translate(-491.129 -121.268)" fill="#0f7078"/>
        </g>
        <path id="Path_243" data-name="Path 243" d="M242.18,159.63h.665v3.522l3.19-3.522h.867l-2.359,2.6,2.678,4.241h-.755l-2.363-3.751-1.258,1.384v2.368h-.665Z" transform="translate(-147.878 -94.759)" fill="#0f7078"/>
        <rect id="Rectangle_90" data-name="Rectangle 90" width="0.665" height="6.842" transform="translate(101.849 64.871)" fill="#0f7078"/>
        <path id="Path_244" data-name="Path 244" d="M267.91,159.63h1.038l3.383,5.589V159.63h.66v6.838h-.66l-3.756-6.24v6.24h-.665Z" transform="translate(-162.049 -94.759)" fill="#0f7078"/>
        <g id="Group_159" data-name="Group 159" transform="translate(112.415 64.386)">
          <path id="Path_245" data-name="Path 245" d="M287.217,164.651a2.733,2.733,0,0,1-.863.75,2.281,2.281,0,0,1-1.105.256,2.39,2.39,0,0,1-1.9-.84,3.958,3.958,0,0,1-.849-2.7,3.872,3.872,0,0,1,.813-2.655,2.558,2.558,0,0,1,1.986-.916,2.667,2.667,0,0,1,1.217.283,2.474,2.474,0,0,1,.925.8,3.132,3.132,0,0,1,.427,1l-.723.144a3.03,3.03,0,0,0-.292-.719,1.965,1.965,0,0,0-.651-.665,1.6,1.6,0,0,0-.854-.238,1.9,1.9,0,0,0-1.478.746,3.268,3.268,0,0,0-.633,2.165,4.427,4.427,0,0,0,.27,1.572,2.206,2.206,0,0,0,.759,1.06,1.777,1.777,0,0,0,1.056.346,1.879,1.879,0,0,0,.854-.2,1.85,1.85,0,0,0,.633-.508,1.774,1.774,0,0,0,.319-.638,3.271,3.271,0,0,0,.085-.813h-1.707v-.66h2.359v3.3h-.647Z" transform="translate(-282.5 -158.55)" fill="#0f7078"/>
        </g>
        <path id="Path_246" data-name="Path 246" d="M310.09,158.85h3.985v.656H310.75v2.237h2.457v.66H310.75v3.284h-.66Z" transform="translate(-185.28 -94.329)" fill="#0f7078"/>
        <path id="Path_247" data-name="Path 247" d="M322.824,158.85h1.065l2.192,6.838h-.669l-.683-2.12h-2.763l-.692,2.12H320.6Zm.53.454-1.173,3.6h2.336Z" transform="translate(-191.068 -94.329)" fill="#0f7078"/>
        <rect id="Rectangle_91" data-name="Rectangle 91" width="0.665" height="6.838" transform="translate(137.569 64.521)" fill="#0f7078"/>
        <g id="Group_160" data-name="Group 160" transform="translate(141.145 64.391)">
          <path id="Path_248" data-name="Path 248" d="M347.151,163.614a2.458,2.458,0,0,0,.252.629,1.8,1.8,0,0,0,.62.584,1.873,1.873,0,0,0,.93.22,1.737,1.737,0,0,0,1.2-.391,1.2,1.2,0,0,0,.436-.925,1.064,1.064,0,0,0-.391-.831,3.592,3.592,0,0,0-1.217-.521,4.65,4.65,0,0,1-1.766-.827,1.472,1.472,0,0,1-.526-1.15,1.715,1.715,0,0,1,.589-1.3,2.178,2.178,0,0,1,1.545-.544,2.807,2.807,0,0,1,1.1.216,2.063,2.063,0,0,1,1.24,1.424l-.687.211a1.725,1.725,0,0,0-.606-.934,1.676,1.676,0,0,0-1.033-.323,1.5,1.5,0,0,0-1.024.346,1.057,1.057,0,0,0-.391.818.972.972,0,0,0,.314.705,3.421,3.421,0,0,0,1.375.62,4.2,4.2,0,0,1,1.739.836,1.65,1.65,0,0,1,.472,1.2,1.825,1.825,0,0,1-.642,1.4,2.473,2.473,0,0,1-1.716.58,2.815,2.815,0,0,1-1.222-.265,2.363,2.363,0,0,1-.9-.732,2.475,2.475,0,0,1-.386-.867Z" transform="translate(-346.45 -158.56)" fill="#0f7078"/>
        </g>
        <path id="Path_249" data-name="Path 249" d="M363.888,158.85h1.06l2.192,6.838h-.669l-.683-2.12h-2.763l-.692,2.12h-.674Zm.53.454-1.173,3.6h2.332Z" transform="translate(-213.682 -94.329)" fill="#0f7078"/>
        <path id="Path_250" data-name="Path 250" d="M379.23,158.85h.66v6.168h3.293v.669H379.23Z" transform="translate(-223.359 -94.329)" fill="#0f7078"/>
        <g id="Group_161" data-name="Group 161" transform="translate(166.393 64.517)">
          <path id="Path_251" data-name="Path 251" d="M402.65,158.845h.66v4.475a1.815,1.815,0,0,0,.481,1.33,1.749,1.749,0,0,0,1.3.485,2.191,2.191,0,0,0,1.056-.225,1.408,1.408,0,0,0,.611-.651,2.195,2.195,0,0,0,.2-.943V158.84h.669v4.475a2.474,2.474,0,0,1-.669,1.824,2.4,2.4,0,0,1-1.788.674,2.712,2.712,0,0,1-1.491-.377,1.991,1.991,0,0,1-.809-.957,3,3,0,0,1-.225-1.065Z" transform="translate(-402.65 -158.84)" fill="#0f7078"/>
        </g>
        <path id="Path_252" data-name="Path 252" d="M420.67,158.85h1.038l3.387,5.589V158.85h.656v6.838H425.1l-3.76-6.245v6.245h-.665Z" transform="translate(-246.182 -94.329)" fill="#0f7078"/>
        <rect id="Rectangle_92" data-name="Rectangle 92" width="0.665" height="6.838" transform="translate(182.907 64.521)" fill="#0f7078"/>
        <path id="Path_253" data-name="Path 253" d="M446.7,158.85h.674l1.981,5.755,1.968-5.755h.669l-2.336,6.838h-.611Z" transform="translate(-260.518 -94.329)" fill="#0f7078"/>
        <path id="Path_254" data-name="Path 254" d="M463.94,158.85h4.025v.651H464.6v2.228h2.5v.66h-2.5v2.642h3.693v.656H463.94Z" transform="translate(-270.013 -94.329)" fill="#0f7078"/>
        <g id="Group_162" data-name="Group 162" transform="translate(200.891 64.391)">
          <path id="Path_255" data-name="Path 255" d="M479.444,158.85h2.094a4.11,4.11,0,0,1,1.442.211,1.786,1.786,0,0,1,.858.66,1.715,1.715,0,0,1,.314.993,1.582,1.582,0,0,1-.373,1.047,2.236,2.236,0,0,1-1.132.687l1.662,3.239H483.6l-1.613-3.1H480.1v3.1h-.665V158.85Zm.665.589v2.556h1.456a3.292,3.292,0,0,0,1.056-.175,1.1,1.1,0,0,0,.584-.427,1.223,1.223,0,0,0,.207-.7,1.151,1.151,0,0,0-.4-.9,1.748,1.748,0,0,0-1.2-.355h-1.7Z" transform="translate(-479.44 -158.72)" fill="#0f7078"/>
          <path id="Path_256" data-name="Path 256" d="M495.759,163.614a2.457,2.457,0,0,0,.252.629,1.8,1.8,0,0,0,.62.584,1.873,1.873,0,0,0,.93.22,1.717,1.717,0,0,0,1.2-.391,1.2,1.2,0,0,0,.436-.925,1.068,1.068,0,0,0-.4-.831,3.592,3.592,0,0,0-1.217-.521,4.65,4.65,0,0,1-1.766-.827,1.473,1.473,0,0,1-.526-1.15,1.715,1.715,0,0,1,.589-1.3,2.178,2.178,0,0,1,1.545-.544,2.791,2.791,0,0,1,1.1.216,2.191,2.191,0,0,1,.863.647,2.284,2.284,0,0,1,.382.777l-.692.211a1.75,1.75,0,0,0-.607-.934,1.667,1.667,0,0,0-1.033-.323,1.5,1.5,0,0,0-1.024.346,1.052,1.052,0,0,0-.386.818.972.972,0,0,0,.315.705,3.393,3.393,0,0,0,1.37.62,4.2,4.2,0,0,1,1.739.836,1.65,1.65,0,0,1,.472,1.2,1.815,1.815,0,0,1-.647,1.4,2.473,2.473,0,0,1-1.716.58,2.828,2.828,0,0,1-1.222-.265,2.377,2.377,0,0,1-.9-.732,2.474,2.474,0,0,1-.386-.867Z" transform="translate(-488.032 -158.56)" fill="#0f7078"/>
        </g>
        <rect id="Rectangle_93" data-name="Rectangle 93" width="0.665" height="6.838" transform="translate(215.716 64.521)" fill="#0f7078"/>
        <path id="Path_257" data-name="Path 257" d="M520.01,158.85h5.014v.651h-2.165v6.186h-.665V159.5H520.01Z" transform="translate(-300.894 -94.329)" fill="#0f7078"/>
        <path id="Path_258" data-name="Path 258" d="M535.06,158.85h.737l1.828,3.172,1.833-3.172h.728l-2.228,3.864v2.974h-.665v-2.974Z" transform="translate(-309.182 -94.329)" fill="#0f7078"/>
        <line id="Line_1" data-name="Line 1" x1="139.541" transform="translate(92.536 43.24)" fill="none" stroke="#0f7078" stroke-miterlimit="10" stroke-width="1"/>
        <g id="Group_163" data-name="Group 163" transform="translate(0 0)">
          <path id="Path_259" data-name="Path 259" d="M116.217,57.2A41.973,41.973,0,1,1,74.239,15.23,41.957,41.957,0,0,1,116.217,57.2" transform="translate(-32.27 -15.23)" fill="#c39843"/>
          <path id="Path_260" data-name="Path 260" d="M116.46,62.622A37.29,37.29,0,1,1,79.172,25.33,37.3,37.3,0,0,1,116.46,62.622" transform="translate(-37.563 -20.793)" fill="#dbdbde"/>
          <path id="Path_261" data-name="Path 261" d="M118.918,76.817A26.189,26.189,0,1,1,92.731,50.63a26.195,26.195,0,0,1,26.187,26.187" transform="translate(-51.144 -34.727)" fill="#0f7078"/>
          <path id="Path_262" data-name="Path 262" d="M83.606,97.156a34.6,34.6,0,0,1-24.17-60.285l.44.49a34.107,34.107,0,1,0,43.294-1.509l.4-.521A34.41,34.41,0,0,1,83.606,97.156" transform="translate(-40.932 -26.3)" fill="#c39843"/>
          <path id="Path_263" data-name="Path 263" d="M60.65,152.81l3.068-2.74.512.575-1.366,1.213,0,0a8.609,8.609,0,0,1,1.06-.292l.93-.22.575.642-1.995.418-1.047,2.354-.571-.647.728-1.622-.512.094-.881.786Z" transform="translate(-47.9 -89.493)" fill="#005773"/>
        </g>
        <rect id="Rectangle_94" data-name="Rectangle 94" width="4.115" height="0.768" transform="translate(14.919 65.682) rotate(-45.243)" fill="#005773"/>
        <g id="Group_164" data-name="Group 164" transform="translate(16.119 63.744)">
          <path id="Path_264" data-name="Path 264" d="M72.229,158.328l.584.5-2.687,3.109-.611-.526.5-1.5a14.383,14.383,0,0,1,.656-1.595l-.009-.009c-.2.274-.449.611-.705.943s-.508.647-.723.889l-.5.589-.584-.5,2.691-3.113.6.521-.526,1.518a14.285,14.285,0,0,1-.656,1.6l.009,0c.22-.3.467-.62.705-.934s.485-.62.728-.9Z" transform="translate(-68.15 -157.12)" fill="#005773"/>
          <path id="Path_265" data-name="Path 265" d="M75.994,163.529c.638-.836,1.159-1.424,2.156-.705a1.114,1.114,0,0,1,.53,1.474,2.387,2.387,0,0,1-.256.427l-.62-.445c.234-.35.4-.629-.013-.952-.49-.355-.867.265-1.051.521l-.66.93c-.2.274-.5.746-.067,1.047.355.256.746-.045,1.087-.557l-.436-.31.355-.49,1.042.741-1.285,1.8-.472-.337.274-.386-.009,0a.779.779,0,0,1-.921.045c-1.024-.732-.633-1.433,0-2.327Z" transform="translate(-71.933 -160.083)" fill="#005773"/>
        </g>
        <path id="Path_266" data-name="Path 266" d="M89.37,173.846l1.676-3.756,1.99.89-.252.548-1.28-.575-.427.952,1.208.539-.247.553-1.208-.544-.759,1.707Z" transform="translate(-63.718 -100.519)" fill="#005773"/>
        <g id="Group_165" data-name="Group 165" transform="translate(27.817 70.757)">
          <path id="Path_267" data-name="Path 267" d="M94.19,176.27l2.314-3.54.979.35-.512,4.187-.773-.279.162-1.051-.845-.3-.544.907Zm1.635-1.159.62.216.2-1.168c.031-.2.076-.373.121-.562.027-.09.045-.184.063-.27l-.009,0a1.857,1.857,0,0,0-.117.252c-.09.175-.166.341-.265.508Z" transform="translate(-94.19 -172.73)" fill="#005773"/>
        </g>
        <path id="Path_268" data-name="Path 268" d="M101.63,178.313l1.141-3.953.737.211-1.137,3.953Z" transform="translate(-70.47 -102.871)" fill="#005773"/>
        <g id="Group_166" data-name="Group 166" transform="translate(32.873 71.974)">
          <path id="Path_269" data-name="Path 269" d="M107.49,176.9c.081-.359.13-.723-.283-.809-.252-.058-.436.009-.494.283-.067.305.1.467.3.669a7.328,7.328,0,0,1,.768.858,1.073,1.073,0,0,1,.153.916,1.13,1.13,0,0,1-1.492.885,1.1,1.1,0,0,1-.952-1.487l.067-.3.75.166-.054.238c-.1.382-.045.692.328.773a.422.422,0,0,0,.566-.368.63.63,0,0,0-.18-.6,6.194,6.194,0,0,1-.984-1.186,1.177,1.177,0,0,1-.058-.656c.153-.687.62-.979,1.415-.8,1.191.261.957,1.173.876,1.577Z" transform="translate(-105.443 -175.439)" fill="#005773"/>
          <path id="Path_270" data-name="Path 270" d="M111.61,180.7l1.509-3.949,1.024.135.391,4.2-.813-.108-.067-1.06-.894-.117-.332,1.006Zm1.348-1.478.651.085-.054-1.186c-.013-.2,0-.382,0-.575,0-.094.009-.184.009-.274h-.009c-.022.081-.045.175-.063.265-.045.189-.085.373-.148.557Z" transform="translate(-108.84 -176.161)" fill="#005773"/>
        </g>
        <path id="Path_271" data-name="Path 271" d="M119.5,181.441l.2-4.111.768.036-.175,3.509,1.424.072-.031.606Z" transform="translate(-80.312 -104.507)" fill="#005773"/>
        <g id="Group_167" data-name="Group 167" transform="translate(45.9 71.624)">
          <path id="Path_272" data-name="Path 272" d="M136.259,176.4l.764-.112.418,2.839c.135.9-.094,1.375-1.087,1.518s-1.361-.238-1.5-1.137l-.418-2.839.755-.112.413,2.772c.058.391.144.777.656.7.494-.076.467-.467.409-.863Z" transform="translate(-134.44 -175.558)" fill="#005773"/>
          <path id="Path_273" data-name="Path 273" d="M143.238,174.844l.741-.184.984,3.994-.782.193-.93-1.28a14.313,14.313,0,0,1-.921-1.456h-.013c.112.319.238.719.359,1.119s.238.791.314,1.11l.184.75-.746.184-.979-3.994.773-.193.939,1.312a12.926,12.926,0,0,1,.921,1.46l.013,0c-.117-.355-.238-.741-.355-1.119s-.225-.755-.31-1.114Z" transform="translate(-138.301 -174.66)" fill="#005773"/>
        </g>
        <path id="Path_274" data-name="Path 274" d="M149.679,177.831l-1.249-3.917.728-.234,1.258,3.922Z" transform="translate(-96.245 -102.497)" fill="#005773"/>
        <g id="Group_168" data-name="Group 168" transform="translate(53.285 70.051)">
          <path id="Path_275" data-name="Path 275" d="M152.749,171.461l.764-.3.674,4.156-.957.373-2.35-3.5.768-.3,1.411,2.278a5.887,5.887,0,0,1,.341.62,3.225,3.225,0,0,1,.153.305l.009,0c-.04-.108-.063-.225-.094-.328-.063-.229-.126-.458-.166-.687Z" transform="translate(-150.88 -171.16)" fill="#005773"/>
        </g>
        <path id="Path_276" data-name="Path 276" d="M159.2,173.375l-1.806-3.7,1.945-.948.261.544-1.249.606.454.934,1.15-.566.27.548-1.155.562.562,1.137,1.244-.615.27.544Z" transform="translate(-101.18 -99.77)" fill="#005773"/>
        <g id="Group_169" data-name="Group 169" transform="translate(58.546 66.035)">
          <path id="Path_277" data-name="Path 277" d="M164.454,168.646l.912,1.518-.66.4-2.116-3.531,1.249-.75c.571-.341,1.119-.4,1.509.247.234.382.373.849-.031,1.177l0,0a.643.643,0,0,1,.889.337c.09.144.589,1.024.813,1.029l.04.063-.723.436a3.794,3.794,0,0,1-.607-.849c-.135-.211-.305-.512-.571-.445a2.306,2.306,0,0,0-.589.288Zm-.31-.517.517-.31c.207-.144.292-.386.081-.741-.234-.4-.44-.359-.692-.216l-.49.3Z" transform="translate(-162.59 -164.32)" fill="#005773"/>
          <path id="Path_278" data-name="Path 278" d="M171.015,163.338c-.216-.3-.454-.575-.8-.323a.355.355,0,0,0-.117.557c.189.256.413.238.705.216a7.561,7.561,0,0,1,1.15,0,1.053,1.053,0,0,1,.782.494,1.126,1.126,0,0,1-.323,1.7,1.108,1.108,0,0,1-1.748-.274l-.18-.243.62-.454.139.193c.225.337.49.5.8.274a.424.424,0,0,0,.1-.669.633.633,0,0,0-.566-.261,6.047,6.047,0,0,1-1.536-.049,1.093,1.093,0,0,1-.53-.4,1.02,1.02,0,0,1,.337-1.586,1.11,1.11,0,0,1,1.757.386Z" transform="translate(-166.267 -162.22)" fill="#005773"/>
        </g>
        <path id="Path_279" data-name="Path 279" d="M176.568,163.138l-2.628-3.158.593-.49,2.624,3.167Z" transform="translate(-110.295 -94.681)" fill="#005773"/>
        <path id="Path_280" data-name="Path 280" d="M175.91,156.828l1.869-1.748.418.44-.656.611,2.4,2.565-.557.526-2.4-2.565-.651.615Z" transform="translate(-111.38 -92.253)" fill="#005773"/>
        <g id="Group_173" data-name="Group 173" transform="translate(8.81 8.217)">
          <path id="Path_281" data-name="Path 281" d="M181.768,152.2a2.858,2.858,0,0,1,.589.288l0-.009a3.242,3.242,0,0,1-.4-.71l-.44-.9.562-.62,1.02,2.395,1.289,1.177-.512.571-1.3-1.182-2.466-.8.566-.624Z" transform="translate(-122.503 -97.809)" fill="#005773"/>
          <path id="Path_282" data-name="Path 282" d="M170.093,56.888c-.409-.364-.611-.539-1.033-.881l.517-.638c.431.35.642.53,1.06.9-.22.243-.328.368-.544.615" transform="translate(-116.417 -45.554)" fill="#005773"/>
          <path id="Path_283" data-name="Path 283" d="M174.085,60.6c-.386-.4-.58-.593-.975-.975.225-.238.337-.355.566-.6.409.391.611.589,1,1-.238.229-.359.341-.593.571" transform="translate(-118.648 -47.57)" fill="#005773"/>
          <path id="Path_284" data-name="Path 284" d="M75.138,59.387c-.4.377-.593.571-.979.966l-.589-.571c.4-.409.593-.606,1.006-.993l.562.6" transform="translate(-63.826 -47.437)" fill="#005773"/>
          <path id="Path_285" data-name="Path 285" d="M69.11,61.808c-.3.328-.449.508-.458.526a2.3,2.3,0,0,1,.067,1.186,3.153,3.153,0,0,1-.606,1.182,2.479,2.479,0,0,1-.8.7.816.816,0,0,1-.881.063,1.8,1.8,0,0,1-.642-.979,2.2,2.2,0,0,1-.135-.881l.171.1c.018.1.036.207.054.314a.763.763,0,0,0,.292.44.723.723,0,0,0,.535.175c.3-.054.638-.35,1.042-.863a4.146,4.146,0,0,0,.332-.517,2.727,2.727,0,0,0,.243-.544c0,.013-.809-.512-2.466-1.509a9.816,9.816,0,0,1-.139-1.092,3.279,3.279,0,0,1,1.128.651c.229.166.467.377.7.544.373.274.651.328.773.166l.2-.22c.238.22.359.332.6.553" transform="translate(-59.46 -48.164)" fill="#005773"/>
          <path id="Path_286" data-name="Path 286" d="M73.2,61.33c-.386.4-.575.6-.952,1.015-.243-.22-.364-.332-.611-.553.382-.427.575-.633.975-1.042.234.234.35.346.589.58" transform="translate(-62.763 -48.517)" fill="#005773"/>
          <path id="Path_287" data-name="Path 287" d="M80.794,50.873a25.789,25.789,0,0,0-3.787,2.862.732.732,0,0,1-.62.054,2.92,2.92,0,0,1,.076.436c-.135.126-.2.189-.337.319-.225-.238-.337-.359-.566-.6.193-.184.292-.279.49-.458.09-.085-.112-.292-.193-.49a6.281,6.281,0,0,1,.13-.8.333.333,0,0,1,.18.117.713.713,0,0,1,.121.225c.054.135.09.22.1.252a.179.179,0,0,0,.18.108.43.43,0,0,0,.247-.117,1.708,1.708,0,0,0,.3-.472c.144-.292.211-.44.359-.732a8.213,8.213,0,0,1,.517-.845,3.2,3.2,0,0,1,.678-.737,1.116,1.116,0,0,1,.71-.184.726.726,0,0,1,.615.288.716.716,0,0,1,.058.279l.292-.189c.189.274.279.413.454.687m-1.352-.081a1.039,1.039,0,0,0-1.029.193,2.146,2.146,0,0,0-.53.647c-.067.126-.175.31-.31.557a23.229,23.229,0,0,1,1.869-1.4" transform="translate(-64.922 -42.489)" fill="#005773"/>
          <path id="Path_288" data-name="Path 288" d="M88.952,47.113c-.193.1-.292.153-.485.256a.661.661,0,0,1-.845-.117c-.013.166-.031.373-.049.62-.49.283-.728.431-1.208.741-.18-.274-.265-.413-.445-.687.575-.373.863-.548,1.456-.89a6.517,6.517,0,0,1-.256-.611,3.177,3.177,0,0,1,.126-.449,3.23,3.23,0,0,1,.148-.427,3.611,3.611,0,0,1,.377.849.243.243,0,0,0,.234.166.608.608,0,0,0,.355-.067c.085-.045.13-.072.22-.112.144.292.22.436.373.728m.04.9c-.072.427-.135.651-.193.683a4.56,4.56,0,0,1-.768.04c-.049.139-.094.292-.139.463a2.858,2.858,0,0,1-.391.058,1.218,1.218,0,0,1-.382.009c.045-.162.094-.391.166-.687a1.769,1.769,0,0,0,.364,0A1.158,1.158,0,0,0,88,48.533a.708.708,0,0,0,.1-.234c.054-.166.09-.256.1-.274.314-.009.476-.013.791-.013" transform="translate(-70.628 -40.145)" fill="#005773"/>
          <path id="Path_289" data-name="Path 289" d="M93.307,42.289a3.565,3.565,0,0,1,.13.5,1.416,1.416,0,0,1,.063.593A25.947,25.947,0,0,0,90.89,44.6c-.153-.288-.229-.436-.382-.728.921-.481,1.388-.705,2.341-1.11a1.159,1.159,0,0,0-.18-.27q-.155-.182-.256-.189-.067.142-.121.283a1.468,1.468,0,0,1-1.15.575c-.234,0-.386-.067-.454-.2a1.189,1.189,0,0,1,.1-.907,1.6,1.6,0,0,1,.8-.934,1.014,1.014,0,0,1,1.074.31,2.322,2.322,0,0,1,.647.863m-2.359-1.312c.013.027-.049.144-.184.341a1.28,1.28,0,0,1-.265.332,1.779,1.779,0,0,1-.409-.009,1.252,1.252,0,0,1-.373-.054c-.013-.027.036-.153.153-.377a1.181,1.181,0,0,1,.238-.364,2.166,2.166,0,0,1,.431.045,1.627,1.627,0,0,1,.409.085M92,42.033a.708.708,0,0,0-.624-.1.5.5,0,0,0-.234.328,1.6,1.6,0,0,0,.391.013,1.238,1.238,0,0,0,.18-.063,1.639,1.639,0,0,0,.288-.18" transform="translate(-72.718 -37.554)" fill="#005773"/>
          <path id="Path_290" data-name="Path 290" d="M106.284,37.925c-.4.067-.606.1-1.006.184a.108.108,0,0,1-.148-.094c-.031-.166-.049-.247-.085-.413-.094.243-.139.359-.225.6a27.194,27.194,0,0,0-3.005.8,1.048,1.048,0,0,1-.786-.022.88.88,0,0,1-.472-.517,1.757,1.757,0,0,1-.076-.593,1.091,1.091,0,0,1,.121-.58s.009.013.018.027,0,.022.009.036a.9.9,0,0,1,.036.247,1.025,1.025,0,0,0,.045.265A.579.579,0,0,0,101,38.2a.563.563,0,0,0,.472.045,27.287,27.287,0,0,1,3.513-.916c-.288-.773-.436-1.159-.741-1.932a9.8,9.8,0,0,1,.5-.925,3.32,3.32,0,0,1,.472,1.208c.076.27.13.575.207.849.121.436.292.656.476.624.1-.018.148-.027.252-.04.058.328.085.485.139.813m-2.8-2.934a1.193,1.193,0,0,1-.189.566c-.238.234-.782.364-.854.463a1.142,1.142,0,0,0,.584-.049c.247-.058.391-.022.422.108a.651.651,0,0,1-.117.494,1.4,1.4,0,0,1-.854.562c-.067.018-.189.045-.364.076a.9.9,0,0,1-.382.022c0-.009.166-.1.481-.274a2.07,2.07,0,0,0,.548-.359c-.112.022-.283.045-.512.081s-.355-.013-.382-.144c-.04-.171.135-.467.544-.858a2.519,2.519,0,0,1,1.074-.687" transform="translate(-78.647 -34.043)" fill="#005773"/>
          <path id="Path_291" data-name="Path 291" d="M114.8,37.254c-.341.036-.508.058-.849.1a.156.156,0,0,1-.2-.13c-.031-.153-.045-.229-.076-.382a5.8,5.8,0,0,1-.256.584c-.252.036-.382.058-.633.1-.058-.323-.085-.485-.139-.809.391-.067.589-.1.984-.153-.27-.786-.409-1.182-.7-1.963a10.308,10.308,0,0,1,.638-.9,4.38,4.38,0,0,1,.391,1.235c.2.782.3,1.231.31,1.339.013.135.085.193.207.18.09-.009.135-.013.225-.027.04.337.058.5.094.827" transform="translate(-85.349 -33.619)" fill="#005773"/>
          <path id="Path_292" data-name="Path 292" d="M118.265,40.372c-.517.036-.773.058-1.285.117l-.09-.818c.526-.058.791-.081,1.321-.121.018.332.031.5.054.822" transform="translate(-87.684 -36.841)" fill="#005773"/>
          <path id="Path_293" data-name="Path 293" d="M123.274,38.891c-.261-.009-.391-.013-.647-.018-.04,0-.09.054-.139.162s-.112.184-.184.2c-.683-.332-1.033-.49-1.752-.786a.247.247,0,0,0-.108.166.459.459,0,0,1-.085.193.469.469,0,0,1-.323.117l-.472.031c-.027-.328-.036-.49-.063-.818.364-.027.548-.036.912-.054a.178.178,0,0,0,.157-.126,1.689,1.689,0,0,1,.225-.4,1.762,1.762,0,0,1,.656-.431,1.863,1.863,0,0,1,.7-.175.4.4,0,0,1,.261.054.38.38,0,0,1,.027.193.409.409,0,0,0,.036.166,1.892,1.892,0,0,0,.279.413q.222.276.35.283l.207.009c-.013.328-.018.494-.031.822m-1.357-.854c.022-.027,0-.135-.027-.216-.036-.1-.09-.153-.166-.153a.883.883,0,0,0-.476.1c.045.022.135.063.256.121a1.31,1.31,0,0,0,.413.148" transform="translate(-89.122 -35.409)" fill="#005773"/>
          <path id="Path_294" data-name="Path 294" d="M128.909,40.324c-.517-.04-.773-.054-1.289-.076.013-.328.018-.494.031-.818.53.018.8.036,1.321.076-.022.328-.036.494-.063.818" transform="translate(-93.594 -36.775)" fill="#005773"/>
          <path id="Path_295" data-name="Path 295" d="M132.723,34.535c-.341.243-.508.368-.84.62-.009.081-.013.422-.018,1.029a1.914,1.914,0,0,1-.162.508c-.04.085-.1.211-.171.373a.162.162,0,0,1-.135.09.59.59,0,0,1-.153,0,.226.226,0,0,1-.054-.009c-.4-.04-.606-.063-1.011-.09.022-.328.036-.49.063-.818.386.027.575.045.961.085.013,0,.027-.031.031-.09a5.027,5.027,0,0,0-.058-.907c-.036-.305-.054-.458-.094-.768-.09-.063-.184-.144-.292-.234.148-.184.225-.274.382-.458.225-.243.368-.355.431-.35,0,.018,0,.072.013.157a.333.333,0,0,0,.126.252,4.868,4.868,0,0,0,.979.606" transform="translate(-95.004 -33.52)" fill="#005773"/>
          <path id="Path_296" data-name="Path 296" d="M137.6,37.112a1.792,1.792,0,0,1-.737,1.173c.013-.988.013-1.483,0-2.475a1.819,1.819,0,0,1,.4-.449c.238-.229.391-.359.445-.4.013.319.018.553.013.71a9.684,9.684,0,0,1-.126,1.442" transform="translate(-98.683 -34.313)" fill="#005773"/>
          <path id="Path_297" data-name="Path 297" d="M144.242,36.03a2.33,2.33,0,0,1-.719.288,4.01,4.01,0,0,1-.346-.256c-.216-.162-.337-.252-.35-.27-.157.054-.319.121-.485.193a3.739,3.739,0,0,1-.732-.512c.162-.072.4-.189.7-.332a2.1,2.1,0,0,0,.3.27,1.6,1.6,0,0,0,.341.225.736.736,0,0,0,.274-.076,1.982,1.982,0,0,1,.305-.1c.292.225.431.337.714.571m.53,3.733c-.323-.117-.481-.171-.809-.283a.522.522,0,0,1-.377-.409c0-.013-.013-.193-.027-.544-.058,0-.189.09-.373.265a.414.414,0,0,1-.391.144.253.253,0,0,1-.054-.018,7.974,7.974,0,0,0-1.451-.606,1.927,1.927,0,0,1,.314-.5,1.6,1.6,0,0,1,.544-.5,3.465,3.465,0,0,1,.755-.139,3.507,3.507,0,0,0,.7-.117.3.3,0,0,0-.009-.135.279.279,0,0,1,0-.135c.139-.085.4-.274.8-.544a4.248,4.248,0,0,1-.045,1.2,5.624,5.624,0,0,0-.076,1.114.82.82,0,0,0,.5.328c.117.04.175.063.288.1-.108.314-.162.467-.279.773m-1.2-1.6a4.949,4.949,0,0,0,.022-.7.4.4,0,0,0-.157.072,1.358,1.358,0,0,1-.566.184.37.37,0,0,0-.225.081,4.47,4.47,0,0,0,.5.211c.234.081.373.135.427.153" transform="translate(-101.123 -34.412)" fill="#005773"/>
          <path id="Path_298" data-name="Path 298" d="M149.787,44.775c-.485-.2-.728-.288-1.217-.463.108-.31.166-.463.279-.773.5.18.755.274,1.249.476-.126.3-.189.454-.31.759" transform="translate(-105.132 -39.038)" fill="#005773"/>
          <path id="Path_299" data-name="Path 299" d="M154,45.893c-.4-.211-.6-.314-1.006-.508-.013-.1-.036-.261-.081-.485-.09.058-.243.135-.449.238-.584-.27-.876-.4-1.469-.629l.305-.764c.589.234.881.355,1.456.62a.78.78,0,0,0-.144-.305,1.013,1.013,0,0,0-.4-.319,1.847,1.847,0,0,0-.332-.1,1.8,1.8,0,0,1,.328-.238c.184-.117.314-.2.386-.238a.8.8,0,0,1,.337,0,2.15,2.15,0,0,1,.683.18,1.39,1.39,0,0,1,.71.674.613.613,0,0,1,.058.53.537.537,0,0,1-.274.2,1.064,1.064,0,0,0-.274.144c.216.108.323.166.539.279-.148.292-.225.436-.377.728" transform="translate(-106.465 -38.821)" fill="#005773"/>
          <path id="Path_300" data-name="Path 300" d="M160.427,48.869a1.458,1.458,0,0,1-.445.2,1.254,1.254,0,0,1-.44.126c-.413-.476-.629-.714-1.069-1.173-.04-.022-.148.018-.332.126s-.319.135-.418.081c-.184-.1-.274-.148-.463-.243.153-.292.229-.436.377-.728.261.135.386.2.642.341.063-.04.153-.108.279-.193a1.906,1.906,0,0,1,.849-.283,2.422,2.422,0,0,1,.535.031c.058.009.153.022.27.045a1.221,1.221,0,0,1,.422.153c.094.058.148.126.139.184s-.049.184-.076.319c-.022.112-.054.292-.1.526a1.249,1.249,0,0,1-.171.485m-.647-.705c.081-.265.076-.427-.009-.481a.946.946,0,0,0-.494-.117c.207.238.305.355.5.6" transform="translate(-109.918 -41.012)" fill="#005773"/>
          <path id="Path_301" data-name="Path 301" d="M165.968,51.031c-.391-.3-.589-.44-.988-.719-.009-.036.476-.9,1.411-2.61.045-.013.35-.072.921-.162q-.654,1.206-1.321,2.435a1.269,1.269,0,0,0,.319.283c.058.045.094.067.153.117Z" transform="translate(-114.17 -41.241)" fill="#005773"/>
          <path id="Path_302" data-name="Path 302" d="M168.01,55.172c-.418-.346-.629-.512-1.06-.836.2-.265.292-.4.494-.656.44.332.66.5,1.087.858-.207.252-.314.377-.521.633" transform="translate(-115.255 -44.623)" fill="#005773"/>
          <path id="Path_303" data-name="Path 303" d="M172.106,58.7c-.4-.382-.6-.566-1.006-.925.216-.247.328-.373.544-.615.418.368.624.562,1.033.952-.225.234-.341.355-.571.589" transform="translate(-117.541 -46.54)" fill="#005773"/>
          <path id="Path_304" data-name="Path 304" d="M179.434,65.25c-.207-.045-.526-.1-.966-.162.148.207.063.058-.274-.44s-.557-.8-.651-.921a2.6,2.6,0,0,0-.746-.544,2.782,2.782,0,0,1-.728-.494c-.4-.458-.606-.683-1.029-1.114l.589-.575c.49.508.728.768,1.195,1.3a2.362,2.362,0,0,0,.66.584,4.347,4.347,0,0,0-.184-.535,2.56,2.56,0,0,0-.305-.642,2.477,2.477,0,0,0-.7-.485c-.009-.013.094-.022.314-.027a2.629,2.629,0,0,1,.678.054,1.122,1.122,0,0,1,.615.328,2.65,2.65,0,0,1,.4.642,6.562,6.562,0,0,1,.225.669c.094.332.171.593.238.782a9.535,9.535,0,0,0,.66,1.577m-2.7-.566s0,0,0,.009a1.759,1.759,0,0,1-.427-.058,1.8,1.8,0,0,1-.481-.121,3.52,3.52,0,0,1-.243-.97,1.319,1.319,0,0,1,.44.054,1.34,1.34,0,0,1,.449.135s.049.157.121.458a3.63,3.63,0,0,0,.135.494" transform="translate(-119.711 -48.655)" fill="#005773"/>
          <path id="Path_305" data-name="Path 305" d="M184.654,92.3c.09,0,.171.144.243.427s.157.714.252,1.28l.009.108v.054c0,.2-.045.3-.139.3H185c-.112,0-.171-.094-.184-.279s-.112-.759-.305-1.716v-.022a.155.155,0,0,1,.144-.148" transform="translate(-124.926 -65.893)" fill="#0f7078"/>
          <path id="Path_306" data-name="Path 306" d="M186.743,92.22c.045,0,.112.067.207.207a.47.47,0,0,0,.328.225.182.182,0,0,0,.171-.207c0-.117.027-.171.1-.162h.031c.049,0,.1.072.139.211s.1.22.18.238a.128.128,0,0,0,.162-.094.5.5,0,0,0,.036-.238.118.118,0,0,1,.09-.139c.067-.013.108.022.13.108a.929.929,0,0,1-.027.368A.311.311,0,0,1,188,93a.374.374,0,0,1-.373-.216h-.009a.292.292,0,0,1-.4.184,5.705,5.705,0,0,1,.3,1.06l.045.27c0,.072-.045.117-.139.135H187.4c-.085,0-.135-.063-.148-.184a6.683,6.683,0,0,0-.332-1.195c-.094-.2-.2-.4-.323-.611l-.009-.045v-.018c0-.09.054-.139.153-.157" transform="translate(-126.072 -65.849)" fill="#0f7078"/>
          <path id="Path_307" data-name="Path 307" d="M191.782,92.26c.31,0,.548.225.723.669q.162,0,.162.135V93.1a.184.184,0,0,1-.063.108,2.337,2.337,0,0,0,.341.966l.022.117c0,.076-.054.126-.162.153-.13,0-.261-.193-.386-.58l-.144-.575a1.869,1.869,0,0,1-.332.036h-.135a.574.574,0,0,1-.571-.314l-.018-.126a.682.682,0,0,1,.364-.575.709.709,0,0,1,.2-.049m-.247.58c0,.094.108.144.332.144h.045l.256-.018v-.009c-.112-.261-.234-.386-.364-.386s-.22.085-.27.252v.018Z" transform="translate(-128.622 -65.871)" fill="#0f7078"/>
          <path id="Path_308" data-name="Path 308" d="M195.9,93.59h.036a1.731,1.731,0,0,1,1.208.544.762.762,0,0,1,.184.445v.094c0,.247-.18.4-.535.467-.827.027-1.253-.081-1.285-.31l-.009-.04a1.069,1.069,0,0,1,.553-.831h.009v-.009c-.2-.009-.305-.054-.305-.139l-.009-.054c.013-.112.063-.166.153-.166m.553.476a1.583,1.583,0,0,0-.44.31.633.633,0,0,0-.216.449,3.563,3.563,0,0,0,1.015.036h.018c.144-.018.211-.067.211-.157l.009-.036c0-.153-.148-.328-.44-.526a.448.448,0,0,0-.157-.076" transform="translate(-130.979 -66.604)" fill="#0f7078"/>
          <path id="Path_309" data-name="Path 309" d="M60.167,91.644a4.061,4.061,0,0,1-.638,1.438,5.911,5.911,0,0,0-.615,1.15l-.323-.04a4.294,4.294,0,0,1,.606-1.114,4.081,4.081,0,0,0,.615-1.173c-.252,0-.624.013-1.119.045l.045-.31h1.429Z" transform="translate(-55.576 -65.53)" fill="#0f7078"/>
          <path id="Path_310" data-name="Path 310" d="M63.851,91.644l-.04.3a6.553,6.553,0,0,0-.849-.049c-.027.094-.063.319-.112.665.665,0,1,.216,1,.647a.9.9,0,0,1-.44.782,1.874,1.874,0,0,1-.984.31l-.027-.229a1.771,1.771,0,0,0,.777-.229.6.6,0,0,0,.332-.553.376.376,0,0,0-.216-.373,1.953,1.953,0,0,0-.755-.1c.063-.265.139-.656.225-1.168h1.087Z" transform="translate(-57.674 -65.53)" fill="#0f7078"/>
          <path id="Path_311" data-name="Path 311" d="M84.3,64.4l-.5.494-4.322,1.267,2.138,2.6a1.544,1.544,0,0,1-.539.341c-.22.04-.328.31-.386.445s-.171.481-.422.553-1.033.211-1.033.211-.355.072-.4.166-.328.535-.409.678a2.759,2.759,0,0,1-.494.458c-.1.085-.62.481-.62.481l-2.5-.283a1.829,1.829,0,0,1-.058.575,3.036,3.036,0,0,0-.225.809,3.619,3.619,0,0,1-.094.9c-.054.157-.27.575-.27.575s-.171.2.081.225.539.067.692.072a1.009,1.009,0,0,1,.6.283c.081.13.66,1.168.764,1.316s.386.382.445.472.04.2.072.341a3.815,3.815,0,0,0,.458.705c.063.081.184.377.283.445a1.351,1.351,0,0,1,.305.292c.058.094.211.642.292.764a2.151,2.151,0,0,0,.305.364c.108.094.409.166.328.292s-.211.216-.139.328a1.476,1.476,0,0,0,.4.319,2.033,2.033,0,0,1,.467.647c.108.2.346.413.4.611a1.9,1.9,0,0,1,.067.611,1.592,1.592,0,0,0-.081.328.346.346,0,0,0,.117.364c.148.117.382.377.364.526a.334.334,0,0,0,.1.341.549.549,0,0,0,.377.117.485.485,0,0,1,.283.139c.076.054.144.045.364.153a4.924,4.924,0,0,1,.858.553,3.748,3.748,0,0,1,.386.633c.036.148.054.3.139.341s.189.076.211.225a2.381,2.381,0,0,0,.211.714c.1.162.058.3.144.436a3.055,3.055,0,0,1,.5.881,1.755,1.755,0,0,1,.022.831c-.072.234-.126.539-.144.611a.273.273,0,0,0,.045.341.968.968,0,0,1,.225.413c.027.108.261.5.139.647s-.175.238-.081.413a11.733,11.733,0,0,0,.6,1.056c.135.162.589.822.656.916a1.192,1.192,0,0,0,.481.341,1.587,1.587,0,0,1,.562.175,3.3,3.3,0,0,0,.445.328c.112.063.377.247.377.247s.027.3.117.364.274-.058.364.1.054.31.234.4a.35.35,0,0,1,.2.355c0,.094-.018.234.1.27s.1.139.117.305.153.18.225.3.022.211.022.314a2.434,2.434,0,0,0,.094.539.625.625,0,0,0,.314.305c.1.045.2.436.27.589a6.8,6.8,0,0,0,.633.984,3.356,3.356,0,0,0,.633.566c.225.139.548.314.589.517a1.817,1.817,0,0,0,.175.647c.117.166.247.364.314.481s.292.3.328.436.076.256.1.341.1.481.1.481l.364-.058s.027-.148.117-.175a1.125,1.125,0,0,0,.256-.108c.063-.04.009-.243.094-.247s.265.067.247-.081,0-.247-.117-.332-.256-.252-.189-.305.247-.058.189-.234-.135-.238-.072-.319a1.747,1.747,0,0,1,.211-.189.176.176,0,0,0,.022-.256.21.21,0,0,1,.058-.292.369.369,0,0,1,.364-.058c.121.058.135.009.27.166a.65.65,0,0,0,.431.256c.166.018.216.063.341.013s.112-.139.305-.139,2.323,0,2.323,0a1.46,1.46,0,0,1,.386.108,1,1,0,0,0,.611.2c.323-.013,1.186.076,1.384.081a5.106,5.106,0,0,0,.831-.036c.189-.036.4-.126.472.013a5.786,5.786,0,0,0,.341.494.383.383,0,0,0,.27.175,1.936,1.936,0,0,0,.413.013,1.544,1.544,0,0,0,.4-.305c.121-.135.238-.184.283-.341a1.57,1.57,0,0,1,.189-.553c.094-.085,1.325-1.68,1.325-1.68l1.972-.975s.526-.063.858-.094,2.318-.252,2.889-.319,2.529-.49,2.655-.517,6.608-2.314,6.608-2.314a1.531,1.531,0,0,0,.27-.539c.076-.305,1.339-4.245,1.339-4.245l-.961-1.622-6.011-.647-2.053-2.866-.036-.422s-.422-.027-.606-.063-.09-.238-.04-.332-.081-.139-.314-.1-.386.108-.526-.175-.274-.49-.274-.49-.229-.377-.391-.606a.87.87,0,0,1-.234-.526c0-.18.049-.512-.234-.606a.713.713,0,0,1-.508-.431c-.045-.175-.422-.858-.373-1.074s.117-.49.117-.49.238-.328.1-.431-.288-.229-.256-.332.175-.386-.058-.53a5.151,5.151,0,0,1-.624-.431c-.117-.1-.3-.49-.449-.409s-.247,0-.332-.117-.288-.261-.279-.449.036-.35-.157-.413-.144-.108-.314-.175-.238-.139-.355-.1-.234-.328-.076-.35.153-.112-.04-.35a2.347,2.347,0,0,1-.35-.589c-.076-.175-.431-.979-.431-.979h-1.721l-.526-1.173-6.024-.512-5.912-4.973s-1.433-.642-1.662-.782-1.882-1.235-1.995-1.312S84.3,64.4,84.3,64.4" transform="translate(-64.12 -50.527)" fill="#c39843"/>
          <path id="Path_312" data-name="Path 312" d="M128.812,132.579a2.362,2.362,0,0,0-2.408-2.219,5.849,5.849,0,0,0-1.465.225,20.446,20.446,0,0,0-4.142,1.793l-.332.189-.332-.189c-.144-.081-3.527-2.017-5.611-2.017a2.362,2.362,0,0,0-2.408,2.219l-.013.265h16.726ZM115.6,131.092a40.771,40.771,0,0,1,4.084,1.406,36.456,36.456,0,0,0-5.5-1.285,2.883,2.883,0,0,0-1.932.737,1.89,1.89,0,0,1,1.864-1.092,5.975,5.975,0,0,1,1.483.234m9.735,0a5.773,5.773,0,0,1,1.483-.234,1.886,1.886,0,0,1,1.864,1.092,2.885,2.885,0,0,0-1.932-.737,36.275,36.275,0,0,0-5.494,1.285,40.3,40.3,0,0,1,4.079-1.406" transform="translate(-85.046 -86.855)" fill="#fff"/>
          <path id="Path_313" data-name="Path 313" d="M121.847,76.636a25.907,25.907,0,0,1,6.8,2.574,30.647,30.647,0,0,0-5.548-.553,20.064,20.064,0,0,1,5.306,6.4,51.473,51.473,0,0,0-6.222-4.672,19.212,19.212,0,0,1,1.563,8.8,50.293,50.293,0,0,0-3.733-8.491c-.04,6.069-.952,13.877-.952,16.186,0-2.058-1.141-10.054-1.182-16.2a47.11,47.11,0,0,0-3.733,8.5,20.768,20.768,0,0,1,1.617-8.846,48.377,48.377,0,0,0-6.276,4.717,21.579,21.579,0,0,1,5.391-6.415,32.936,32.936,0,0,0-5.89.593,34.016,34.016,0,0,1,6.752-2.556,42.961,42.961,0,0,0-4.578-5.211,50.011,50.011,0,0,1,6.721,3.634c-.085-.921,1.074-7.844,1.074-7.844s.984,6.5.984,7.853c3.581-2.781,5.508-3.531,5.876-3.634a39.74,39.74,0,0,0-3.971,5.157" transform="translate(-83.333 -52.102)" fill="#fff"/>
          <path id="Path_314" data-name="Path 314" d="M122.729,156.649h-1.11l-1.137-1.694a1.669,1.669,0,0,1-.1-.216h-.013v1.9h-.876v-3.679c0-.148.193-.216.193-.216h.683v1.842h.013q.034-.074.108-.216l1.078-1.626h1.047l-1.357,1.855Z" transform="translate(-89.116 -99.186)" fill="#fff"/>
          <path id="Path_315" data-name="Path 315" d="M129.788,153.474h-1.375v.957h1.262v.71h-1.262v1.514h-.876s0-3.706,0-3.751a.187.187,0,0,1,.121-.144h2.129Z" transform="translate(-93.547 -99.191)" fill="#fff"/>
          <path id="Path_316" data-name="Path 316" d="M137.1,154.96c0,1.168-.544,1.757-1.635,1.757q-1.584,0-1.586-1.716V152.75h.881v2.26q0,.943.741.943c.481,0,.723-.306.723-.912V152.75h.876Z" transform="translate(-97.042 -99.186)" fill="#fff"/>
          <path id="Path_317" data-name="Path 317" d="M137.614,128.552a5.031,5.031,0,0,1,1.3-.364,1.745,1.745,0,0,1,1.81.8,2.662,2.662,0,0,0-1.833-.467,17.734,17.734,0,0,0-3.545,1.217,16.077,16.077,0,0,1,2.264-1.182" transform="translate(-97.851 -85.648)" fill="#fff"/>
          <path id="Path_318" data-name="Path 318" d="M117.243,128.552a15.188,15.188,0,0,1,2.264,1.182,17.734,17.734,0,0,0-3.545-1.217,2.687,2.687,0,0,0-1.833.467,1.745,1.745,0,0,1,1.81-.8,5.474,5.474,0,0,1,1.3.364" transform="translate(-86.164 -85.648)" fill="#fff"/>
          <g id="Group_172" data-name="Group 172" transform="translate(0 26.115)">
            <g id="Group_170" data-name="Group 170" clip-path="url(#clip-path)">
              <path id="Path_319" data-name="Path 319" d="M52.518,93.6H52.2c.036-.252.072-.508.1-.777.031-.288.045-.508.049-.656l-.409.2-.063-.153.66-.472h.175c-.054.382-.094.746-.13,1.078-.027.256-.049.512-.067.777" transform="translate(-51.88 -91.7)" fill="#127178"/>
            </g>
            <g id="Group_171" data-name="Group 171" clip-path="url(#clip-path)">
              <path id="Path_320" data-name="Path 320" d="M55.867,92.56a.907.907,0,0,0-.112-.49.343.343,0,0,0-.283-.166.407.407,0,0,0-.341.171.652.652,0,0,0-.13.4.533.533,0,0,0,.112.346.4.4,0,0,0,.332.144.5.5,0,0,0,.413-.207c0-.063.009-.126.009-.193m.31-.049a2.05,2.05,0,0,1-.355,1.226,1.315,1.315,0,0,1-1.051.544l-.031-.216a1.158,1.158,0,0,0,1.092-1.114h-.013a.672.672,0,0,1-.557.252.5.5,0,0,1-.422-.193.732.732,0,0,1-.148-.463.88.88,0,0,1,.234-.62.768.768,0,0,1,.6-.256.6.6,0,0,1,.467.216.91.91,0,0,1,.189.624" transform="translate(-53.428 -91.661)" fill="#127178"/>
            </g>
          </g>
        </g>
      </g>
      <g id="Group_175" data-name="Group 175" transform="translate(126.203 88.017)">
        <path id="Path_321" data-name="Path 321" d="M242.564,190.208a.579.579,0,0,1-.166.445.689.689,0,0,1-.876,0,.565.565,0,0,1-.162-.427.62.62,0,0,1,1.033-.449.562.562,0,0,1,.171.431" transform="translate(-241.36 -184.063)" fill="#c39843"/>
        <path id="Path_322" data-name="Path 322" d="M248.2,190.208a.58.58,0,0,1-.166.445.682.682,0,0,1-.872,0,.565.565,0,0,1-.162-.427.559.559,0,0,1,.6-.606.617.617,0,0,1,.436.157.59.59,0,0,1,.162.431" transform="translate(-244.466 -184.063)" fill="#c39843"/>
        <path id="Path_323" data-name="Path 323" d="M253.5,179.851a.462.462,0,0,1,.144-.337.494.494,0,0,1,.7,0,.458.458,0,0,1,.139.337.484.484,0,0,1-.139.355.464.464,0,0,1-.35.144.475.475,0,0,1-.346-.144.488.488,0,0,1-.144-.355m.314,4.537c.027-.18.049-.355.063-.526s.022-.341.022-.512c0-.234-.013-.467-.036-.692s-.049-.449-.076-.665h-.481a1.117,1.117,0,0,0-.359.067,1.009,1.009,0,0,0-.368.229,1.369,1.369,0,0,0-.288.422,1.573,1.573,0,0,0-.117.656,2.925,2.925,0,0,0,.049.521,2.147,2.147,0,0,0,.171.5h1.42Zm-1.689-4.537a.462.462,0,0,1,.144-.337.475.475,0,0,1,.346-.144.493.493,0,0,1,.35.144.45.45,0,0,1,.148.337.475.475,0,0,1-.148.355.493.493,0,0,1-.35.144.475.475,0,0,1-.346-.144.488.488,0,0,1-.144-.355m2.529,1.465c.049.35.09.71.121,1.083s.045.759.045,1.15c0,.139,0,.279-.009.413s-.013.274-.027.422h.854a.229.229,0,0,1,.166.049.232.232,0,0,1,.045.162v.247c0,.144-.067.22-.211.22h-4.052a3.763,3.763,0,0,1-.247-.75,3.59,3.59,0,0,1-.09-.777,2.356,2.356,0,0,1,.171-.912,2.191,2.191,0,0,1,.463-.7,2,2,0,0,1,.674-.445,2.137,2.137,0,0,1,.8-.157h1.294Z" transform="translate(-246.807 -178.418)" fill="#c39843"/>
        <path id="Path_324" data-name="Path 324" d="M263.716,186.778a2.019,2.019,0,0,0,.171-.5,2.537,2.537,0,0,0,.054-.521,1.617,1.617,0,0,0-.117-.656,1.3,1.3,0,0,0-.292-.422,1.047,1.047,0,0,0-.368-.229,1.092,1.092,0,0,0-.355-.067h-.481c-.027.22-.054.44-.076.665a6.919,6.919,0,0,0-.036.692,7.533,7.533,0,0,0,.076,1.038h1.424Zm-3.266.674c-.081,0-.126-.018-.148-.058a.367.367,0,0,1-.031-.153v-.279a.24.24,0,0,1,.031-.135.172.172,0,0,1,.144-.049h.867q-.027-.431-.027-.836c0-.4.014-.777.045-1.15s.067-.732.112-1.083h1.289a2.148,2.148,0,0,1,.813.157,2,2,0,0,1,.674.445,2.119,2.119,0,0,1,.463.7,2.293,2.293,0,0,1,.175.912,3.342,3.342,0,0,1-.094.777,4.733,4.733,0,0,1-.243.75Z" transform="translate(-251.775 -180.808)" fill="#c39843"/>
        <rect id="Rectangle_97" data-name="Rectangle 97" width="0.943" height="6.644" transform="translate(14.291)" fill="#c39843"/>
        <path id="Path_325" data-name="Path 325" d="M281.642,186.9a1.077,1.077,0,0,1-.305-.256,1.32,1.32,0,0,1-.189-.323,2.056,2.056,0,0,1-.094-.306,1.189,1.189,0,0,1-.157.512.946.946,0,0,1-.66.449,2.457,2.457,0,0,1-.4.036h-2.2v-.674h2.085c.18,0,.3-.045.341-.13a.972.972,0,0,0,.072-.427v-.656a4.834,4.834,0,0,0-.045-.651,1.444,1.444,0,0,0-.171-.5.881.881,0,0,0-.35-.328,1.2,1.2,0,0,0-.571-.117h-.876V182.9h1.078a2.275,2.275,0,0,1,.894.157,1.473,1.473,0,0,1,.584.431,1.674,1.674,0,0,1,.314.647,3.336,3.336,0,0,1,.094.813,6.015,6.015,0,0,0,.027.607,1.373,1.373,0,0,0,.108.436.566.566,0,0,0,.252.261.965.965,0,0,0,.445.09h.422a.255.255,0,0,1,.175.049.232.232,0,0,1,.045.162v.247a.2.2,0,0,1-.22.22h-.22a1.068,1.068,0,0,1-.472-.121" transform="translate(-261.336 -180.362)" fill="#c39843"/>
        <path id="Path_326" data-name="Path 326" d="M289.358,179.851a.446.446,0,0,1,.144-.337.494.494,0,0,1,.7,0,.465.465,0,0,1,.139.337.484.484,0,0,1-.139.355.494.494,0,0,1-.7,0,.488.488,0,0,1-.144-.355m-1.375,0a.446.446,0,0,1,.144-.337.475.475,0,0,1,.346-.144.493.493,0,0,1,.35.144.457.457,0,0,1,.148.337.475.475,0,0,1-.148.355.493.493,0,0,1-.35.144.475.475,0,0,1-.346-.144.488.488,0,0,1-.144-.355m-.714,5.211c-.085,0-.135-.018-.157-.058a.368.368,0,0,1-.031-.153v-.279a.21.21,0,0,1,.04-.135.189.189,0,0,1,.148-.049H288.4a.386.386,0,0,0,.341-.121.9.9,0,0,0,.081-.458V181.32h.943V183.3a1.78,1.78,0,0,0,.13.714.624.624,0,0,0,.476.359l.121.013a1.264,1.264,0,0,0,.13,0h6.114a.247.247,0,0,1,.175.049.227.227,0,0,1,.045.157v.247a.2.2,0,0,1-.22.22h-6a.4.4,0,0,1-.13-.018.962.962,0,0,1-.575-.332,1.374,1.374,0,0,1-.287-.647,1.667,1.667,0,0,1-.1.4.855.855,0,0,1-.216.314,1.007,1.007,0,0,1-.355.2,1.654,1.654,0,0,1-.535.072Z" transform="translate(-266.54 -178.418)" fill="#c39843"/>
        <path id="Path_327" data-name="Path 327" d="M300.255,187.474c-.076,0-.126-.018-.148-.058a.372.372,0,0,1-.027-.153v-.279a.239.239,0,0,1,.036-.135.172.172,0,0,1,.144-.049h7.053a.373.373,0,0,0,.328-.121.845.845,0,0,0,.085-.44V184.8h.934v.921a1.91,1.91,0,0,0,.045.436,1.031,1.031,0,0,0,.135.346.65.65,0,0,0,.252.229.86.86,0,0,0,.386.081h.422a.36.36,0,0,0,.319-.121.8.8,0,0,0,.085-.44v-1.963h.943v1.442a1.906,1.906,0,0,0,.045.436,1.03,1.03,0,0,0,.135.346.65.65,0,0,0,.252.229.86.86,0,0,0,.386.081h.732V183.75h.952v3.742h-1.46a.924.924,0,0,1-.71-.283,1.448,1.448,0,0,1-.35-.714,1.281,1.281,0,0,1-.319.723,1.2,1.2,0,0,1-.885.274H309.7a.941.941,0,0,1-.714-.283,1.448,1.448,0,0,1-.35-.714,1.4,1.4,0,0,1-.1.409.9.9,0,0,1-.216.314.953.953,0,0,1-.359.2,1.662,1.662,0,0,1-.53.072h-7.175Z" transform="translate(-273.7 -180.83)" fill="#c39843"/>
        <rect id="Rectangle_98" data-name="Rectangle 98" width="0.943" height="6.644" transform="translate(41.367)" fill="#c39843"/>
        <path id="Path_328" data-name="Path 328" d="M340.372,186.778v-2.394H339.8a1.139,1.139,0,0,0-.359.067,1.008,1.008,0,0,0-.368.229,1.369,1.369,0,0,0-.288.422,1.572,1.572,0,0,0-.117.656,2.922,2.922,0,0,0,.049.521,2.147,2.147,0,0,0,.171.5h1.487Zm-2.278.674a4.484,4.484,0,0,1-.261-.75,3.134,3.134,0,0,1-.1-.777,2.356,2.356,0,0,1,.171-.912,2.19,2.19,0,0,1,.463-.7,1.977,1.977,0,0,1,.678-.445,2.177,2.177,0,0,1,.809-.157h1.46v3.154c0,.112,0,.22,0,.328s-.009.211-.013.31a2.15,2.15,0,0,1-.18.872,1.6,1.6,0,0,1-.4.539,1.508,1.508,0,0,1-.521.279,1.958,1.958,0,0,1-.535.081,2.52,2.52,0,0,1-.651-.085,2.073,2.073,0,0,1-.571-.229,1.706,1.706,0,0,0,.058-.22,1.44,1.44,0,0,0,.3.054c.108.009.207.013.292.013a3.181,3.181,0,0,0,.539-.045.887.887,0,0,0,.4-.189.872.872,0,0,0,.261-.409,2.271,2.271,0,0,0,.1-.714h-2.3Z" transform="translate(-294.436 -180.808)" fill="#c39843"/>
        <path id="Path_329" data-name="Path 329" d="M351.171,190.208a.62.62,0,0,1-1.033.445.563.563,0,0,1-.157-.427.61.61,0,0,1,.157-.445.59.59,0,0,1,.44-.162.617.617,0,0,1,.436.157.606.606,0,0,1,.157.431" transform="translate(-301.183 -184.063)" fill="#c39843"/>
        <path id="Path_330" data-name="Path 330" d="M356.789,190.208a.58.58,0,0,1-.166.445.682.682,0,0,1-.872,0,.565.565,0,0,1-.162-.427.594.594,0,0,1,.162-.445.586.586,0,0,1,.436-.162.617.617,0,0,1,.436.157.575.575,0,0,1,.166.431" transform="translate(-304.272 -184.063)" fill="#c39843"/>
        <path id="Path_331" data-name="Path 331" d="M362.4,188.146v-.768h.934v-.768a2.163,2.163,0,0,1,.135-.827,1.261,1.261,0,0,1,.359-.5,1.293,1.293,0,0,1,.512-.247,2.889,2.889,0,0,1,.593-.063h.651v.768h-.449a2.734,2.734,0,0,0-.4.027.744.744,0,0,0-.319.126.654.654,0,0,0-.216.27,1.072,1.072,0,0,0-.081.449v.759h1.55v.768H362.4Z" transform="translate(-308.023 -181.502)" fill="#c39843"/>
        <path id="Path_332" data-name="Path 332" d="M372.05,183.894V177.25h.943v5.971h.741a.237.237,0,0,1,.166.049.227.227,0,0,1,.045.157v.247a.193.193,0,0,1-.211.22Z" transform="translate(-313.338 -177.25)" fill="#c39843"/>
        <path id="Path_333" data-name="Path 333" d="M383.574,186.778a2.217,2.217,0,0,0,.171-.5,2.535,2.535,0,0,0,.054-.521,1.618,1.618,0,0,0-.117-.656,1.239,1.239,0,0,0-.292-.422,1.071,1.071,0,0,0-.364-.229,1.092,1.092,0,0,0-.355-.067h-.481c-.036.22-.058.44-.081.665s-.027.454-.027.692a7.529,7.529,0,0,0,.076,1.038h1.415Zm-8.379.674c-.076,0-.126-.018-.148-.058a.372.372,0,0,1-.027-.153v-.279a.239.239,0,0,1,.036-.135.172.172,0,0,1,.144-.049h5.984c0-.144-.009-.288-.018-.422s-.009-.274-.009-.413c0-.4.013-.777.045-1.15s.072-.732.112-1.083h1.222a2.279,2.279,0,0,1,.836.153,2.036,2.036,0,0,1,.7.44,2.075,2.075,0,0,1,.481.7,2.351,2.351,0,0,1,.175.93,3.456,3.456,0,0,1-.027.427,3.4,3.4,0,0,1-.081.427h.912a.247.247,0,0,1,.175.049.227.227,0,0,1,.045.157v.247a.2.2,0,0,1-.22.22H375.2Z" transform="translate(-314.973 -180.808)" fill="#c39843"/>
        <path id="Path_334" data-name="Path 334" d="M399.106,179.86a.471.471,0,0,1,.139-.346.478.478,0,0,1,.35-.144.465.465,0,0,1,.341.144.5.5,0,0,1,0,.692.465.465,0,0,1-.341.144.478.478,0,0,1-.35-.144.471.471,0,0,1-.139-.346m-1.276,5.2c-.076,0-.126-.018-.148-.058a.368.368,0,0,1-.031-.153v-.279a.285.285,0,0,1,.031-.135.172.172,0,0,1,.144-.049h1.262V181.32h.952v3.742Z" transform="translate(-327.437 -178.418)" fill="#c39843"/>
        <path id="Path_335" data-name="Path 335" d="M408.42,190.208a.58.58,0,0,1-.166.445.6.6,0,0,1-.445.157.58.58,0,0,1-.427-.157.565.565,0,0,1-.162-.427.559.559,0,0,1,.6-.606.617.617,0,0,1,.436.157.59.59,0,0,1,.162.431" transform="translate(-332.708 -184.063)" fill="#c39843"/>
        <path id="Path_336" data-name="Path 336" d="M414.049,190.208a.58.58,0,0,1-.166.445.682.682,0,0,1-.872,0,.565.565,0,0,1-.162-.427.559.559,0,0,1,.6-.606.617.617,0,0,1,.436.157.59.59,0,0,1,.162.431" transform="translate(-335.808 -184.063)" fill="#c39843"/>
        <path id="Path_337" data-name="Path 337" d="M421.644,180.2a.471.471,0,0,1,.139-.346.478.478,0,0,1,.35-.144.465.465,0,0,1,.341.144.5.5,0,0,1,0,.692.454.454,0,0,1-.341.139.476.476,0,0,1-.49-.485m2.893,4.758a2.139,2.139,0,0,1-.1.436,2.379,2.379,0,0,1-.386.723,2.462,2.462,0,0,1-.58.544,2.616,2.616,0,0,1-.714.341,2.727,2.727,0,0,1-.818.117,2.86,2.86,0,0,1-1.1-.189,2.1,2.1,0,0,1-.737-.494,1.79,1.79,0,0,1-.413-.692,2.5,2.5,0,0,1-.126-.786,2.787,2.787,0,0,1,.193-1.051,2.331,2.331,0,0,1,.463-.764l.243.076a2.484,2.484,0,0,0-.274.746,3.347,3.347,0,0,0-.063.611,1.613,1.613,0,0,0,.144.692,1.469,1.469,0,0,0,.391.512,1.649,1.649,0,0,0,.58.319,2.33,2.33,0,0,0,.714.108,1.95,1.95,0,0,0,.786-.144,1.362,1.362,0,0,0,.521-.4,1.549,1.549,0,0,0,.292-.6,3.113,3.113,0,0,0,.09-.759v-1.748h.943v.872a3.274,3.274,0,0,0,.031.418,1.148,1.148,0,0,0,.121.368.677.677,0,0,0,.247.256.827.827,0,0,0,.422.1h.382a.193.193,0,0,1,.22.211v.247a.2.2,0,0,1-.22.22h-.153a.958.958,0,0,1-.719-.283,1.3,1.3,0,0,1-.337-.714v.009a5.225,5.225,0,0,1-.04.692" transform="translate(-339.504 -178.605)" fill="#c39843"/>
        <path id="Path_338" data-name="Path 338" d="M443.9,182.223a1.7,1.7,0,0,0-.368-1.222,1.269,1.269,0,0,0-.948-.377,1.47,1.47,0,0,0-.665.166,2.223,2.223,0,0,0-.642.494,3.512,3.512,0,0,0-.544.813,5.1,5.1,0,0,0-.382,1.128H443.9Zm-4.394,1V177.25h.943v4.789a3.762,3.762,0,0,1,.44-1,3.019,3.019,0,0,1,.6-.705,2.455,2.455,0,0,1,.7-.418,2.05,2.05,0,0,1,.732-.139,1.88,1.88,0,0,1,.813.171,1.785,1.785,0,0,1,.611.485,2.153,2.153,0,0,1,.386.741,3.149,3.149,0,0,1,.135.943v1.77H432.85c-.076,0-.126-.018-.148-.058a.368.368,0,0,1-.031-.153V183.4a.209.209,0,0,1,.036-.135.172.172,0,0,1,.144-.049h6.658Z" transform="translate(-346.724 -177.25)" fill="#c39843"/>
        <path id="Path_339" data-name="Path 339" d="M464.552,186.778v-2.394h-.575a1.117,1.117,0,0,0-.359.067,1.008,1.008,0,0,0-.368.229,1.368,1.368,0,0,0-.288.422,1.572,1.572,0,0,0-.117.656,2.925,2.925,0,0,0,.049.521,2.132,2.132,0,0,0,.166.5h1.492Zm-2.278.674a4.481,4.481,0,0,1-.261-.75,3.136,3.136,0,0,1-.1-.777,2.356,2.356,0,0,1,.171-.912,2.19,2.19,0,0,1,.463-.7,2.021,2.021,0,0,1,.678-.445,2.16,2.16,0,0,1,.809-.157h1.46v3.154c0,.112,0,.22,0,.328s-.009.211-.013.31a2.15,2.15,0,0,1-.18.872,1.493,1.493,0,0,1-.4.539,1.432,1.432,0,0,1-.521.279,1.957,1.957,0,0,1-.535.081,2.52,2.52,0,0,1-.651-.085,2.017,2.017,0,0,1-.571-.229,1.7,1.7,0,0,0,.058-.22,1.44,1.44,0,0,0,.3.054c.112.009.207.013.292.013a3.18,3.18,0,0,0,.539-.045.887.887,0,0,0,.4-.189.871.871,0,0,0,.261-.409,2.412,2.412,0,0,0,.1-.714h-2.3Z" transform="translate(-362.828 -180.808)" fill="#c39843"/>
        <path id="Path_340" data-name="Path 340" d="M474.657,186.778v-2.394h-.575a1.092,1.092,0,0,0-.355.067.974.974,0,0,0-.368.229,1.369,1.369,0,0,0-.287.422,1.572,1.572,0,0,0-.117.656,2.925,2.925,0,0,0,.049.521,2.147,2.147,0,0,0,.171.5h1.483Zm-2.278.674a4.481,4.481,0,0,1-.26-.75,3.125,3.125,0,0,1-.1-.777,2.357,2.357,0,0,1,.171-.912,2.191,2.191,0,0,1,.463-.7,2.022,2.022,0,0,1,.678-.445,2.177,2.177,0,0,1,.809-.157h1.46v3.154c0,.112,0,.22,0,.328s0,.211-.013.31a2.229,2.229,0,0,1-.18.872,1.546,1.546,0,0,1-.4.539,1.487,1.487,0,0,1-.526.279,1.957,1.957,0,0,1-.535.081,2.545,2.545,0,0,1-.651-.085,2.072,2.072,0,0,1-.571-.229,1.2,1.2,0,0,0,.058-.22,1.44,1.44,0,0,0,.3.054c.108.009.207.013.292.013a3.181,3.181,0,0,0,.539-.045.887.887,0,0,0,.4-.189.871.871,0,0,0,.261-.409,2.412,2.412,0,0,0,.1-.714h-2.3Z" transform="translate(-368.396 -180.808)" fill="#c39843"/>
        <path id="Path_341" data-name="Path 341" d="M487.645,179.851a.446.446,0,0,1,.144-.337.494.494,0,0,1,.7,0,.458.458,0,0,1,.139.337.484.484,0,0,1-.139.355.494.494,0,0,1-.7,0,.471.471,0,0,1-.144-.355m.31,4.537c.027-.18.049-.355.063-.526s.022-.341.022-.512a5.842,5.842,0,0,0-.036-.692c-.022-.225-.049-.449-.076-.665h-.481a1.139,1.139,0,0,0-.359.067,1.008,1.008,0,0,0-.368.229,1.369,1.369,0,0,0-.288.422,1.573,1.573,0,0,0-.117.656,2.925,2.925,0,0,0,.049.521,2.36,2.36,0,0,0,.166.5h1.424Zm-1.685-4.537a.462.462,0,0,1,.144-.337.475.475,0,0,1,.346-.144.493.493,0,0,1,.35.144.45.45,0,0,1,.148.337.475.475,0,0,1-.148.355.493.493,0,0,1-.35.144.491.491,0,0,1-.49-.5m2.529,1.465c.049.35.09.71.121,1.083s.045.759.045,1.15c0,.139,0,.279-.009.413s-.014.274-.027.422h.854a.237.237,0,0,1,.166.049.232.232,0,0,1,.045.162v.247c0,.144-.067.22-.211.22h-4.057a3.765,3.765,0,0,1-.247-.75,3.594,3.594,0,0,1-.09-.777,2.277,2.277,0,0,1,.175-.912,2.191,2.191,0,0,1,.463-.7,2,2,0,0,1,.674-.445,2.137,2.137,0,0,1,.8-.157H488.8Z" transform="translate(-375.76 -178.418)" fill="#c39843"/>
        <path id="Path_342" data-name="Path 342" d="M494.6,186.99c-.076,0-.126-.018-.148-.058a.368.368,0,0,1-.031-.153V186.5a.24.24,0,0,1,.036-.135.172.172,0,0,1,.144-.049h1.478a3.613,3.613,0,0,1-.625-.786,1.769,1.769,0,0,1-.247-.912,1.608,1.608,0,0,1,.175-.773,1.765,1.765,0,0,1,.449-.544,1.784,1.784,0,0,1,.638-.323,2.505,2.505,0,0,1,.728-.108,3.03,3.03,0,0,1,.535.054,2.027,2.027,0,0,1,.512.157v.674a1.7,1.7,0,0,0-.4-.13,1.919,1.919,0,0,0-.355-.049,2.058,2.058,0,0,0-.5.063,1.159,1.159,0,0,0-.422.207,1.032,1.032,0,0,0-.292.368,1.268,1.268,0,0,0-.108.548,1.518,1.518,0,0,0,.076.467,2.212,2.212,0,0,0,.193.431,2.415,2.415,0,0,0,.274.364,2.955,2.955,0,0,0,.31.283h2.058a.234.234,0,0,1,.171.049.227.227,0,0,1,.049.157v.247a.2.2,0,0,1-.22.22H494.6Z" transform="translate(-380.733 -180.345)" fill="#c39843"/>
        <path id="Path_343" data-name="Path 343" d="M507.477,186.778a2.227,2.227,0,0,0,.175-.5,2.533,2.533,0,0,0,.054-.521,1.541,1.541,0,0,0-.121-.656,1.3,1.3,0,0,0-.292-.422,1.046,1.046,0,0,0-.368-.229,1.092,1.092,0,0,0-.355-.067h-.481c-.027.22-.054.44-.076.665a6.919,6.919,0,0,0-.036.692,7.528,7.528,0,0,0,.076,1.038h1.424Zm-3.262.674c-.076,0-.126-.018-.148-.058a.373.373,0,0,1-.027-.153v-.279a.24.24,0,0,1,.036-.135.172.172,0,0,1,.144-.049h.867q-.027-.431-.027-.836c0-.4.013-.777.045-1.15s.072-.732.112-1.083h1.289a2.149,2.149,0,0,1,.813.157,2,2,0,0,1,.674.445,2.118,2.118,0,0,1,.463.7,2.292,2.292,0,0,1,.175.912,3.339,3.339,0,0,1-.094.777,4.736,4.736,0,0,1-.243.75Z" transform="translate(-386.031 -180.808)" fill="#c39843"/>
        <path id="Path_344" data-name="Path 344" d="M516.93,183.894V177.25h.943v5.971h.741c.081,0,5.845.018,5.876.049a.227.227,0,0,1,.045.157v.247c0,.144-5.782.22-5.921.22Z" transform="translate(-393.131 -177.25)" fill="#c39843"/>
        <path id="Path_345" data-name="Path 345" d="M527.491,188.109a.474.474,0,0,1,.139-.35.492.492,0,0,1,.35-.139.471.471,0,0,1,.346.139.477.477,0,0,1,.144.35.448.448,0,0,1-.144.341.5.5,0,0,1-.7,0,.461.461,0,0,1-.139-.341M520.11,187c-.081,0-.13-.018-.148-.058a.367.367,0,0,1-.031-.153v-.279a.239.239,0,0,1,.036-.135.172.172,0,0,1,.144-.049h9.268a2.123,2.123,0,0,1-.171-.485c-.045-.18-.081-.355-.108-.535-.04-.229-.081-.458-.13-.678a1.984,1.984,0,0,0-.225-.593,1.2,1.2,0,0,0-.413-.422,1.34,1.34,0,0,0-.71-.162,2.849,2.849,0,0,0-.961.193,2.386,2.386,0,0,1-.072-.238c-.018-.081-.04-.157-.063-.238.081-.031.171-.067.27-.1s.211-.063.323-.09a2.987,2.987,0,0,1,.359-.067,2.526,2.526,0,0,1,.364-.027,2.577,2.577,0,0,1,.8.108,1.669,1.669,0,0,1,.571.292,1.7,1.7,0,0,1,.391.431,2.681,2.681,0,0,1,.247.539,4.274,4.274,0,0,1,.153.607c.036.211.072.422.1.638.036.274.076.539.121.791a3.263,3.263,0,0,0,.216.71Z" transform="translate(-394.783 -180.351)" fill="#c39843"/>
      </g>
    </g>
  </g>
</svg>
