<svg xmlns="http://www.w3.org/2000/svg" xmlns:xlink="http://www.w3.org/1999/xlink" 
    viewBox="0 0 280.214 196.554">
    <defs>
        <filter id="a" x="49.547" y="74.885" width="183" height="33" filterUnits="userSpaceOnUse">
            <feOffset dy="3" input="SourceAlpha" />
            <feGaussianBlur stdDeviation="3" result="b" />
            <feFlood flood-opacity="0.161" />
            <feComposite operator="in" in2="b" />
            <feComposite in="SourceGraphic" />
        </filter>
    </defs>
    <g transform="translate(-183.53 -6.3)">
        <path
            d="M367.843,6.3a96.137,96.137,0,0,0-77.364,38.749,77.667,77.667,0,0,0-29.867-5.928c-42.571,0-77.082,34.1-77.082,76.156s34.511,76.156,77.082,76.156a77.352,77.352,0,0,0,47.552-16.214A96.224,96.224,0,0,0,367.843,195.8c52.964,0,95.9-42.419,95.9-94.748S420.807,6.3,367.843,6.3Z"
            fill="#2a94f4" opacity="0.1" />
        <ellipse cx="134.655" cy="15.282" rx="134.655" ry="15.282" transform="translate(185.37 172.29)" fill="#2a94f4"
            opacity="0.1" />
        <path
            d="M293.739,157.353a3.407,3.407,0,0,0,1.186-3.594c-.474-2.532-1.741-5.777-5.618-4.987s-3.72,1.461-5.223-.121-6.685,2-5.514,3.734c.555.818.784,2.4-1.481,3.35s-2.508,6.665,1.9,6.036c1.107-.157,1.045,1.545.448,2.195-1.344,1.461,1.873,5.223,4.326,2.532S293.739,157.353,293.739,157.353Z"
            transform="translate(-75.133 -115.971)" fill="#0b4870" />
        <path
            d="M394.71,436.884H587.9a12.62,12.62,0,0,0,12.62-12.62V317.34a12.62,12.62,0,0,0-12.62-12.62H394.71a12.62,12.62,0,0,0-12.62,12.62V424.264A12.619,12.619,0,0,0,394.71,436.884Z"
            transform="translate(-162.211 -243.79)" fill="#317292" />
        <rect width="218.427" height="30.83" transform="translate(438.304 109.648) rotate(180)" fill="#333" />
        <rect width="153.677" height="7.656" transform="translate(384.088 135.188) rotate(180)" fill="#f7f7f7"
            opacity="0.05" />
        <rect width="112.842" height="5.777" transform="translate(343.251 147.371) rotate(180)" fill="#f7f7f7"
            opacity="0.05" />
        <rect width="112.842" height="5.777" transform="translate(343.251 159.552) rotate(180)" fill="#f7f7f7"
            opacity="0.05" />
        <path d="M345.6,944.072l-.74,6.481H340.32V943.21Z" transform="translate(-128.088 -765.397)" fill="#fcd2b1" />
        <path d="M248.976,944.072l-.74,6.481H243.7V943.21Z" transform="translate(-49.155 -765.397)" fill="#fcd2b1" />
        <path
            d="M322.586,209.508c-.139,2.166-1.047,4.04-2,4.13H317.87c-.954-.09-1.86-1.966-2-4.13-.222-3.572.247-4.835.024-8.406-.146-2.142,7.509-4.447,7.363-2.3Q322.922,204.148,322.586,209.508Z"
            transform="translate(-108.061 -156.56)" fill="#fcd2b1" />
        <path
            d="M412.9,257.08s4.657.738,6.561,1.2a16.389,16.389,0,0,1,8.564,4.924c1.283,1.175-1.536,1.316-2.962,2.374s-13.018-2.01-15.441-3.42S411.33,257.08,412.9,257.08Z"
            transform="translate(-184.092 -204.872)" fill="#fcd2b1" />
        <path
            d="M282.046,255.556a3.414,3.414,0,0,0,2.77-3.938s8.146-1.756,12.567-.71,6.418,1.605,6.847,1.754-3.423.635-4.707,5.265-1.6,5.377-1.6,5.377l-2.96-.449s-1.964,37.385-2.676,40.969-15.679,4.8-21.869,1.267c0,0-.555-14.918-.555-35.267l-.289-16.675s6.958-.643,8.527-.643A2.988,2.988,0,0,0,282.046,255.556Z"
            transform="translate(-70.289 -199.558)" fill="#be8733" />
        <path
            d="M411.433,283.231c-1.627-1.212-3.092-.978-8.575.734-7.28,2.274-9.7,3.18-10.824,3.669s-1.8,2.072-2.363,3.907a4.954,4.954,0,0,0,.4,3.378,4.324,4.324,0,0,0,2.612.961c.675.02.95-.972.361-3.551-.809-3.551,11.432-3.767,13.118-4.011S415.261,286.082,411.433,283.231Z"
            transform="translate(-168.26 -225.615)" fill="#ffe3ca" />
        <path
            d="M193.58,347.505c0-4.454,6.929-18.3,6.929-18.3a.6.6,0,0,1,.018-.09.093.093,0,0,1,.009-.024.387.387,0,0,1,.018-.049.226.226,0,0,1,.013-.022c.007-.013.015-.024.022-.035a.163.163,0,0,1,.018-.018.3.3,0,0,1,.026-.024.124.124,0,0,1,.022-.011.15.15,0,0,1,.029-.015.1.1,0,0,1,.026-.005.2.2,0,0,1,.033-.005h.029a.245.245,0,0,1,.037,0,.209.209,0,0,1,.033.007c.013,0,.026.006.04.011l.035.013a.437.437,0,0,1,.044.018l.038.018.048.024.042.024c.016.009.033.02.049.031s.029.02.044.031.035.024.053.038l.046.035.057.044c.016.013.031.026.048.04s.04.033.06.051l.049.044.062.057c.016.016.033.031.051.048s.044.042.066.064l.051.051c.022.024.046.048.07.071l.051.055c.024.026.048.051.073.077s.035.037.051.057.051.057.077.086.033.037.049.057.055.062.082.1l.049.057c.029.033.057.068.086.1l.046.055.093.115c.015.016.027.033.042.051.033.042.068.086.1.128l.035.044.117.152.022.027c.044.059.09.119.134.179l.005.007c1.756,2.363,2.647,4.683,1.977,5.735-.906,1.424-6.019,8.653-4.848,11.264s8.313,13.279,8.313,13.279l-1.086,3.339S193.578,353.689,193.58,347.505Z"
            transform="translate(-8.21 -263.552)" fill="#fcd2b1" />
        <path
            d="M230.678,264.385s-2.376-2.607-5.748,3.866a108.838,108.838,0,0,0-5.06,11.4s5.186,8.785,7.476,5.034a50.564,50.564,0,0,0,2.887-4.842C233.122,272.716,230.678,264.385,230.678,264.385Z"
            transform="translate(-29.688 -210.415)" fill="#be8733" />
        <path
            d="M309.918,170.81c.774,1.161,1.115,4.871.868,6.436-.95,6.015-3.379,10.039-10.1,4.959-1.452-1.1-1.585-3.218-1.821-3.535s-1.977-.791-1.82-3.165,1.794-1.161,2.111.527l.844,1.426a.4.4,0,0,0,.313.194h0a.4.4,0,0,0,.414-.481l-.569-2.524s2.374.965,3.271-1.2,3.8,1.9,5.012-.95Z"
            transform="translate(-92.727 -134.394)" fill="#ffe3ca" />
        <path
            d="M336.57,979.81h.686a5.39,5.39,0,0,0,4.611,0h.915l.474,1.386s.941,2.037,4.67.95c2.5-.73,3.8,1.938,3.877,4.472H336.57Z"
            transform="translate(-125.024 -795.297)" fill="#0b4870" />
        <path
            d="M239.73,979.81h.687a5.39,5.39,0,0,0,4.611,0h.915l.474,1.386s.941,2.037,4.67.95c2.5-.73,3.8,1.938,3.877,4.472H239.73Z"
            transform="translate(-45.912 -795.297)" fill="#0b4870" />
        <path
            d="M268.563,513.78s.238,39.986-.394,49.718-4.11,31.192-4.11,31.192h-6.665s1.832-30.008,1.832-32.856-2.642-28.4-5.16-28.9c-2.374-.474-2.325,20.419-2.457,28.966s-5.565,32.792-5.565,32.792h-6.3s3.436-23.137,2.859-34.057c-.315-5.953-.7-15.694-.608-25.482.075-8.17,3.927-20.565,3.927-20.565Z"
            transform="translate(-45.92 -414.579)" fill="#0e538c" />
        <g transform="translate(198.829 95.824)">
            <path
                d="M268.153,495.341c.58.223.553.176.553.176s5.561,3.41,2.14,7.1c-1.179,1.27-2.8.333-3.407-1.089l-.339-.793S267.57,495.118,268.153,495.341Z"
                transform="translate(-267.1 -495.335)" fill="#ffe3ca" />
        </g>
        <g transform="matrix(1, 0, 0, 1, 183.53, 6.3)" filter="url(#a)"><text transform="translate(58.55 90.89)"
                fill="#fff" font-size="10" font-family="taj, GE SS Two" font-weight="500">
                <tspan x="0" y="0">رسوم الدورة المطلوبة بالريال السعودي</tspan>
            </text></g>
    </g>
</svg>