<?xml version="1.0" encoding="utf-8"?>
<!-- Generator: Adobe Illustrator 25.1.0, SVG Export Plug-In . SVG Version: 6.00 Build 0)  -->
<svg version="1.1" id="Layer_1" xmlns="http://www.w3.org/2000/svg" xmlns:xlink="http://www.w3.org/1999/xlink" x="0px" y="0px"
	 viewBox="0 0 572.03 216.15" style="enable-background:new 0 0 572.03 216.15;" xml:space="preserve">
<style type="text/css">
	.st0{fill:none;stroke:#FFFFFF;stroke-width:1.245;stroke-miterlimit:10;}
	.st1{fill:#FFFFFF;}
	.st2{fill:#FFFFFF;stroke:#FFFFFF;stroke-miterlimit:10;}
	.st3{fill:#C39843;}
	.st4{fill:#DBDBDE;}
	.st5{fill:#0F7078;}
	.st6{fill:#005773;}
	.st7{clip-path:url(#SVGID_2_);fill:#127178;}
</style>
<g>
	<g>
		<path class="st1" d="M125.87,131.25c1.08-0.43,2.02-0.7,2.82-0.79c2.14-0.25,3.3,0.76,3.91,1.72c-0.76-0.46-1.99-1.25-3.96-1.01
			c-2.3,0.27-5.31,1.73-7.66,2.63C122.43,132.91,124.19,131.93,125.87,131.25"/>
		<path class="st1" d="M107.1,131.25c1.68,0.67,3.44,1.65,4.89,2.55c-2.35-0.89-5.35-2.36-7.66-2.63c-1.97-0.24-3.2,0.56-3.96,1.01
			c0.61-0.96,1.77-1.98,3.91-1.72C105.08,130.55,106.03,130.82,107.1,131.25"/>
		<path class="st1" d="M281.63,104.95h-13.09l-13.41-19.99c-0.26-0.39-0.66-1.23-1.22-2.54h-0.16v22.53h-10.36V61.46
			c0.02-1.73,2.29-2.53,2.29-2.53h8.07v21.75h0.16c0.26-0.6,0.68-1.45,1.28-2.57l12.71-19.19h12.35l-16.04,21.95L281.63,104.95z"/>
		<path class="st1" d="M312.62,67.37h-16.23v11.29h14.92v8.41h-14.92v17.87h-10.37c0,0-0.07-43.76,0-44.32
			c0.15-1.27,1.42-1.69,1.42-1.69h25.18V67.37z"/>
		<path class="st1" d="M357.71,85.02c0,13.82-6.44,20.73-19.32,20.73c-12.49,0-18.74-6.75-18.74-20.25V58.93h10.4v26.7
			c0,7.44,2.91,11.16,8.73,11.16c5.71,0,8.57-3.59,8.57-10.78V58.93h10.37V85.02z"/>
		<path class="st1" d="M263.71,143.01c-0.05,0.65-0.14,1.22-0.27,1.7c-0.33,1.36-0.87,2.58-1.61,3.67c-0.74,1.1-1.62,2.03-2.64,2.8
			c-1.02,0.77-2.16,1.36-3.41,1.78c-1.25,0.42-2.56,0.63-3.94,0.63c-1.97,0-3.63-0.29-4.99-0.86c-1.36-0.57-2.48-1.32-3.35-2.23
			c-0.87-0.92-1.49-1.96-1.87-3.14c-0.38-1.17-0.57-2.36-0.57-3.56c0-1.71,0.29-3.3,0.88-4.76c0.59-1.47,1.29-2.62,2.1-3.46
			l1.11,0.35c-0.64,1.17-1.05,2.3-1.25,3.39c-0.19,1.09-0.29,2.01-0.29,2.78c0,1.17,0.22,2.22,0.65,3.14
			c0.43,0.92,1.02,1.69,1.76,2.33c0.74,0.64,1.62,1.12,2.64,1.46c1.02,0.33,2.11,0.5,3.25,0.5c1.4,0,2.59-0.21,3.56-0.65
			c0.97-0.43,1.76-1.03,2.37-1.8c0.62-0.76,1.06-1.67,1.32-2.72c0.27-1.05,0.4-2.19,0.4-3.44v-25.95h4.29v22.16
			c0,0.61,0.06,1.21,0.17,1.8c0.11,0.59,0.32,1.11,0.61,1.57c0.29,0.46,0.68,0.84,1.17,1.13c0.48,0.29,1.09,0.44,1.8,0.44h2.14
			c0.38,0,0.64,0.08,0.78,0.23c0.14,0.15,0.21,0.4,0.21,0.73v1.11c0,0.66-0.33,0.99-0.99,0.99h-1.15c-1.35,0-2.43-0.42-3.23-1.28
			c-0.8-0.86-1.3-1.94-1.51-3.24v0.04C263.81,141.57,263.76,142.36,263.71,143.01"/>
		<path class="st1" d="M300.91,142.04c0.66,0,1,0.32,1,0.96v1.11c0,0.67-0.33,1-1,1h-31.88c-0.36,0-0.58-0.09-0.67-0.27
			c-0.09-0.18-0.14-0.41-0.14-0.69v-1.26c0-0.28,0.05-0.49,0.15-0.63c0.1-0.14,0.32-0.21,0.65-0.21h3.79v-11.52h4.17v6.16
			c0.51-1.76,1.18-3.29,2.01-4.57c0.83-1.29,1.74-2.36,2.74-3.2c0.99-0.84,2.05-1.47,3.18-1.88c1.12-0.41,2.23-0.61,3.33-0.61
			c1.35,0,2.57,0.26,3.67,0.79c1.1,0.52,2.03,1.26,2.79,2.2c0.77,0.95,1.36,2.07,1.76,3.37c0.41,1.3,0.61,2.73,0.61,4.29v4.98
			H300.91z M292.72,137.52c0-1.27-0.15-2.37-0.44-3.27c-0.29-0.91-0.71-1.65-1.24-2.24c-0.54-0.59-1.17-1.02-1.9-1.3
			c-0.73-0.28-1.54-0.42-2.43-0.42c-0.99,0-2,0.25-3,0.74c-1.01,0.5-1.96,1.24-2.87,2.22c-0.91,0.98-1.72,2.21-2.45,3.67
			c-0.73,1.47-1.31,3.17-1.74,5.11h16.07V137.52z"/>
		<path class="st1" d="M300.8,145.1c-0.38,0-0.62-0.09-0.71-0.27c-0.09-0.18-0.13-0.41-0.13-0.69v-1.26c0-0.25,0.06-0.46,0.17-0.61
			c0.11-0.16,0.34-0.23,0.67-0.23h5.13c0.79,0,1.31-0.19,1.55-0.56c0.24-0.37,0.36-1.07,0.36-2.09v-11.29h4.29v8.99
			c0,1.28,0.2,2.35,0.6,3.23c0.4,0.88,1.12,1.42,2.16,1.63c0.18,0.02,0.36,0.04,0.56,0.06c0.19,0.01,0.39,0.02,0.59,0.02h1.84
			c0.38,0,0.64,0.08,0.79,0.23c0.14,0.15,0.21,0.39,0.21,0.73v1.11c0,0.67-0.33,1-1,1h-0.35h-0.97c-0.22,0-0.42-0.03-0.59-0.08
			c-1.07-0.21-1.94-0.71-2.6-1.51c-0.66-0.8-1.09-1.78-1.3-2.93c-0.08,0.66-0.23,1.28-0.46,1.84c-0.23,0.56-0.56,1.04-0.98,1.43
			c-0.42,0.4-0.96,0.7-1.6,0.92c-0.65,0.22-1.46,0.33-2.43,0.33H300.8z M304.43,150.11c0-0.61,0.22-1.13,0.65-1.55
			c0.44-0.42,0.96-0.63,1.57-0.63c0.61,0,1.13,0.21,1.57,0.63c0.43,0.42,0.65,0.94,0.65,1.55c0,0.64-0.22,1.17-0.65,1.59
			c-0.43,0.42-0.96,0.63-1.57,0.63c-0.61,0-1.13-0.21-1.57-0.63C304.65,151.28,304.43,150.75,304.43,150.11 M310.64,150.11
			c0-0.61,0.22-1.13,0.67-1.55c0.44-0.42,0.97-0.63,1.59-0.63c0.61,0,1.14,0.21,1.57,0.63c0.43,0.42,0.65,0.94,0.65,1.55
			c0,0.64-0.22,1.17-0.65,1.59c-0.43,0.42-0.96,0.63-1.57,0.63c-0.61,0-1.14-0.21-1.59-0.63
			C310.86,151.28,310.64,150.75,310.64,150.11"/>
		<path class="st1" d="M317.06,145.1c-0.36,0-0.58-0.09-0.67-0.27c-0.09-0.18-0.13-0.41-0.13-0.69v-1.26c0-0.25,0.05-0.46,0.15-0.61
			c0.1-0.15,0.32-0.23,0.65-0.23h4.44c-0.31-1.28-0.46-2.56-0.46-3.87c0-1.58,0.27-2.99,0.8-4.24c0.54-1.25,1.27-2.31,2.19-3.16
			c0.91-0.86,1.97-1.51,3.17-1.97c1.2-0.46,2.46-0.69,3.79-0.69h5.51c0.21,1.58,0.38,3.22,0.53,4.92c0.15,1.69,0.23,3.44,0.23,5.22
			c0,1.07-0.03,2.18-0.1,3.31c-0.07,1.14-0.17,2.31-0.33,3.54H317.06z M332.68,142.04c0.13-0.82,0.21-1.61,0.27-2.39
			c0.05-0.78,0.08-1.55,0.08-2.32c0-1.07-0.04-2.12-0.13-3.14c-0.09-1.02-0.21-2.03-0.36-3.03h-2.18c-0.49,0-1.02,0.1-1.61,0.31
			c-0.59,0.21-1.14,0.55-1.65,1.04c-0.51,0.48-0.94,1.12-1.3,1.91c-0.36,0.79-0.53,1.79-0.53,2.99c0,0.79,0.08,1.58,0.23,2.35
			c0.15,0.78,0.41,1.54,0.76,2.28H332.68z M328.09,121.49c0-0.61,0.21-1.14,0.63-1.57c0.42-0.43,0.95-0.65,1.59-0.65
			c0.61,0,1.13,0.22,1.55,0.65c0.42,0.43,0.64,0.96,0.64,1.57c0,0.61-0.21,1.14-0.64,1.57c-0.42,0.44-0.94,0.65-1.55,0.65
			c-0.64,0-1.17-0.22-1.59-0.65C328.3,122.62,328.09,122.1,328.09,121.49"/>
		<path class="st1" d="M373.21,142.04c0.79,0,1.31-0.19,1.55-0.56c0.24-0.37,0.36-1.06,0.36-2.09v-24.45h4.25v22.16
			c0,0.72,0.06,1.37,0.19,1.97c0.12,0.6,0.34,1.12,0.63,1.57c0.3,0.45,0.68,0.79,1.17,1.03c0.49,0.24,1.09,0.37,1.8,0.37h1.72
			c0.36,0,0.61,0.08,0.75,0.23c0.14,0.15,0.21,0.39,0.21,0.72v1.11c0,0.66-0.32,1-0.96,1h-0.72c-1.36,0-2.44-0.43-3.25-1.28
			c-0.82-0.85-1.36-1.93-1.61-3.23c-0.13,1.07-0.45,1.97-0.96,2.72c-0.51,0.74-1.3,1.25-2.38,1.53c-0.69,0.18-1.53,0.27-2.53,0.27
			h-15.96c-1.96,0-3.55-0.21-4.77-0.63c-1.21-0.42-2.15-0.97-2.83-1.66c-0.68-0.69-1.14-1.46-1.38-2.32
			c-0.24-0.86-0.36-1.71-0.36-2.55c0-1.27,0.28-2.52,0.84-3.73c0.56-1.21,1.21-2.23,1.95-3.04l1.19,0.34
			c-0.43,0.66-0.78,1.39-1.03,2.16c-0.26,0.78-0.38,1.64-0.38,2.58c0,0.54,0.08,1.14,0.25,1.8c0.17,0.66,0.51,1.29,1.03,1.89
			c0.52,0.6,1.27,1.1,2.24,1.49c0.97,0.4,2.27,0.59,3.9,0.59H373.21z M359.85,128.45v-2.1h2.57v-2.03c0-1.55,0.4-2.69,1.19-3.41
			c0.79-0.71,1.84-1.07,3.14-1.07h1.8v2.11h-1.23c-0.38,0-0.74,0.02-1.07,0.08c-0.33,0.05-0.62,0.16-0.88,0.32
			c-0.25,0.17-0.45,0.41-0.59,0.73c-0.14,0.32-0.21,0.73-0.21,1.24v2.03h4.21v2.1H359.85z"/>
		<path class="st1" d="M384.12,145.1c-0.36,0-0.58-0.09-0.67-0.27c-0.09-0.18-0.13-0.41-0.13-0.69v-1.26c0-0.26,0.05-0.46,0.15-0.61
			c0.11-0.16,0.32-0.23,0.65-0.23h3.21c0.79,0,1.31-0.19,1.55-0.56c0.24-0.37,0.36-1.07,0.36-2.08v-24.46h4.29v22.16
			c0,0.64,0.06,1.26,0.17,1.86c0.11,0.6,0.32,1.13,0.61,1.59c0.29,0.46,0.68,0.82,1.17,1.09c0.48,0.27,1.08,0.4,1.8,0.4h1.8
			c0.38,0,0.64,0.07,0.78,0.23c0.14,0.15,0.21,0.39,0.21,0.73v1.11c0,0.66-0.33,0.99-0.99,0.99h-0.77c-1.35,0-2.43-0.43-3.25-1.28
			c-0.82-0.85-1.35-1.93-1.61-3.23c-0.08,0.67-0.23,1.28-0.46,1.84c-0.23,0.56-0.56,1.04-0.98,1.43c-0.42,0.4-0.96,0.7-1.61,0.92
			c-0.65,0.22-1.46,0.32-2.43,0.32H384.12z"/>
		<path class="st1" d="M398.35,145.1c-0.35,0-0.58-0.09-0.67-0.27c-0.09-0.18-0.13-0.41-0.13-0.69v-1.26c0-0.25,0.05-0.46,0.15-0.61
			c0.1-0.15,0.32-0.23,0.65-0.23h3.83c-0.03-0.66-0.05-1.3-0.08-1.91c-0.03-0.61-0.04-1.24-0.04-1.88c0-1.78,0.07-3.53,0.21-5.22
			c0.14-1.7,0.31-3.34,0.52-4.92h5.55c1.32,0,2.59,0.23,3.79,0.69c1.2,0.46,2.26,1.12,3.18,1.99c0.92,0.87,1.65,1.92,2.18,3.16
			c0.54,1.24,0.8,2.65,0.8,4.23c0,0.64-0.05,1.28-0.13,1.94c-0.09,0.65-0.21,1.29-0.36,1.93h4.13c0.38,0,0.64,0.08,0.79,0.23
			c0.14,0.15,0.21,0.4,0.21,0.73v1.11c0,0.67-0.33,1-1,1H398.35z M413.05,142.04c0.35-0.74,0.62-1.5,0.78-2.28
			c0.16-0.78,0.25-1.56,0.25-2.35c0-1.2-0.18-2.2-0.53-2.99c-0.36-0.79-0.8-1.43-1.32-1.92c-0.52-0.48-1.08-0.82-1.67-1.03
			c-0.58-0.21-1.12-0.31-1.6-0.31h-2.19c-0.15,1-0.27,2-0.36,3.03c-0.09,1.02-0.13,2.06-0.13,3.14c0,1.53,0.12,3.1,0.34,4.71H413.05
			z"/>
		<path class="st1" d="M421.2,145.1c-0.36,0-0.58-0.09-0.67-0.27c-0.09-0.18-0.13-0.41-0.13-0.69v-1.26c0-0.26,0.05-0.46,0.15-0.61
			c0.1-0.16,0.32-0.23,0.65-0.23h5.21v-27.1h4.32v30.16H421.2z"/>
	</g>
	<rect x="436.89" y="114.94" class="st1" width="4.29" height="30.16"/>
	<g>
		<path class="st1" d="M467.82,128.11c0.23,1.58,0.42,3.22,0.55,4.92c0.14,1.7,0.21,3.44,0.21,5.22c0,0.64-0.02,1.26-0.04,1.87
			c-0.03,0.61-0.07,1.25-0.12,1.92h3.86c0.36,0,0.6,0.07,0.75,0.23c0.14,0.15,0.21,0.4,0.21,0.73v1.11c0,0.66-0.32,1-0.96,1h-18.41
			c-0.48-1.07-0.86-2.21-1.13-3.4c-0.27-1.2-0.4-2.38-0.4-3.52c0-1.53,0.26-2.91,0.78-4.15c0.52-1.24,1.22-2.3,2.11-3.18
			c0.88-0.88,1.9-1.56,3.06-2.03c1.16-0.47,2.38-0.71,3.65-0.71H467.82z M456.34,121.45c0-0.59,0.22-1.1,0.65-1.53
			c0.43-0.44,0.96-0.65,1.57-0.65c0.61,0,1.14,0.21,1.59,0.65c0.45,0.43,0.67,0.94,0.67,1.53c0,0.64-0.22,1.17-0.67,1.61
			c-0.44,0.43-0.98,0.65-1.59,0.65c-0.61,0-1.14-0.22-1.57-0.65C456.55,122.62,456.34,122.08,456.34,121.45 M463.99,142.04
			c0.13-0.82,0.22-1.61,0.29-2.4c0.06-0.77,0.09-1.55,0.09-2.31c0-1.07-0.05-2.12-0.15-3.14c-0.1-1.02-0.21-2.03-0.34-3.02h-2.18
			c-0.49,0-1.03,0.1-1.63,0.31c-0.6,0.21-1.16,0.55-1.67,1.03c-0.51,0.49-0.95,1.12-1.3,1.91c-0.35,0.79-0.53,1.79-0.53,2.99
			c0,0.79,0.08,1.57,0.23,2.35c0.15,0.78,0.41,1.54,0.76,2.28H463.99z M462.58,121.45c0-0.59,0.22-1.1,0.65-1.53
			c0.43-0.44,0.96-0.65,1.57-0.65c0.64,0,1.17,0.21,1.59,0.65c0.42,0.43,0.63,0.94,0.63,1.53c0,0.64-0.21,1.17-0.63,1.61
			c-0.42,0.43-0.95,0.65-1.59,0.65c-0.61,0-1.14-0.22-1.57-0.65C462.79,122.62,462.58,122.08,462.58,121.45"/>
		<path class="st1" d="M471.57,145.1c-0.35,0-0.58-0.09-0.67-0.27c-0.09-0.18-0.14-0.41-0.14-0.69v-1.26c0-0.26,0.05-0.46,0.15-0.61
			c0.1-0.16,0.32-0.23,0.65-0.23h6.7c-1.15-1.12-2.09-2.31-2.83-3.56c-0.74-1.25-1.11-2.63-1.11-4.14c0-1.35,0.26-2.52,0.79-3.5
			c0.52-0.98,1.2-1.8,2.05-2.47c0.84-0.66,1.81-1.16,2.89-1.47c1.09-0.32,2.19-0.48,3.31-0.48c0.72,0,1.52,0.09,2.43,0.25
			c0.91,0.17,1.68,0.4,2.32,0.71v3.06c-0.51-0.25-1.11-0.45-1.8-0.59c-0.69-0.14-1.22-0.21-1.6-0.21c-0.8,0-1.55,0.1-2.28,0.29
			c-0.72,0.2-1.36,0.51-1.91,0.94c-0.55,0.43-0.99,1-1.32,1.69c-0.33,0.69-0.5,1.52-0.5,2.49c0,0.72,0.12,1.43,0.34,2.12
			c0.23,0.7,0.53,1.35,0.88,1.95c0.36,0.6,0.77,1.15,1.25,1.65c0.47,0.5,0.94,0.92,1.39,1.28h9.34c0.38,0,0.64,0.07,0.79,0.23
			c0.14,0.15,0.21,0.39,0.21,0.73v1.11c0,0.66-0.33,0.99-1,0.99H471.57z"/>
		<path class="st1" d="M491.16,145.1c-0.36,0-0.58-0.09-0.67-0.27c-0.09-0.18-0.13-0.41-0.13-0.69v-1.26c0-0.25,0.05-0.46,0.15-0.61
			c0.1-0.15,0.32-0.23,0.65-0.23h3.95c-0.08-1.3-0.12-2.56-0.12-3.79c0-1.78,0.07-3.53,0.21-5.22c0.14-1.7,0.31-3.34,0.52-4.92h5.86
			c1.3,0,2.53,0.23,3.69,0.71c1.16,0.47,2.18,1.15,3.06,2.03c0.88,0.88,1.58,1.94,2.11,3.18c0.52,1.24,0.79,2.62,0.79,4.15
			c0,1.15-0.14,2.32-0.42,3.52c-0.28,1.2-0.65,2.34-1.11,3.41H491.16z M505.98,142.04c0.36-0.74,0.62-1.5,0.79-2.28
			c0.16-0.78,0.25-1.56,0.25-2.35c0-1.2-0.18-2.2-0.53-2.99c-0.36-0.79-0.8-1.43-1.32-1.92c-0.52-0.48-1.08-0.82-1.67-1.03
			c-0.59-0.21-1.12-0.31-1.61-0.31h-2.18c-0.13,1-0.24,2-0.34,3.03c-0.1,1.02-0.15,2.06-0.15,3.14c0,1.53,0.12,3.1,0.35,4.71H505.98
			z"/>
		<path class="st1" d="M516.65,145.1v-30.16h4.29v27.1h3.37c0.36,0,0.61,0.07,0.75,0.23c0.14,0.15,0.21,0.39,0.21,0.73v1.11
			c0,0.66-0.32,0.99-0.96,0.99H516.65z"/>
		<path class="st1" d="M523.58,145.1c-0.36,0-0.58-0.09-0.67-0.27c-0.09-0.18-0.14-0.41-0.14-0.69v-1.26c0-0.26,0.05-0.46,0.15-0.61
			c0.1-0.16,0.32-0.23,0.65-0.23h16.15c-0.33-0.67-0.59-1.4-0.78-2.2c-0.19-0.8-0.35-1.61-0.48-2.43c-0.18-1.04-0.38-2.07-0.6-3.08
			c-0.21-1.01-0.55-1.91-1.01-2.7c-0.46-0.79-1.09-1.43-1.88-1.91c-0.79-0.48-1.86-0.73-3.21-0.73c-1.28,0-2.73,0.29-4.36,0.88
			c-0.13-0.36-0.24-0.71-0.33-1.07c-0.09-0.36-0.18-0.71-0.29-1.07c0.36-0.16,0.77-0.31,1.23-0.46c0.46-0.16,0.95-0.3,1.48-0.42
			c0.52-0.12,1.06-0.23,1.62-0.3c0.56-0.08,1.11-0.12,1.65-0.12c1.4,0,2.61,0.16,3.62,0.48c1.01,0.32,1.87,0.76,2.58,1.32
			c0.72,0.56,1.3,1.22,1.76,1.97c0.46,0.75,0.84,1.57,1.13,2.45c0.29,0.88,0.52,1.8,0.69,2.76c0.16,0.96,0.31,1.92,0.44,2.89
			c0.15,1.25,0.34,2.45,0.56,3.6c0.21,1.15,0.54,2.22,0.97,3.22H523.58z M531.16,150.15c0-0.64,0.21-1.17,0.63-1.59
			c0.42-0.43,0.95-0.63,1.59-0.63c0.61,0,1.14,0.21,1.57,0.63c0.43,0.42,0.65,0.95,0.65,1.59c0,0.61-0.22,1.13-0.65,1.55
			c-0.43,0.42-0.96,0.63-1.57,0.63c-0.64,0-1.17-0.21-1.59-0.63C531.37,151.28,531.16,150.76,531.16,150.15"/>
	</g>
	<polygon class="st1" points="242.18,159.63 243.66,159.63 243.66,167.47 250.76,159.63 252.69,159.63 247.44,165.41 253.4,174.85 
		251.72,174.85 246.46,166.5 243.66,169.58 243.66,174.85 242.18,174.85 	"/>
	<rect x="258.98" y="159.63" class="st1" width="1.48" height="15.23"/>
	<polygon class="st1" points="267.91,159.63 270.22,159.63 277.75,172.07 277.75,159.63 279.22,159.63 279.22,174.85 277.75,174.85 
		269.39,160.96 269.39,174.85 267.91,174.85 	"/>
	<g>
		<path class="st1" d="M293,172.13c-0.58,0.74-1.22,1.3-1.92,1.67c-0.7,0.38-1.52,0.57-2.46,0.57c-1.74,0-3.15-0.62-4.23-1.87
			c-1.26-1.44-1.89-3.44-1.89-6c0-2.58,0.6-4.55,1.81-5.91c1.21-1.36,2.68-2.04,4.42-2.04c0.97,0,1.88,0.21,2.71,0.63
			c0.84,0.42,1.52,1.01,2.06,1.77c0.38,0.54,0.7,1.28,0.95,2.23l-1.61,0.32c-0.2-0.68-0.41-1.21-0.65-1.6
			c-0.39-0.64-0.88-1.13-1.45-1.48c-0.57-0.35-1.2-0.53-1.9-0.53c-1.26,0-2.35,0.56-3.29,1.66c-0.94,1.11-1.41,2.72-1.41,4.82
			c0,1.27,0.2,2.44,0.6,3.5c0.4,1.06,0.96,1.84,1.69,2.36c0.73,0.52,1.51,0.77,2.35,0.77c0.67,0,1.3-0.15,1.9-0.45
			c0.59-0.3,1.06-0.68,1.41-1.13c0.35-0.45,0.58-0.93,0.71-1.42c0.13-0.5,0.19-1.1,0.19-1.81h-3.8v-1.47h5.25v7.34H293V172.13z"/>
	</g>
	<polygon class="st1" points="310.09,158.85 318.96,158.85 318.96,160.31 311.56,160.31 311.56,165.29 317.03,165.29 317.03,166.76 
		311.56,166.76 311.56,174.07 310.09,174.07 	"/>
	<path class="st1" d="M325.55,158.85h2.37l4.88,15.22h-1.49l-1.52-4.72h-6.15l-1.54,4.72h-1.5L325.55,158.85z M326.73,159.86
		l-2.61,8.02h5.2L326.73,159.86z"/>
	<rect x="338.49" y="158.85" class="st1" width="1.48" height="15.22"/>
	<g>
		<path class="st1" d="M348.01,169.81c0.17,0.6,0.35,1.07,0.56,1.4c0.35,0.54,0.81,0.97,1.38,1.3c0.57,0.32,1.26,0.49,2.07,0.49
			c1.13,0,2.02-0.29,2.67-0.87c0.65-0.58,0.97-1.27,0.97-2.06c0-0.73-0.29-1.34-0.87-1.85c-0.45-0.38-1.35-0.77-2.71-1.16
			c-1.84-0.53-3.14-1.14-3.93-1.84c-0.78-0.69-1.17-1.54-1.17-2.56c0-1.12,0.44-2.08,1.31-2.89c0.87-0.81,2.02-1.21,3.44-1.21
			c0.86,0,1.68,0.16,2.44,0.48c0.76,0.32,1.4,0.8,1.92,1.44c0.35,0.44,0.64,1.02,0.84,1.73l-1.53,0.47c-0.26-0.9-0.71-1.6-1.35-2.08
			c-0.64-0.48-1.41-0.72-2.3-0.72c-0.94,0-1.7,0.26-2.28,0.77c-0.58,0.51-0.87,1.12-0.87,1.82c0,0.58,0.23,1.1,0.7,1.57
			c0.47,0.47,1.48,0.93,3.06,1.38c1.87,0.54,3.16,1.16,3.87,1.86c0.7,0.71,1.05,1.61,1.05,2.68c0,1.22-0.48,2.26-1.43,3.12
			c-0.96,0.86-2.23,1.29-3.82,1.29c-0.99,0-1.9-0.2-2.72-0.59c-0.82-0.39-1.49-0.94-2-1.63c-0.36-0.47-0.64-1.11-0.86-1.93
			L348.01,169.81z"/>
	</g>
	<path class="st1" d="M366.62,158.85h2.36l4.88,15.22h-1.49l-1.52-4.72h-6.15l-1.54,4.72h-1.5L366.62,158.85z M367.8,159.86
		l-2.61,8.02h5.19L367.8,159.86z"/>
	<polygon class="st1" points="379.23,158.85 380.7,158.85 380.7,172.58 388.03,172.58 388.03,174.07 379.23,174.07 	"/>
	<g>
		<path class="st1" d="M402.65,158.85h1.47v9.96c0,1.25,0.36,2.24,1.07,2.96c0.71,0.72,1.68,1.08,2.9,1.08
			c0.96,0,1.75-0.17,2.35-0.5c0.61-0.33,1.06-0.82,1.36-1.45c0.3-0.64,0.45-1.34,0.45-2.1v-9.96h1.49v9.96
			c0,1.7-0.49,3.05-1.49,4.06c-0.99,1-2.32,1.5-3.98,1.5c-1.34,0-2.45-0.28-3.32-0.84c-0.87-0.56-1.47-1.28-1.8-2.13
			c-0.33-0.86-0.5-1.65-0.5-2.37V158.85z"/>
	</g>
	<polygon class="st1" points="420.67,158.85 422.98,158.85 430.52,171.29 430.52,158.85 431.98,158.85 431.98,174.07 430.52,174.07 
		422.15,160.17 422.15,174.07 420.67,174.07 	"/>
	<rect x="439.41" y="158.85" class="st1" width="1.48" height="15.22"/>
	<polygon class="st1" points="446.7,158.85 448.2,158.85 452.61,171.66 456.99,158.85 458.48,158.85 453.28,174.07 451.92,174.07 	
		"/>
	<polygon class="st1" points="463.94,158.85 472.9,158.85 472.9,160.3 465.41,160.3 465.41,165.26 470.98,165.26 470.98,166.73 
		465.41,166.73 465.41,172.61 473.63,172.61 473.63,174.07 463.94,174.07 	"/>
	<g>
		<path class="st1" d="M479.45,158.85h4.66c1.33,0,2.4,0.16,3.21,0.47c0.81,0.31,1.45,0.8,1.91,1.47c0.46,0.67,0.7,1.4,0.7,2.21
			c0,0.88-0.27,1.66-0.83,2.33c-0.55,0.68-1.39,1.19-2.52,1.53l3.7,7.21h-1.59l-3.59-6.91h-4.18v6.91h-1.48V158.85z M480.93,160.16
			v5.69h3.24c0.79,0,1.58-0.13,2.35-0.39c0.56-0.19,1-0.5,1.3-0.95c0.3-0.45,0.46-0.96,0.46-1.55c0-0.82-0.3-1.49-0.89-2.01
			c-0.59-0.53-1.48-0.79-2.67-0.79H480.93z"/>
		<path class="st1" d="M496.64,169.81c0.17,0.6,0.35,1.07,0.56,1.4c0.35,0.54,0.81,0.97,1.38,1.3c0.57,0.32,1.26,0.49,2.07,0.49
			c1.13,0,2.02-0.29,2.66-0.87c0.65-0.58,0.97-1.27,0.97-2.06c0-0.73-0.3-1.34-0.88-1.85c-0.45-0.38-1.35-0.77-2.71-1.16
			c-1.83-0.53-3.15-1.14-3.93-1.84c-0.78-0.69-1.17-1.54-1.17-2.56c0-1.12,0.44-2.08,1.31-2.89c0.87-0.81,2.02-1.21,3.44-1.21
			c0.87,0,1.68,0.16,2.44,0.48c0.76,0.32,1.4,0.8,1.92,1.44c0.35,0.44,0.64,1.02,0.85,1.73l-1.54,0.47c-0.27-0.9-0.71-1.6-1.35-2.08
			c-0.64-0.48-1.4-0.72-2.3-0.72c-0.94,0-1.7,0.26-2.28,0.77c-0.58,0.51-0.86,1.12-0.86,1.82c0,0.58,0.23,1.1,0.7,1.57
			c0.46,0.47,1.48,0.93,3.05,1.38c1.87,0.54,3.16,1.16,3.87,1.86c0.7,0.71,1.05,1.61,1.05,2.68c0,1.22-0.48,2.26-1.44,3.12
			c-0.96,0.86-2.23,1.29-3.82,1.29c-0.99,0-1.89-0.2-2.72-0.59c-0.83-0.39-1.49-0.94-2.01-1.63c-0.36-0.47-0.64-1.11-0.86-1.93
			L496.64,169.81z"/>
	</g>
	<rect x="512.44" y="158.85" class="st1" width="1.48" height="15.22"/>
	<polygon class="st1" points="520.01,158.85 531.17,158.85 531.17,160.3 526.35,160.3 526.35,174.07 524.87,174.07 524.87,160.3 
		520.01,160.3 	"/>
	<polygon class="st1" points="535.06,158.85 536.7,158.85 540.77,165.91 544.85,158.85 546.47,158.85 541.51,167.45 541.51,174.07 
		540.03,174.07 540.03,167.45 	"/>
	<line class="st2" x1="548.86" y1="111.48" x2="238.25" y2="111.48"/>
	<g>
		<path class="st3" d="M219.13,108.66c0,51.61-41.82,93.4-93.44,93.4c-51.58,0-93.42-41.79-93.42-93.4
			c0-51.6,41.83-93.43,93.42-93.43C177.31,15.23,219.13,57.06,219.13,108.66"/>
		<path class="st4" d="M207.89,108.34c0,45.83-37.16,83.02-83,83.02c-45.84,0-83.01-37.19-83.01-83.02
			c0-45.85,37.17-83.01,83.01-83.01C170.73,25.34,207.89,62.49,207.89,108.34"/>
		<path class="st5" d="M183.13,108.92c0,32.21-26.13,58.3-58.29,58.3c-32.21,0-58.3-26.09-58.3-58.3c0-32.19,26.09-58.29,58.3-58.29
			C157,50.63,183.13,76.73,183.13,108.92"/>
		<path class="st3" d="M127.26,172.95c-42.45,1.24-77.99-32.27-79.23-74.73c-0.66-22.62,8.61-44.29,25.43-59.46l0.98,1.09
			C57.93,54.73,48.85,76,49.5,98.19c1.22,41.64,36.08,74.53,77.72,73.31c41.65-1.22,74.53-36.08,73.31-77.73
			c-0.65-22.28-11.49-43.15-29.72-57.28l0.89-1.16c18.58,14.38,29.63,35.67,30.29,58.39C203.23,136.18,169.7,171.71,127.26,172.95"
			/>
		<path class="st6" d="M60.65,156.17l6.83-6.1l1.14,1.28l-3.04,2.7l0.01,0.01c0.72-0.27,1.61-0.48,2.36-0.65l2.07-0.49l1.28,1.43
			l-4.44,0.93l-2.33,5.24l-1.27-1.44l1.62-3.61l-1.14,0.21l-1.96,1.75L60.65,156.17z"/>
	</g>
	
		<rect x="64.74" y="157.92" transform="matrix(0.7041 -0.7101 0.7101 0.7041 -92.2439 96.2151)" class="st6" width="9.16" height="1.71"/>
	<g>
		<path class="st6" d="M77.23,159.81l1.3,1.12l-5.98,6.92l-1.36-1.17l1.12-3.33c0.38-1.12,0.82-2.2,1.46-3.55l-0.02-0.02
			c-0.45,0.61-1,1.36-1.57,2.1c-0.57,0.72-1.13,1.44-1.61,1.98l-1.12,1.31l-1.3-1.12l5.99-6.93l1.34,1.16l-1.17,3.38
			c-0.37,1.1-0.8,2.16-1.46,3.56l0.02,0.01c0.49-0.67,1.04-1.38,1.57-2.08c0.53-0.7,1.08-1.38,1.62-2.01L77.23,159.81z"/>
		<path class="st6" d="M77.19,164.79c1.42-1.86,2.58-3.17,4.8-1.57c1.18,0.86,1.79,1.76,1.18,3.28c-0.14,0.35-0.37,0.65-0.57,0.95
			l-1.38-0.99c0.52-0.78,0.89-1.4-0.03-2.12c-1.09-0.79-1.93,0.59-2.34,1.16l-1.47,2.07c-0.44,0.61-1.11,1.66-0.15,2.33
			c0.79,0.57,1.66-0.1,2.42-1.24l-0.97-0.69l0.79-1.09l2.32,1.65l-2.86,4.01l-1.05-0.75l0.61-0.86l-0.02-0.01
			c-0.84,0.58-1.52,0.42-2.05,0.1c-2.28-1.63-1.41-3.19,0.01-5.18L77.19,164.79z"/>
	</g>
	<polygon class="st6" points="89.37,178.45 93.1,170.09 97.53,172.07 96.97,173.29 94.12,172.01 93.17,174.13 95.86,175.33 
		95.31,176.56 92.62,175.35 90.93,179.15 	"/>
	<g>
		<path class="st6" d="M94.19,180.61l5.15-7.88l2.18,0.78l-1.14,9.32l-1.72-0.62l0.36-2.34l-1.88-0.67l-1.21,2.02L94.19,180.61z
			 M97.83,178.03l1.38,0.48l0.44-2.6c0.07-0.44,0.17-0.83,0.27-1.25c0.06-0.2,0.1-0.41,0.14-0.6l-0.02-0.01
			c-0.09,0.17-0.19,0.36-0.26,0.56c-0.2,0.39-0.37,0.76-0.59,1.13L97.83,178.03z"/>
	</g>
	<polygon class="st6" points="101.63,183.16 104.17,174.36 105.81,174.83 103.28,183.63 	"/>
	<g>
		<path class="st6" d="M110,178.7c0.18-0.8,0.29-1.61-0.63-1.8c-0.56-0.13-0.97,0.02-1.1,0.63c-0.15,0.68,0.22,1.04,0.67,1.49
			c0.47,0.46,1.34,1.36,1.71,1.91c0.45,0.68,0.51,1.26,0.34,2.04c-0.37,1.69-1.69,2.33-3.32,1.97c-2.01-0.44-2.47-1.71-2.12-3.31
			l0.15-0.66l1.67,0.37l-0.12,0.53c-0.22,0.85-0.1,1.54,0.73,1.72c0.7,0.15,1.12-0.14,1.26-0.82c0.11-0.53-0.04-0.94-0.4-1.33
			c-0.72-0.87-1.7-1.6-2.19-2.64c-0.18-0.46-0.23-1-0.13-1.46c0.34-1.53,1.38-2.18,3.15-1.79c2.65,0.58,2.13,2.61,1.95,3.51
			L110,178.7z"/>
		<path class="st6" d="M111.61,185.54l3.36-8.79l2.28,0.3l0.87,9.35l-1.81-0.24l-0.15-2.36l-1.99-0.26l-0.74,2.24L111.61,185.54z
			 M114.61,182.25l1.45,0.19l-0.12-2.64c-0.03-0.44-0.01-0.85,0-1.28c0.01-0.21,0.02-0.41,0.02-0.61h-0.02
			c-0.05,0.18-0.1,0.39-0.14,0.59c-0.1,0.42-0.19,0.83-0.33,1.24L114.61,182.25z"/>
	</g>
	<polygon class="st6" points="119.5,186.48 119.95,177.33 121.66,177.41 121.27,185.22 124.44,185.38 124.37,186.73 	"/>
	<g>
		<path class="st6" d="M138.49,176.54l1.7-0.25l0.93,6.32c0.3,2.01-0.21,3.06-2.42,3.38c-2.23,0.32-3.03-0.53-3.33-2.53l-0.93-6.32
			l1.68-0.25l0.92,6.17c0.13,0.87,0.32,1.73,1.46,1.56c1.1-0.17,1.04-1.04,0.91-1.92L138.49,176.54z"/>
		<path class="st6" d="M145.43,175.07l1.65-0.41l2.19,8.89l-1.74,0.43l-2.07-2.85c-0.7-0.95-1.31-1.94-2.05-3.24l-0.03,0
			c0.25,0.71,0.53,1.6,0.8,2.49c0.27,0.88,0.53,1.76,0.7,2.47l0.41,1.67l-1.66,0.41l-2.18-8.89l1.72-0.43l2.09,2.92
			c0.68,0.93,1.3,1.89,2.05,3.25l0.03-0.01c-0.26-0.79-0.53-1.65-0.79-2.49c-0.25-0.84-0.5-1.68-0.69-2.48L145.43,175.07z"/>
	</g>
	<polygon class="st6" points="151.21,182.92 148.43,174.2 150.05,173.68 152.85,182.41 	"/>
	<g>
		<path class="st6" d="M155.04,171.83l1.7-0.67l1.5,9.25l-2.13,0.83l-5.23-7.78l1.71-0.67l3.14,5.07c0.28,0.44,0.53,0.9,0.76,1.38
			c0.11,0.22,0.25,0.44,0.34,0.68l0.02-0.01c-0.09-0.24-0.14-0.5-0.21-0.73c-0.14-0.51-0.28-1.02-0.37-1.53L155.04,171.83z"/>
	</g>
	<polygon class="st6" points="161.41,179.07 157.39,170.84 161.72,168.73 162.3,169.94 159.52,171.29 160.53,173.37 163.09,172.11 
		163.69,173.33 161.12,174.58 162.37,177.11 165.14,175.74 165.74,176.95 	"/>
	<g>
		<path class="st6" d="M166.74,171.85l2.03,3.38l-1.47,0.89l-4.71-7.86l2.78-1.67c1.27-0.76,2.49-0.89,3.36,0.55
			c0.52,0.85,0.83,1.89-0.07,2.62l0.01,0.01c0.94-0.4,1.53,0,1.98,0.75c0.2,0.32,1.31,2.28,1.81,2.29l0.09,0.14l-1.61,0.97
			c-0.49-0.39-1.03-1.37-1.35-1.89c-0.3-0.47-0.68-1.14-1.27-0.99c-0.47,0.12-0.89,0.39-1.31,0.64L166.74,171.85z M166.05,170.7
			l1.15-0.69c0.46-0.32,0.65-0.86,0.18-1.65c-0.52-0.88-0.98-0.8-1.54-0.48l-1.09,0.66L166.05,170.7z"/>
		<path class="st6" d="M173.16,164.71c-0.48-0.67-1.01-1.28-1.77-0.72c-0.46,0.33-0.63,0.74-0.26,1.24
			c0.42,0.57,0.92,0.53,1.57,0.48c0.66-0.04,1.9-0.1,2.56-0.01c0.81,0.11,1.28,0.46,1.74,1.1c1.03,1.4,0.63,2.81-0.72,3.79
			c-1.67,1.21-2.93,0.71-3.89-0.61l-0.4-0.54l1.38-1.01l0.31,0.43c0.5,0.75,1.09,1.11,1.78,0.61c0.58-0.42,0.63-0.93,0.22-1.49
			c-0.31-0.43-0.72-0.58-1.26-0.58c-1.13-0.03-2.33,0.21-3.42-0.11c-0.48-0.17-0.9-0.48-1.18-0.88c-0.92-1.26-0.71-2.48,0.75-3.53
			c2.2-1.61,3.37,0.14,3.91,0.86L173.16,164.71z"/>
	</g>
	<polygon class="st6" points="179.79,167.61 173.94,160.58 175.26,159.49 181.1,166.54 	"/>
	<polygon class="st6" points="175.91,158.97 180.07,155.08 181,156.06 179.54,157.42 184.88,163.13 183.64,164.3 178.29,158.59 
		176.84,159.96 	"/>
	<g>
		<path class="st6" d="M183.8,154.59c0.46,0.17,0.9,0.37,1.31,0.64l0.01-0.02c-0.44-0.56-0.67-1.08-0.9-1.58l-0.98-2l1.25-1.38
			l2.27,5.33l2.87,2.62l-1.14,1.27l-2.89-2.63l-5.49-1.78l1.26-1.39L183.8,154.59z"/>
		<path class="st6" d="M171.36,58.75c-0.91-0.81-1.36-1.2-2.3-1.96c0.46-0.57,0.69-0.85,1.15-1.42c0.96,0.78,1.43,1.18,2.36,2.01
			C172.08,57.92,171.84,58.2,171.36,58.75"/>
		<path class="st6" d="M175.28,62.53c-0.86-0.89-1.29-1.32-2.17-2.17c0.5-0.53,0.75-0.79,1.26-1.33c0.91,0.87,1.36,1.31,2.23,2.23
			C176.07,61.77,175.8,62.02,175.28,62.53"/>
		<path class="st6" d="M77.06,60.12c-0.88,0.84-1.32,1.27-2.18,2.15L73.57,61c0.88-0.91,1.32-1.35,2.24-2.21
			C76.31,59.32,76.56,59.59,77.06,60.12"/>
		<path class="st6" d="M73.36,63.89c-0.67,0.73-1,1.13-1.02,1.17c0.29,0.93,0.33,1.81,0.15,2.64c-0.19,0.83-0.64,1.7-1.35,2.63
			c-0.51,0.67-1.1,1.19-1.79,1.56c-0.79,0.43-1.44,0.49-1.96,0.14c-0.61-0.42-1.1-1.14-1.43-2.18c-0.26-0.82-0.36-1.48-0.3-1.96
			c0.15,0.09,0.23,0.14,0.38,0.23c0.04,0.22,0.08,0.46,0.12,0.7c0.11,0.42,0.33,0.75,0.65,0.98c0.44,0.32,0.84,0.45,1.19,0.39
			c0.67-0.12,1.42-0.78,2.32-1.92c0.24-0.31,0.49-0.7,0.74-1.15c0.27-0.49,0.45-0.89,0.54-1.21c0,0.03-1.8-1.14-5.49-3.36
			c-0.12-0.61-0.23-1.42-0.31-2.43c0.08-0.09,1.01,0.37,2.51,1.45c0.51,0.37,1.04,0.84,1.55,1.21c0.83,0.61,1.45,0.73,1.72,0.37
			c0.18-0.2,0.26-0.29,0.44-0.49C72.55,63.15,72.82,63.4,73.36,63.89"/>
		<path class="st6" d="M75.12,62.04c-0.86,0.88-1.28,1.33-2.12,2.26c-0.54-0.49-0.81-0.74-1.36-1.23c0.85-0.95,1.28-1.41,2.17-2.32
			C74.33,61.27,74.59,61.52,75.12,62.04"/>
		<path class="st6" d="M87.21,52.18c-3.52,2.26-5.22,3.53-8.43,6.37c-0.25,0.22-0.71,0.26-1.38,0.12c0.07,0.24,0.12,0.56,0.17,0.97
			c-0.3,0.28-0.45,0.42-0.75,0.71c-0.5-0.53-0.75-0.8-1.26-1.33c0.43-0.41,0.65-0.62,1.09-1.02c0.2-0.19-0.25-0.65-0.43-1.09
			c-0.02-0.07,0.08-0.7,0.29-1.79c0.17,0.05,0.3,0.13,0.4,0.26c0.09,0.1,0.18,0.26,0.27,0.5c0.12,0.3,0.2,0.49,0.22,0.56
			c0.09,0.17,0.22,0.25,0.4,0.24c0.18-0.01,0.36-0.1,0.55-0.26c0.17-0.15,0.39-0.5,0.66-1.05c0.32-0.65,0.47-0.98,0.8-1.63
			c0.33-0.62,0.71-1.25,1.15-1.88c0.57-0.8,1.09-1.34,1.51-1.64c0.43-0.3,0.96-0.44,1.58-0.41c0.66,0.03,1.11,0.25,1.37,0.64
			c0.06,0.09,0.1,0.29,0.13,0.62c0.26-0.17,0.39-0.25,0.65-0.42C86.62,51.26,86.82,51.57,87.21,52.18 M84.2,52
			c-0.74-0.28-1.5-0.15-2.29,0.43c-0.39,0.29-0.79,0.77-1.18,1.44c-0.15,0.28-0.39,0.69-0.69,1.24C81.66,53.79,82.49,53.17,84.2,52"
			/>
		<path class="st6" d="M92.67,49.03c-0.43,0.22-0.65,0.34-1.08,0.57c-0.68,0.37-1.3,0.29-1.88-0.26c-0.03,0.37-0.07,0.83-0.11,1.38
			c-1.09,0.63-1.62,0.96-2.69,1.65c-0.4-0.61-0.59-0.92-0.99-1.53c1.28-0.83,1.92-1.22,3.24-1.98c0-0.19-0.48-0.83-0.57-1.36
			c-0.01-0.09,0.12-0.47,0.28-1c0.17-0.55,0.28-0.87,0.33-0.95c0.31,0.48,0.59,1.11,0.84,1.89c0.07,0.22,0.24,0.34,0.52,0.37
			c0.28,0.03,0.54-0.02,0.79-0.15c0.19-0.1,0.29-0.16,0.49-0.25C92.16,48.06,92.33,48.38,92.67,49.03 M92.76,51.03
			c-0.16,0.95-0.3,1.45-0.43,1.52c-0.1,0.05-0.66,0.07-1.71,0.09c-0.11,0.31-0.21,0.65-0.31,1.03c-0.19,0.05-0.48,0.09-0.87,0.13
			c-0.44,0.05-0.72,0.06-0.85,0.02c0.1-0.36,0.21-0.87,0.37-1.53c0.15,0.03,0.42,0.03,0.81,0.01c0.43-0.02,0.69-0.06,0.79-0.11
			c0.04-0.02,0.11-0.19,0.22-0.52c0.12-0.37,0.2-0.57,0.22-0.61C91.7,51.04,92.06,51.03,92.76,51.03"/>
		<path class="st6" d="M97.71,44.06c0.08,0.19,0.17,0.56,0.29,1.11c0.16,0.74,0.21,1.18,0.14,1.32c-2.37,0.97-3.53,1.52-5.81,2.71
			c-0.34-0.64-0.51-0.97-0.85-1.62c2.05-1.07,3.09-1.57,5.21-2.47c-0.07-0.17-0.21-0.37-0.4-0.6c-0.23-0.27-0.42-0.41-0.57-0.42
			c-0.1,0.21-0.19,0.42-0.27,0.63c-0.26,0.39-0.68,0.72-1.27,1C93.77,45.91,93.34,46,92.89,46c-0.52,0-0.86-0.15-1.01-0.45
			c-0.21-0.41-0.14-1.08,0.23-2.02c0.42-1.05,1.02-1.75,1.77-2.08c0.7-0.31,1.51-0.07,2.39,0.69
			C96.98,42.77,97.46,43.42,97.71,44.06 M92.46,41.14c0.03,0.06-0.11,0.32-0.41,0.76c-0.3,0.45-0.49,0.69-0.59,0.74
			c-0.07,0.03-0.38,0.02-0.91-0.02c-0.54-0.05-0.82-0.08-0.83-0.12c-0.03-0.06,0.08-0.34,0.34-0.84c0.26-0.5,0.44-0.76,0.53-0.81
			c0.05-0.02,0.36,0.01,0.96,0.1C92.15,41.04,92.45,41.11,92.46,41.14 M94.81,43.49c-0.62-0.32-1.09-0.38-1.39-0.22
			c-0.25,0.14-0.43,0.38-0.52,0.73c0.17,0.04,0.46,0.05,0.87,0.03c0.12-0.03,0.26-0.08,0.4-0.14C94.37,43.8,94.58,43.66,94.81,43.49
			"/>
		<path class="st6" d="M113.4,42.16c-0.9,0.15-1.35,0.23-2.24,0.41c-0.19,0.04-0.29-0.03-0.33-0.21c-0.07-0.37-0.11-0.55-0.19-0.92
			c-0.21,0.54-0.31,0.8-0.5,1.34c-2.7,0.58-4.04,0.94-6.69,1.78c-0.65,0.21-1.23,0.19-1.75-0.05c-0.5-0.23-0.85-0.61-1.05-1.15
			c-0.12-0.32-0.17-0.76-0.17-1.32c0-0.6,0.1-1.03,0.27-1.29c0,0.01,0.02,0.03,0.04,0.06c0.01,0.03,0.01,0.05,0.02,0.08
			c0.04,0.11,0.07,0.3,0.08,0.55c0.02,0.26,0.05,0.46,0.1,0.59c0.11,0.32,0.32,0.57,0.64,0.74c0.34,0.19,0.69,0.22,1.05,0.1
			c3.08-0.99,4.66-1.4,7.82-2.04c-0.64-1.72-0.97-2.58-1.65-4.3c0.25-0.54,0.61-1.23,1.11-2.06c0.12-0.02,0.55,0.92,1.05,2.69
			c0.17,0.6,0.29,1.28,0.46,1.89c0.27,0.97,0.65,1.46,1.06,1.39c0.22-0.04,0.33-0.06,0.56-0.09
			C113.22,41.08,113.28,41.43,113.4,42.16 M107.16,35.63c-0.03,0.26-0.15,0.99-0.42,1.26c-0.53,0.52-1.74,0.81-1.9,1.03
			c0.19,0.09,0.62,0.05,1.3-0.11c0.55-0.13,0.87-0.05,0.94,0.24c0.08,0.33-0.01,0.69-0.26,1.1c-0.36,0.58-0.99,0.99-1.9,1.25
			c-0.15,0.04-0.42,0.1-0.81,0.17c-0.49,0.08-0.77,0.1-0.85,0.05c0.01-0.02,0.37-0.23,1.07-0.61c0.7-0.38,1.11-0.64,1.22-0.8
			c-0.25,0.05-0.63,0.1-1.14,0.18c-0.51,0.08-0.79-0.03-0.85-0.32c-0.09-0.38,0.3-1.04,1.21-1.91
			C105.66,36.3,106.48,35.79,107.16,35.63"/>
		<path class="st6" d="M117.44,41.61c-0.76,0.08-1.13,0.13-1.89,0.22c-0.24,0.03-0.39-0.06-0.44-0.29c-0.07-0.34-0.1-0.51-0.17-0.85
			c-0.06,0.21-0.26,0.64-0.57,1.3c-0.56,0.08-0.85,0.13-1.41,0.23c-0.13-0.72-0.19-1.08-0.31-1.8c0.87-0.15,1.31-0.22,2.19-0.34
			c-0.6-1.75-0.91-2.63-1.55-4.37c0.33-0.54,0.8-1.21,1.42-2.01c0.1-0.01,0.41,0.9,0.87,2.75c0.44,1.74,0.66,2.74,0.69,2.98
			c0.03,0.3,0.19,0.43,0.46,0.4c0.2-0.02,0.3-0.03,0.5-0.06C117.32,40.52,117.36,40.88,117.44,41.61"/>
		<path class="st6" d="M119.95,41.38c-1.15,0.08-1.72,0.13-2.86,0.26l-0.2-1.82c1.17-0.13,1.76-0.18,2.94-0.27
			C119.87,40.29,119.9,40.66,119.95,41.38"/>
		<path class="st6" d="M127.9,41.27c-0.58-0.02-0.87-0.03-1.44-0.04c-0.09,0-0.2,0.12-0.31,0.36c-0.12,0.26-0.25,0.41-0.41,0.44
			c-1.52-0.74-2.3-1.09-3.9-1.75c-0.11,0.06-0.19,0.18-0.24,0.37c-0.06,0.22-0.12,0.36-0.19,0.43c-0.14,0.15-0.38,0.24-0.72,0.26
			c-0.42,0.03-0.63,0.04-1.05,0.07c-0.06-0.73-0.08-1.09-0.14-1.82c0.81-0.06,1.22-0.08,2.03-0.12c0.15,0,0.27-0.1,0.35-0.28
			c0.14-0.35,0.31-0.64,0.5-0.89c0.3-0.35,0.78-0.67,1.46-0.96c0.64-0.27,1.15-0.39,1.55-0.39c0.31,0,0.5,0.04,0.58,0.12
			c0.04,0.04,0.06,0.19,0.06,0.43c0,0.13,0.03,0.26,0.08,0.37c0.11,0.25,0.32,0.56,0.62,0.92c0.33,0.41,0.59,0.62,0.78,0.63
			c0.19,0.01,0.28,0.01,0.46,0.02C127.94,40.17,127.93,40.54,127.9,41.27 M124.88,39.37c0.05-0.06,0-0.3-0.06-0.48
			c-0.08-0.22-0.2-0.34-0.37-0.34c-0.52,0.01-0.87,0.08-1.06,0.22c0.1,0.05,0.3,0.14,0.57,0.27
			C124.51,39.29,124.85,39.4,124.88,39.37"/>
		<path class="st6" d="M130.49,41.42c-1.15-0.09-1.72-0.12-2.87-0.17c0.03-0.73,0.04-1.1,0.07-1.82c1.18,0.04,1.77,0.08,2.94,0.17
			C130.58,40.33,130.55,40.7,130.49,41.42"/>
		<path class="st6" d="M135.84,35.78c-0.76,0.54-1.13,0.82-1.87,1.38c-0.02,0.18-0.03,0.94-0.04,2.29
			c-0.03,0.27-0.15,0.65-0.36,1.13c-0.09,0.19-0.22,0.47-0.38,0.83c-0.04,0.11-0.15,0.17-0.3,0.2c-0.12,0.02-0.24,0.02-0.34,0.01
			c-0.04,0-0.08-0.01-0.12-0.02c-0.9-0.09-1.35-0.14-2.25-0.2c0.05-0.73,0.08-1.09,0.14-1.82c0.86,0.06,1.28,0.1,2.14,0.19
			c0.03,0,0.06-0.07,0.07-0.2c0.03-0.31,0-0.99-0.13-2.02c-0.08-0.68-0.12-1.02-0.21-1.71c-0.2-0.14-0.41-0.32-0.65-0.52
			c0.33-0.41,0.5-0.61,0.85-1.02c0.5-0.54,0.82-0.79,0.96-0.78c0,0.04,0.01,0.16,0.03,0.35c0.03,0.26,0.12,0.45,0.28,0.56
			C134.9,35.29,135.61,35.75,135.84,35.78"/>
		<path class="st6" d="M138.5,39.75c-0.2,1.11-0.76,1.97-1.64,2.61c0.03-2.2,0.03-3.3,0.01-5.51c0.02-0.11,0.31-0.45,0.89-1
			c0.53-0.51,0.87-0.8,0.99-0.89c0.03,0.71,0.04,1.23,0.03,1.58C138.76,37.73,138.66,38.8,138.5,39.75"/>
		<path class="st6" d="M147.86,37.12c-0.95,0.46-1.47,0.68-1.6,0.64c-0.04-0.01-0.29-0.2-0.77-0.57c-0.48-0.36-0.75-0.56-0.78-0.6
			c-0.35,0.12-0.71,0.27-1.08,0.43c-0.23-0.1-0.55-0.3-0.96-0.6c-0.34-0.25-0.57-0.43-0.67-0.54c0.36-0.16,0.88-0.42,1.55-0.74
			c0.09,0.12,0.32,0.32,0.67,0.6c0.38,0.29,0.63,0.46,0.76,0.5c0.07,0.02,0.27-0.04,0.61-0.17c0.37-0.14,0.6-0.21,0.68-0.22
			C146.92,36.35,147.23,36.6,147.86,37.12 M149.04,45.43c-0.72-0.26-1.07-0.38-1.8-0.63c-0.47-0.16-0.75-0.46-0.84-0.91
			c-0.01-0.03-0.03-0.43-0.06-1.21c-0.13,0-0.42,0.2-0.83,0.59c-0.32,0.29-0.61,0.4-0.87,0.32c-0.04-0.01-0.08-0.02-0.12-0.04
			c-1.58-0.79-2.67-1.22-3.23-1.35c0.06-0.21,0.29-0.59,0.7-1.12c0.48-0.61,0.89-0.98,1.21-1.11c0.29-0.11,0.84-0.22,1.68-0.31
			c0.82-0.09,1.34-0.17,1.56-0.26c0.02-0.06,0.01-0.16-0.02-0.3c-0.03-0.13-0.03-0.23-0.01-0.3c0.31-0.19,0.89-0.61,1.77-1.21
			c0.1,0.26,0.07,1.16-0.1,2.68c-0.17,1.5-0.23,2.33-0.17,2.48c0.12,0.27,0.5,0.52,1.11,0.73c0.26,0.09,0.39,0.14,0.64,0.23
			C149.42,44.41,149.3,44.75,149.04,45.43 M146.37,41.87c0.03-0.06,0.05-0.58,0.05-1.56c-0.03-0.01-0.15,0.04-0.35,0.16
			c-0.38,0.23-0.8,0.36-1.26,0.41c-0.23,0.02-0.39,0.08-0.5,0.18c0.17,0.1,0.54,0.25,1.11,0.47
			C145.94,41.71,146.25,41.83,146.37,41.87"/>
		<path class="st6" d="M151.28,46.29c-1.08-0.44-1.62-0.64-2.71-1.03c0.24-0.69,0.37-1.03,0.62-1.72c1.12,0.4,1.68,0.61,2.78,1.06
			C151.69,45.27,151.55,45.61,151.28,46.29"/>
		<path class="st6" d="M157.68,49.26c-0.89-0.47-1.34-0.7-2.24-1.13c-0.03-0.22-0.08-0.58-0.18-1.08c-0.2,0.13-0.54,0.3-1,0.53
			c-1.3-0.6-1.95-0.88-3.27-1.4l0.68-1.7c1.31,0.52,1.96,0.79,3.24,1.38c-0.04-0.22-0.15-0.44-0.32-0.68
			c-0.23-0.31-0.53-0.55-0.88-0.71c-0.18-0.08-0.43-0.16-0.74-0.23c0.02-0.05,0.27-0.23,0.73-0.53c0.41-0.26,0.7-0.44,0.86-0.53
			c0.05-0.04,0.3-0.05,0.75,0c0.56,0.06,1.07,0.19,1.52,0.4c0.76,0.35,1.28,0.86,1.58,1.5c0.23,0.51,0.28,0.9,0.13,1.18
			c-0.08,0.16-0.29,0.3-0.61,0.44c-0.35,0.15-0.56,0.26-0.61,0.32c0.48,0.24,0.72,0.37,1.2,0.62
			C158.19,48.29,158.02,48.61,157.68,49.26"/>
		<path class="st6" d="M164.31,51.01c-0.06,0.09-0.39,0.23-0.99,0.45c-0.6,0.22-0.92,0.32-0.98,0.28c-0.92-1.06-1.4-1.59-2.38-2.61
			c-0.09-0.05-0.33,0.04-0.74,0.28c-0.4,0.24-0.71,0.3-0.93,0.18c-0.41-0.22-0.61-0.33-1.03-0.54c0.34-0.65,0.51-0.97,0.84-1.62
			c0.58,0.3,0.86,0.45,1.43,0.76c0.14-0.09,0.34-0.24,0.62-0.43c0.58-0.36,1.21-0.57,1.89-0.63c0.38-0.02,0.78,0,1.19,0.07
			c0.13,0.02,0.34,0.05,0.6,0.1c0.38,0.07,0.7,0.19,0.94,0.34c0.21,0.13,0.33,0.28,0.31,0.41c-0.02,0.14-0.11,0.41-0.17,0.71
			c-0.05,0.25-0.12,0.65-0.22,1.17C164.62,50.38,164.48,50.75,164.31,51.01 M162.87,49.44c0.18-0.59,0.17-0.95-0.02-1.07
			c-0.28-0.17-0.65-0.26-1.1-0.26C162.21,48.64,162.43,48.9,162.87,49.44"/>
		<path class="st6" d="M167.18,55.31c-0.87-0.66-1.31-0.98-2.2-1.6c-0.02-0.08,1.06-2,3.14-5.81c0.1-0.03,0.78-0.16,2.05-0.36
			c-0.97,1.79-1.95,3.6-2.94,5.42c0.02,0.08,0.26,0.29,0.71,0.63c0.13,0.1,0.21,0.15,0.34,0.26L167.18,55.31z"/>
		<path class="st6" d="M169.31,57c-0.93-0.77-1.4-1.14-2.36-1.86c0.44-0.59,0.65-0.88,1.1-1.46c0.98,0.74,1.47,1.12,2.42,1.91
			C170.01,56.15,169.77,56.43,169.31,57"/>
		<path class="st6" d="M173.34,60.59c-0.88-0.85-1.33-1.26-2.24-2.06c0.48-0.55,0.73-0.83,1.21-1.37c0.93,0.82,1.39,1.25,2.3,2.12
			C174.11,59.8,173.85,60.07,173.34,60.59"/>
		<path class="st6" d="M184.82,70.46c-0.46-0.1-1.17-0.23-2.15-0.36c0.33,0.46,0.14,0.13-0.61-0.98c-0.75-1.11-1.24-1.78-1.45-2.05
			c-0.28-0.35-0.84-0.76-1.66-1.21c-0.82-0.44-1.36-0.8-1.62-1.1c-0.89-1.02-1.35-1.52-2.29-2.48c0.52-0.51,0.79-0.77,1.31-1.28
			c1.09,1.13,1.62,1.71,2.66,2.9c0.58,0.67,1.06,1.1,1.47,1.3c-0.02-0.12-0.15-0.52-0.41-1.19c-0.29-0.77-0.52-1.25-0.68-1.43
			c-0.28-0.32-0.8-0.69-1.55-1.08c-0.02-0.03,0.21-0.05,0.7-0.06c0.57-0.02,1.08,0.02,1.51,0.12c0.62,0.14,1.07,0.39,1.37,0.73
			c0.38,0.45,0.68,0.93,0.9,1.43c0.13,0.31,0.3,0.8,0.5,1.49c0.21,0.74,0.38,1.32,0.53,1.74C183.95,68.63,184.41,69.8,184.82,70.46
			 M178.8,69.2c0.01,0.01,0.01,0.01,0.01,0.02c-0.04,0.03-0.35-0.02-0.95-0.13c-0.66-0.13-1.03-0.21-1.07-0.27
			c-0.42-1.38-0.62-2.1-0.54-2.16c0.04-0.04,0.37,0,0.98,0.12c0.61,0.13,0.95,0.23,1,0.3c0.01,0.01,0.11,0.35,0.27,1.02
			C178.66,68.77,178.76,69.14,178.8,69.2"/>
		<path class="st5" d="M184.83,92.3c0.2,0,0.38,0.32,0.54,0.95c0.17,0.63,0.35,1.59,0.56,2.85l0.02,0.24v0.12
			c0,0.44-0.1,0.66-0.31,0.66h-0.04c-0.25,0-0.38-0.21-0.41-0.62c-0.03-0.41-0.25-1.69-0.68-3.82v-0.05
			C184.52,92.45,184.63,92.34,184.83,92.3"/>
		<path class="st5" d="M186.93,92.22c0.1,0,0.25,0.15,0.46,0.46c0.22,0.31,0.46,0.47,0.73,0.5c0.27-0.05,0.39-0.2,0.38-0.46
			c-0.01-0.26,0.06-0.38,0.23-0.36h0.07c0.11,0,0.22,0.16,0.31,0.47c0.09,0.32,0.22,0.49,0.4,0.53c0.17,0.04,0.29-0.03,0.36-0.21
			c0.07-0.18,0.1-0.36,0.08-0.53c-0.01-0.17,0.06-0.28,0.2-0.31c0.15-0.03,0.24,0.05,0.29,0.24c0.04,0.19,0.02,0.46-0.06,0.82
			c-0.09,0.36-0.31,0.55-0.66,0.58c-0.35,0.03-0.63-0.13-0.83-0.48h-0.02c-0.2,0.41-0.49,0.55-0.88,0.41
			c0.24,0.57,0.47,1.36,0.67,2.36l0.1,0.6c0,0.16-0.1,0.26-0.31,0.3h-0.05c-0.19,0-0.3-0.14-0.33-0.41
			c-0.29-1.33-0.53-2.22-0.74-2.66c-0.21-0.44-0.45-0.89-0.72-1.36l-0.02-0.1v-0.04C186.59,92.37,186.71,92.26,186.93,92.22"/>
		<path class="st5" d="M192.47,92.26c0.69,0,1.22,0.5,1.61,1.49c0.24,0,0.36,0.1,0.36,0.3v0.08c0,0.06-0.05,0.15-0.14,0.24
			c0.08,0.74,0.34,1.46,0.76,2.15l0.05,0.26c0,0.17-0.12,0.28-0.36,0.34c-0.29,0-0.58-0.43-0.86-1.29l-0.32-1.28
			c-0.27,0.05-0.52,0.08-0.74,0.08h-0.3c-0.62,0-1.04-0.23-1.27-0.7l-0.04-0.28c0-0.5,0.27-0.93,0.81-1.28
			C192.16,92.31,192.32,92.28,192.47,92.26 M191.92,93.55c0,0.21,0.24,0.32,0.74,0.32h0.1l0.57-0.04v-0.02
			c-0.25-0.58-0.52-0.86-0.81-0.86c-0.29,0-0.49,0.19-0.6,0.56V93.55z"/>
		<path class="st5" d="M196.39,93.59h0.08c0.95,0,1.84,0.4,2.69,1.21c0.28,0.37,0.41,0.7,0.41,0.99v0.21c0,0.55-0.4,0.9-1.19,1.04
			c-1.84,0.06-2.79-0.18-2.86-0.69l-0.02-0.09c0-0.65,0.41-1.27,1.23-1.85h0.02v-0.02c-0.45-0.02-0.68-0.12-0.68-0.31l-0.02-0.12
			C196.08,93.71,196.19,93.59,196.39,93.59 M197.62,94.65c-0.33,0.15-0.66,0.38-0.98,0.69c-0.32,0.32-0.48,0.65-0.48,1
			c0.33,0.11,1.09,0.14,2.26,0.08h0.04c0.32-0.04,0.47-0.15,0.47-0.35l0.02-0.08c0-0.34-0.33-0.73-0.98-1.17
			C197.79,94.71,197.68,94.65,197.62,94.65"/>
		<path class="st5" d="M62.1,91.65c-0.05,0.65-0.53,1.72-1.42,3.2c-0.89,1.47-1.35,2.33-1.37,2.56l-0.72-0.09
			c0.02-0.29,0.47-1.12,1.35-2.48c0.88-1.36,1.33-2.23,1.37-2.61c-0.56,0-1.39,0.03-2.49,0.1l0.1-0.69H62.1z"/>
		<path class="st5" d="M65.63,91.65l-0.09,0.66c-0.53-0.07-1.16-0.11-1.89-0.11c-0.06,0.21-0.14,0.71-0.25,1.48
			c1.48,0,2.23,0.48,2.23,1.44c0,0.73-0.33,1.31-0.98,1.74c-0.65,0.43-1.38,0.66-2.19,0.69l-0.06-0.51
			c0.66-0.05,1.24-0.22,1.73-0.51c0.5-0.29,0.74-0.7,0.74-1.23c0-0.4-0.16-0.68-0.48-0.83c-0.32-0.15-0.88-0.23-1.68-0.23
			c0.14-0.59,0.31-1.46,0.5-2.6H65.63z"/>
		<path class="st3" d="M96.8,64.4l-1.12,1.1l-9.62,2.82l4.76,5.78c0,0-0.71,0.67-1.2,0.76c-0.49,0.09-0.73,0.69-0.86,0.99
			c-0.14,0.31-0.38,1.07-0.94,1.23c-0.56,0.15-2.3,0.47-2.3,0.47s-0.79,0.16-0.89,0.37c-0.1,0.21-0.73,1.19-0.91,1.51
			c-0.19,0.32-0.87,0.83-1.1,1.02c-0.23,0.19-1.38,1.07-1.38,1.07l-5.57-0.63c0,0,0.05,0.69-0.13,1.28c-0.18,0.59-0.54,1.36-0.5,1.8
			c0.04,0.45-0.09,1.66-0.21,2.01c-0.12,0.35-0.6,1.28-0.6,1.28s-0.38,0.44,0.18,0.5c0.56,0.05,1.2,0.15,1.54,0.16
			c0.34,0,1.15,0.34,1.33,0.63c0.18,0.29,1.47,2.6,1.7,2.93c0.23,0.33,0.86,0.85,0.99,1.05c0.13,0.19,0.09,0.45,0.16,0.76
			c0.06,0.31,0.88,1.39,1.02,1.57c0.14,0.18,0.41,0.84,0.63,0.99c0.21,0.15,0.55,0.44,0.68,0.65c0.13,0.21,0.47,1.43,0.65,1.7
			c0.18,0.26,0.44,0.6,0.68,0.81c0.24,0.21,0.91,0.37,0.73,0.65c-0.18,0.28-0.47,0.48-0.31,0.73c0.16,0.25,0.52,0.46,0.89,0.71
			c0.36,0.24,0.81,0.98,1.04,1.44c0.24,0.45,0.77,0.92,0.89,1.36c0.12,0.44,0.2,1.13,0.15,1.36c-0.05,0.23-0.17,0.44-0.18,0.73
			c-0.02,0.29-0.07,0.54,0.26,0.81c0.33,0.26,0.85,0.84,0.81,1.17c-0.05,0.34,0,0.55,0.23,0.76c0.23,0.21,0.55,0.26,0.84,0.26
			c0.28,0,0.46,0.19,0.63,0.31c0.17,0.12,0.32,0.1,0.81,0.34c0.49,0.23,1.8,1.06,1.91,1.23c0.11,0.17,0.78,1.08,0.86,1.41
			c0.08,0.33,0.12,0.67,0.31,0.76c0.19,0.09,0.42,0.17,0.47,0.5c0.05,0.32,0.23,1.24,0.47,1.59c0.23,0.36,0.13,0.67,0.32,0.97
			c0.18,0.31,0.98,1.22,1.12,1.96c0.14,0.74,0.21,1.33,0.05,1.85c-0.16,0.52-0.28,1.2-0.32,1.36c-0.03,0.15-0.24,0.33,0.1,0.76
			c0.35,0.43,0.44,0.68,0.5,0.92c0.06,0.24,0.58,1.12,0.31,1.44c-0.27,0.32-0.39,0.53-0.18,0.92c0.21,0.39,1.03,1.99,1.33,2.35
			c0.3,0.36,1.31,1.83,1.46,2.04c0.15,0.21,0.67,0.64,1.07,0.76c0.4,0.11,0.98,0.15,1.25,0.39c0.27,0.24,0.74,0.59,0.99,0.73
			c0.25,0.14,0.84,0.55,0.84,0.55s0.06,0.66,0.26,0.81c0.2,0.14,0.61-0.13,0.81,0.23c0.2,0.36,0.12,0.69,0.52,0.89
			c0.4,0.2,0.46,0.57,0.44,0.79c-0.01,0.21-0.04,0.52,0.23,0.6c0.27,0.08,0.22,0.31,0.26,0.68c0.04,0.37,0.34,0.4,0.5,0.66
			c0.16,0.26,0.05,0.47,0.05,0.7c0.01,0.23,0.09,0.87,0.21,1.2c0.11,0.33,0.49,0.58,0.7,0.68c0.22,0.1,0.45,0.97,0.6,1.31
			c0.16,0.33,0.97,1.7,1.41,2.19c0.44,0.49,0.92,0.94,1.41,1.26c0.5,0.31,1.22,0.7,1.31,1.15c0.09,0.45,0.13,1.07,0.39,1.44
			c0.26,0.37,0.55,0.81,0.7,1.07c0.15,0.27,0.65,0.66,0.73,0.97c0.08,0.31,0.17,0.57,0.23,0.76s0.23,1.07,0.23,1.07l0.81-0.13
			c0,0,0.06-0.33,0.26-0.39c0.2-0.06,0.43-0.15,0.57-0.24c0.14-0.09,0.02-0.54,0.21-0.55c0.19-0.02,0.59,0.15,0.55-0.18
			c-0.04-0.34,0-0.55-0.26-0.74c-0.26-0.18-0.57-0.56-0.42-0.68c0.16-0.11,0.55-0.13,0.42-0.52c-0.14-0.4-0.3-0.53-0.16-0.71
			c0.15-0.18,0.28-0.25,0.47-0.42c0.19-0.17,0.19-0.39,0.05-0.57c-0.14-0.18-0.1-0.49,0.13-0.65c0.23-0.16,0.54-0.26,0.81-0.13
			c0.27,0.13,0.3,0.02,0.6,0.37c0.3,0.35,0.6,0.53,0.96,0.57c0.37,0.04,0.48,0.14,0.76,0.03c0.28-0.12,0.25-0.31,0.68-0.31
			c0.42-0.01,5.17,0,5.17,0s0.57,0.08,0.86,0.24c0.29,0.15,0.64,0.47,1.36,0.44c0.72-0.03,2.64,0.17,3.08,0.18
			c0.44,0.01,1.43,0.01,1.85-0.08c0.42-0.08,0.89-0.28,1.05,0.03c0.16,0.31,0.76,1.1,0.76,1.1s0.25,0.39,0.6,0.39
			c0.35,0,0.74,0.1,0.92,0.03c0.18-0.08,0.62-0.38,0.89-0.68c0.27-0.3,0.53-0.41,0.63-0.76c0.09-0.34,0.21-1.04,0.42-1.23
			c0.21-0.19,2.95-3.74,2.95-3.74l4.39-2.17c0,0,1.17-0.14,1.91-0.21c0.74-0.07,5.16-0.56,6.43-0.71c1.27-0.14,5.63-1.09,5.91-1.15
			c0.27-0.06,14.71-5.15,14.71-5.15s0.43-0.52,0.6-1.2c0.17-0.68,2.98-9.45,2.98-9.45l-2.14-3.61l-13.38-1.44l-4.57-6.38l-0.08-0.94
			c0,0-0.94-0.06-1.35-0.14c-0.41-0.08-0.2-0.53-0.09-0.74c0.11-0.21-0.18-0.31-0.7-0.22c-0.52,0.1-0.86,0.24-1.17-0.39
			c-0.32-0.63-0.61-1.09-0.61-1.09s-0.51-0.84-0.87-1.35c-0.36-0.5-0.52-0.78-0.52-1.17c0-0.4,0.11-1.14-0.52-1.35
			c-0.63-0.21-1.03-0.57-1.13-0.96c-0.1-0.39-0.94-1.91-0.83-2.39c0.11-0.48,0.26-1.09,0.26-1.09s0.53-0.73,0.22-0.96
			c-0.31-0.24-0.64-0.51-0.57-0.74c0.07-0.23,0.39-0.86-0.13-1.18c-0.52-0.31-1.13-0.73-1.39-0.96c-0.26-0.23-0.67-1.09-1-0.91
			c-0.33,0.18-0.55,0.01-0.74-0.26c-0.19-0.27-0.64-0.58-0.62-1c0.03-0.42,0.08-0.78-0.35-0.92c-0.42-0.14-0.32-0.24-0.7-0.39
			c-0.37-0.14-0.53-0.31-0.79-0.22c-0.25,0.09-0.52-0.73-0.17-0.78c0.34-0.06,0.34-0.25-0.09-0.78c-0.43-0.54-0.61-0.92-0.78-1.31
			c-0.17-0.39-0.96-2.18-0.96-2.18h-3.83l-1.17-2.61l-13.41-1.14L111,70.55c0,0-3.19-1.43-3.7-1.74c-0.51-0.32-4.19-2.75-4.44-2.92
			C102.61,65.72,96.8,64.4,96.8,64.4"/>
		<path class="st1" d="M149.3,135.3c0-0.05-0.35-4.94-5.36-4.94c-0.92,0-2.02,0.17-3.26,0.5c-4.29,1.16-9.02,3.87-9.22,3.99
			l-0.74,0.42l-0.74-0.42c-0.32-0.18-7.85-4.49-12.49-4.49c-5.01,0-5.36,4.89-5.36,4.94l-0.03,0.59h12.22h1.4h1.4h2.54h2.11h17.56
			L149.3,135.3z M119.89,131.99c2,0.54,7.32,2.31,9.09,3.13c-2.79-0.7-9.59-2.86-12.24-2.86c-2.26,0-3.5,1.02-4.3,1.64
			c0.57-1.17,1.69-2.43,4.15-2.43C117.5,131.47,118.61,131.65,119.89,131.99 M141.56,131.99c1.28-0.35,2.39-0.52,3.3-0.52
			c2.46,0,3.59,1.26,4.15,2.43c-0.79-0.61-2.03-1.64-4.3-1.64c-2.65,0-9.45,2.16-12.23,2.86
			C134.24,134.3,139.56,132.53,141.56,131.99"/>
		<path class="st1" d="M137.61,88.13c0.29-0.02,9.67,2.29,15.14,5.73c-5.31-1.13-6.96-0.85-12.35-1.23
			c4.78,3.79,8.82,8.57,11.81,14.25c-4.32-3.81-9.02-7.3-13.85-10.4c2.62,6.01,3.87,12.64,3.48,19.59
			c-2.15-6.55-5.03-12.94-8.31-18.9c-0.09,13.51-2.12,30.89-2.12,36.03c0-4.58-2.54-22.38-2.63-36.05
			c-3.64,6.56-6.46,13.06-8.31,18.92c-0.23-6.91,1.01-13.61,3.6-19.69c-5.31,3.39-10.06,6.98-13.97,10.5
			c3.09-5.59,7.18-10.42,12-14.28c-5.91,0.4-8.22,0.23-13.11,1.32c5.5-3.3,14.69-5.47,15.03-5.69c-3.47-5.1-10.19-11.6-10.19-11.6
			s6.72,2.83,14.96,8.09c-0.19-2.05,2.39-17.46,2.39-17.46s2.19,14.46,2.19,17.48c7.97-6.19,12.26-7.86,13.08-8.09
			C146.43,76.65,139.42,84.56,137.61,88.13"/>
		<path class="st1" d="M126.7,161.43h-2.47l-2.53-3.77c-0.05-0.07-0.12-0.23-0.23-0.48h-0.03v4.24h-1.95v-8.19
			c0-0.33,0.43-0.48,0.43-0.48h1.52v4.1h0.03c0.05-0.11,0.13-0.27,0.24-0.48l2.4-3.62h2.33l-3.02,4.13L126.7,161.43z"/>
		<path class="st1" d="M132.55,154.35h-3.06v2.13h2.81v1.58h-2.81v3.37h-1.95c0,0-0.01-8.25,0-8.35c0.03-0.24,0.27-0.32,0.27-0.32
			h4.74V154.35z"/>
		<path class="st1" d="M141.05,157.67c0,2.6-1.21,3.91-3.64,3.91c-2.35,0-3.53-1.27-3.53-3.82v-5.01h1.96v5.03
			c0,1.4,0.55,2.1,1.65,2.1c1.07,0,1.61-0.68,1.61-2.03v-5.1h1.95V157.67z"/>
		<path class="st1" d="M140.39,129.02c1.11-0.45,2.08-0.72,2.9-0.81c2.21-0.26,3.4,0.78,4.03,1.77c-0.78-0.47-2.05-1.28-4.08-1.04
			c-2.37,0.28-5.47,1.79-7.89,2.71C136.85,130.73,138.66,129.72,140.39,129.02"/>
		<path class="st1" d="M121.06,129.02c1.73,0.69,3.54,1.7,5.04,2.63c-2.42-0.92-5.52-2.43-7.89-2.71c-2.03-0.24-3.3,0.58-4.08,1.04
			c0.63-0.99,1.82-2.03,4.03-1.77C118.97,128.31,119.95,128.58,121.06,129.02"/>
		<g>
			<defs>
				<rect id="SVGID_1_" x="51.88" y="91.65" width="6.12" height="5.83"/>
			</defs>
			<clipPath id="SVGID_2_">
				<use xlink:href="#SVGID_1_"  style="overflow:visible;"/>
			</clipPath>
			<path class="st7" d="M53.3,95.87H52.6c0.08-0.56,0.16-1.13,0.22-1.73c0.07-0.64,0.1-1.13,0.11-1.46l-0.91,0.45l-0.14-0.34
				l1.47-1.05h0.39c-0.12,0.85-0.21,1.66-0.29,2.4C53.39,94.71,53.34,95.28,53.3,95.87"/>
			<path class="st7" d="M57.31,93.65c0-0.48-0.09-0.84-0.25-1.09c-0.17-0.24-0.38-0.37-0.63-0.37c-0.32,0-0.57,0.13-0.76,0.38
				c-0.19,0.26-0.29,0.55-0.29,0.88c0,0.3,0.08,0.56,0.25,0.77c0.17,0.21,0.41,0.32,0.74,0.32c0.38,0,0.68-0.15,0.92-0.46
				C57.3,93.94,57.31,93.8,57.31,93.65 M58,93.54c0,1.08-0.26,1.99-0.79,2.73c-0.53,0.74-1.31,1.15-2.34,1.21L54.8,97
				c1.35-0.1,2.16-0.93,2.43-2.48H57.2c-0.29,0.37-0.71,0.56-1.24,0.56c-0.41,0-0.72-0.14-0.94-0.43c-0.22-0.28-0.33-0.63-0.33-1.03
				c0-0.54,0.17-1,0.52-1.38c0.34-0.38,0.79-0.57,1.33-0.57c0.41,0,0.76,0.16,1.04,0.48C57.86,92.46,58,92.93,58,93.54"/>
		</g>
	</g>
</g>
<g>
	<path class="st3" d="M244.04,190.93c0,0.42-0.12,0.76-0.37,0.99c-0.24,0.24-0.57,0.35-0.99,0.35c-0.4,0-0.72-0.12-0.96-0.35
		c-0.24-0.23-0.36-0.55-0.36-0.95c0-0.42,0.12-0.76,0.36-0.99c0.24-0.24,0.56-0.36,0.98-0.36c0.4,0,0.72,0.12,0.96,0.35
		C243.92,190.22,244.04,190.53,244.04,190.93"/>
	<path class="st3" d="M249.67,190.93c0,0.42-0.12,0.76-0.37,0.99c-0.24,0.24-0.57,0.35-0.98,0.35c-0.4,0-0.72-0.12-0.96-0.35
		c-0.24-0.23-0.36-0.55-0.36-0.95c0-0.42,0.12-0.76,0.36-0.99c0.24-0.24,0.56-0.36,0.98-0.36c0.4,0,0.72,0.12,0.97,0.35
		C249.55,190.22,249.67,190.53,249.67,190.93"/>
	<path class="st3" d="M256.26,180.44c0-0.29,0.11-0.54,0.32-0.75c0.21-0.21,0.47-0.32,0.77-0.32c0.31,0,0.57,0.11,0.78,0.32
		c0.21,0.21,0.31,0.46,0.31,0.75c0,0.31-0.1,0.58-0.31,0.79c-0.2,0.21-0.46,0.32-0.78,0.32c-0.3,0-0.56-0.11-0.77-0.32
		C256.37,181.02,256.26,180.75,256.26,180.44 M256.96,190.54c0.06-0.4,0.11-0.79,0.14-1.17c0.03-0.38,0.05-0.76,0.05-1.14
		c0-0.52-0.03-1.04-0.08-1.54c-0.05-0.5-0.11-1-0.17-1.48h-1.07c-0.24,0-0.51,0.05-0.8,0.15c-0.29,0.1-0.57,0.27-0.82,0.51
		c-0.25,0.24-0.46,0.55-0.64,0.94c-0.18,0.39-0.26,0.88-0.26,1.46c0,0.39,0.04,0.77,0.11,1.16c0.08,0.38,0.2,0.75,0.38,1.12H256.96z
		 M253.2,180.44c0-0.29,0.11-0.54,0.32-0.75c0.21-0.21,0.47-0.32,0.77-0.32c0.3,0,0.56,0.11,0.78,0.32
		c0.22,0.21,0.33,0.46,0.33,0.75c0,0.31-0.11,0.58-0.33,0.79c-0.22,0.21-0.48,0.32-0.78,0.32c-0.3,0-0.56-0.11-0.77-0.32
		C253.31,181.02,253.2,180.75,253.2,180.44 M258.83,183.7c0.11,0.78,0.2,1.58,0.27,2.41c0.07,0.83,0.1,1.69,0.1,2.56
		c0,0.31-0.01,0.62-0.02,0.92c-0.01,0.3-0.03,0.61-0.06,0.94h1.9c0.18,0,0.3,0.04,0.37,0.11c0.07,0.08,0.1,0.19,0.1,0.36v0.55
		c0,0.32-0.15,0.49-0.47,0.49H252c-0.24-0.53-0.42-1.08-0.55-1.67c-0.13-0.59-0.2-1.16-0.2-1.73c0-0.75,0.13-1.43,0.38-2.03
		c0.26-0.61,0.6-1.13,1.03-1.56c0.43-0.43,0.93-0.76,1.5-0.99c0.57-0.23,1.17-0.35,1.79-0.35H258.83z"/>
	<path class="st3" d="M267.94,190.54c0.18-0.36,0.3-0.73,0.38-1.12c0.08-0.38,0.12-0.77,0.12-1.16c0-0.59-0.09-1.08-0.26-1.46
		c-0.18-0.39-0.39-0.7-0.65-0.94c-0.26-0.24-0.53-0.41-0.82-0.51c-0.29-0.1-0.55-0.15-0.79-0.15h-1.07
		c-0.06,0.49-0.12,0.98-0.17,1.48c-0.05,0.5-0.08,1.01-0.08,1.54c0,0.75,0.06,1.52,0.17,2.31H267.94z M260.67,192.04
		c-0.18,0-0.28-0.04-0.33-0.13c-0.04-0.09-0.07-0.2-0.07-0.34v-0.62c0-0.13,0.02-0.22,0.07-0.3c0.05-0.07,0.16-0.11,0.32-0.11h1.93
		c-0.04-0.64-0.06-1.26-0.06-1.86c0-0.88,0.03-1.73,0.1-2.56c0.07-0.83,0.15-1.63,0.25-2.41h2.87c0.64,0,1.24,0.12,1.81,0.35
		c0.57,0.23,1.07,0.56,1.5,0.99c0.43,0.43,0.78,0.95,1.03,1.56c0.26,0.61,0.39,1.28,0.39,2.03c0,0.57-0.07,1.14-0.21,1.73
		c-0.14,0.59-0.32,1.15-0.54,1.67H260.67z"/>
	<rect x="273.17" y="177.25" class="st3" width="2.1" height="14.79"/>
	<path class="st3" d="M286.56,191.8c-0.28-0.16-0.5-0.35-0.68-0.57c-0.18-0.23-0.32-0.47-0.42-0.72c-0.1-0.26-0.17-0.49-0.21-0.68
		c-0.05,0.47-0.17,0.86-0.35,1.14c-0.18,0.29-0.4,0.51-0.65,0.68c-0.25,0.16-0.53,0.27-0.82,0.32c-0.3,0.05-0.6,0.08-0.9,0.08h-4.9
		v-1.5h4.64c0.4,0,0.66-0.1,0.76-0.29c0.1-0.19,0.16-0.51,0.16-0.95v-1.46c0-0.52-0.04-1.01-0.1-1.45c-0.07-0.44-0.2-0.81-0.38-1.12
		c-0.19-0.31-0.45-0.56-0.78-0.73c-0.33-0.18-0.76-0.26-1.27-0.26h-1.95v-1.39h2.4c0.79,0,1.45,0.12,1.99,0.35
		c0.54,0.23,0.97,0.55,1.3,0.96c0.33,0.41,0.56,0.89,0.7,1.44c0.14,0.56,0.21,1.16,0.21,1.81c0,0.51,0.02,0.96,0.06,1.35
		c0.04,0.39,0.12,0.71,0.24,0.97c0.13,0.26,0.31,0.45,0.56,0.58c0.25,0.13,0.58,0.2,0.99,0.2h0.94c0.19,0,0.31,0.04,0.39,0.11
		c0.07,0.08,0.1,0.19,0.1,0.36v0.55c0,0.32-0.16,0.49-0.49,0.49h-0.49C287.18,192.04,286.83,191.96,286.56,191.8"/>
	<path class="st3" d="M292.15,180.44c0-0.29,0.1-0.54,0.32-0.75c0.21-0.21,0.47-0.32,0.77-0.32c0.31,0,0.57,0.11,0.78,0.32
		c0.21,0.21,0.31,0.47,0.31,0.75c0,0.31-0.1,0.58-0.31,0.79c-0.2,0.21-0.47,0.32-0.78,0.32c-0.3,0-0.56-0.11-0.77-0.32
		C292.26,181.02,292.15,180.75,292.15,180.44 M289.09,180.44c0-0.29,0.1-0.54,0.32-0.75c0.21-0.21,0.47-0.32,0.77-0.32
		c0.3,0,0.56,0.11,0.78,0.32c0.22,0.21,0.33,0.47,0.33,0.75c0,0.31-0.11,0.58-0.33,0.79c-0.22,0.21-0.48,0.32-0.78,0.32
		c-0.3,0-0.56-0.11-0.77-0.32C289.2,181.02,289.09,180.75,289.09,180.44 M287.5,192.04c-0.19,0-0.3-0.04-0.35-0.13
		c-0.04-0.09-0.07-0.2-0.07-0.34v-0.62c0-0.13,0.03-0.22,0.09-0.3c0.06-0.07,0.17-0.11,0.33-0.11h2.51c0.39,0,0.64-0.09,0.76-0.27
		c0.12-0.18,0.18-0.52,0.18-1.02v-5.54h2.1v4.41c0,0.63,0.1,1.15,0.29,1.59c0.2,0.43,0.55,0.7,1.06,0.8
		c0.09,0.01,0.18,0.02,0.27,0.03c0.1,0.01,0.19,0.01,0.29,0.01h13.61c0.19,0,0.32,0.04,0.39,0.11c0.07,0.08,0.1,0.19,0.1,0.35v0.55
		c0,0.32-0.16,0.49-0.49,0.49H295.7h-0.48c-0.11,0-0.2-0.01-0.29-0.04c-0.53-0.1-0.95-0.35-1.28-0.74c-0.33-0.4-0.54-0.88-0.64-1.44
		c-0.04,0.32-0.11,0.62-0.22,0.9c-0.11,0.27-0.27,0.51-0.48,0.7c-0.21,0.19-0.47,0.34-0.79,0.45c-0.32,0.11-0.71,0.16-1.19,0.16
		H287.5z"/>
	<path class="st3" d="M300.47,192.04c-0.17,0-0.28-0.04-0.33-0.13c-0.04-0.09-0.06-0.2-0.06-0.34v-0.62c0-0.13,0.03-0.22,0.08-0.3
		c0.05-0.07,0.16-0.11,0.32-0.11h15.7c0.36,0,0.61-0.09,0.73-0.27c0.12-0.18,0.19-0.51,0.19-0.98v-3.21h2.08v2.05
		c0,0.35,0.03,0.67,0.1,0.97c0.06,0.29,0.16,0.55,0.3,0.77c0.14,0.22,0.33,0.39,0.56,0.51c0.24,0.12,0.53,0.18,0.86,0.18h0.94
		c0.35,0,0.59-0.09,0.71-0.27c0.13-0.18,0.19-0.51,0.19-0.98v-4.37h2.1v3.21c0,0.35,0.03,0.67,0.1,0.97
		c0.06,0.29,0.16,0.55,0.3,0.77c0.14,0.22,0.33,0.39,0.56,0.51c0.24,0.12,0.53,0.18,0.86,0.18h1.63v-6.83h2.12v8.33h-3.25
		c-0.66,0-1.19-0.21-1.58-0.63c-0.39-0.42-0.65-0.95-0.78-1.59c-0.09,0.67-0.33,1.2-0.71,1.61c-0.39,0.4-1.04,0.61-1.97,0.61h-0.72
		c-0.66,0-1.19-0.21-1.59-0.63c-0.39-0.42-0.65-0.95-0.78-1.59c-0.04,0.34-0.11,0.64-0.23,0.91c-0.11,0.27-0.27,0.5-0.48,0.7
		c-0.2,0.19-0.47,0.34-0.8,0.45c-0.32,0.11-0.72,0.16-1.18,0.16H300.47z"/>
	<rect x="333.44" y="177.25" class="st3" width="2.1" height="14.79"/>
	<path class="st3" d="M343.61,190.54v-5.33h-1.28c-0.24,0-0.5,0.05-0.8,0.15c-0.29,0.1-0.57,0.27-0.82,0.51
		c-0.25,0.24-0.46,0.55-0.64,0.94c-0.18,0.39-0.26,0.88-0.26,1.46c0,0.39,0.04,0.77,0.11,1.16c0.08,0.38,0.2,0.75,0.38,1.12H343.61z
		 M338.54,192.04c-0.24-0.53-0.43-1.08-0.58-1.67c-0.15-0.59-0.23-1.16-0.23-1.73c0-0.75,0.13-1.43,0.38-2.03
		c0.26-0.61,0.6-1.13,1.03-1.56c0.43-0.43,0.93-0.76,1.51-0.99c0.58-0.23,1.18-0.35,1.8-0.35h3.25v7.02c0,0.25,0,0.49-0.01,0.73
		c-0.01,0.24-0.02,0.47-0.03,0.69c-0.02,0.79-0.16,1.44-0.4,1.94c-0.25,0.51-0.55,0.91-0.9,1.2c-0.36,0.29-0.75,0.5-1.16,0.62
		c-0.42,0.12-0.82,0.18-1.19,0.18c-0.48,0-0.96-0.06-1.45-0.19c-0.49-0.13-0.92-0.29-1.27-0.51c0.05-0.14,0.09-0.3,0.13-0.49
		c0.2,0.06,0.42,0.1,0.67,0.12c0.24,0.02,0.46,0.03,0.65,0.03c0.45,0,0.85-0.04,1.2-0.1c0.35-0.07,0.65-0.21,0.9-0.42
		c0.25-0.21,0.45-0.51,0.58-0.91c0.14-0.39,0.22-0.92,0.23-1.59H338.54z"/>
	<path class="st3" d="M352.63,190.93c0,0.42-0.12,0.76-0.36,0.99c-0.24,0.24-0.57,0.35-0.98,0.35c-0.4,0-0.72-0.12-0.96-0.35
		c-0.24-0.23-0.35-0.55-0.35-0.95c0-0.42,0.12-0.76,0.35-0.99c0.24-0.24,0.56-0.36,0.98-0.36c0.4,0,0.72,0.12,0.97,0.35
		C352.51,190.22,352.63,190.53,352.63,190.93"/>
	<path class="st3" d="M358.26,190.93c0,0.42-0.12,0.76-0.37,0.99c-0.24,0.24-0.57,0.35-0.98,0.35c-0.4,0-0.72-0.12-0.96-0.35
		c-0.24-0.23-0.36-0.55-0.36-0.95c0-0.42,0.12-0.76,0.36-0.99c0.24-0.24,0.56-0.36,0.97-0.36c0.4,0,0.72,0.12,0.97,0.35
		C358.14,190.22,358.26,190.53,358.26,190.93"/>
	<path class="st3" d="M362.4,192.04v-1.71h2.08v-1.71c0-0.75,0.1-1.36,0.3-1.84c0.2-0.48,0.47-0.85,0.8-1.12
		c0.34-0.27,0.72-0.45,1.14-0.55c0.43-0.09,0.87-0.14,1.32-0.14h1.45v1.71h-1c-0.31,0-0.61,0.02-0.88,0.06
		c-0.27,0.04-0.51,0.14-0.71,0.28c-0.2,0.14-0.36,0.34-0.48,0.6c-0.12,0.26-0.18,0.59-0.18,1v1.69h3.45v1.71H362.4z"/>
	<path class="st3" d="M372.05,192.04v-14.79h2.1v13.29h1.65c0.17,0,0.3,0.04,0.37,0.11c0.07,0.08,0.1,0.19,0.1,0.35v0.55
		c0,0.32-0.16,0.49-0.47,0.49H372.05z"/>
	<path class="st3" d="M394.06,190.54c0.17-0.36,0.3-0.73,0.38-1.12c0.08-0.38,0.12-0.77,0.12-1.16c0-0.59-0.09-1.08-0.26-1.46
		c-0.17-0.39-0.39-0.7-0.65-0.94c-0.26-0.24-0.53-0.41-0.81-0.51c-0.29-0.1-0.55-0.15-0.79-0.15h-1.07
		c-0.08,0.49-0.13,0.98-0.18,1.48c-0.04,0.5-0.06,1.01-0.06,1.54c0,0.75,0.06,1.52,0.17,2.31H394.06z M375.41,192.04
		c-0.17,0-0.28-0.04-0.33-0.13c-0.04-0.09-0.06-0.2-0.06-0.34v-0.62c0-0.13,0.03-0.22,0.08-0.3c0.05-0.07,0.16-0.11,0.32-0.11h13.32
		c-0.01-0.32-0.02-0.64-0.04-0.94c-0.02-0.3-0.02-0.61-0.02-0.92c0-0.88,0.03-1.73,0.1-2.56c0.07-0.83,0.16-1.63,0.25-2.41h2.72
		c0.65,0,1.27,0.11,1.86,0.34c0.59,0.22,1.11,0.55,1.56,0.98c0.45,0.43,0.81,0.94,1.07,1.55c0.26,0.61,0.39,1.3,0.39,2.07
		c0,0.31-0.02,0.63-0.06,0.95c-0.04,0.32-0.1,0.64-0.18,0.95h2.03c0.19,0,0.32,0.04,0.39,0.11c0.07,0.08,0.1,0.19,0.1,0.35v0.55
		c0,0.32-0.16,0.49-0.49,0.49H375.41z"/>
	<path class="st3" d="M400.89,180.46c0-0.3,0.1-0.56,0.31-0.77c0.21-0.21,0.47-0.32,0.78-0.32c0.3,0,0.55,0.11,0.76,0.32
		c0.21,0.21,0.31,0.47,0.31,0.77c0,0.3-0.1,0.56-0.31,0.77c-0.21,0.21-0.46,0.32-0.76,0.32c-0.31,0-0.57-0.11-0.78-0.32
		C400.99,181.02,400.89,180.76,400.89,180.46 M398.05,192.04c-0.17,0-0.28-0.04-0.33-0.13c-0.04-0.09-0.07-0.2-0.07-0.34v-0.62
		c0-0.13,0.03-0.22,0.07-0.3c0.05-0.07,0.16-0.11,0.32-0.11h2.81v-6.83h2.12v8.33H398.05z"/>
	<path class="st3" d="M409.89,190.93c0,0.42-0.12,0.76-0.37,0.99c-0.24,0.24-0.57,0.35-0.99,0.35c-0.4,0-0.72-0.12-0.95-0.35
		c-0.24-0.23-0.36-0.55-0.36-0.95c0-0.42,0.12-0.76,0.36-0.99c0.24-0.24,0.56-0.36,0.98-0.36c0.4,0,0.72,0.12,0.97,0.35
		C409.77,190.22,409.89,190.53,409.89,190.93"/>
	<path class="st3" d="M415.52,190.93c0,0.42-0.12,0.76-0.37,0.99c-0.24,0.24-0.57,0.35-0.98,0.35c-0.4,0-0.72-0.12-0.96-0.35
		c-0.24-0.23-0.36-0.55-0.36-0.95c0-0.42,0.12-0.76,0.36-0.99c0.24-0.24,0.56-0.36,0.98-0.36c0.4,0,0.72,0.12,0.97,0.35
		C415.4,190.22,415.52,190.53,415.52,190.93"/>
	<path class="st3" d="M424.2,180.8c0-0.3,0.1-0.56,0.31-0.77c0.21-0.21,0.47-0.32,0.78-0.32c0.3,0,0.55,0.11,0.76,0.32
		c0.21,0.21,0.31,0.47,0.31,0.77s-0.1,0.56-0.31,0.77c-0.2,0.21-0.46,0.31-0.76,0.31c-0.31,0-0.57-0.1-0.78-0.31
		C424.3,181.35,424.2,181.1,424.2,180.8 M430.64,191.39c-0.05,0.37-0.13,0.69-0.23,0.97c-0.2,0.6-0.49,1.14-0.86,1.61
		c-0.37,0.48-0.8,0.88-1.29,1.21c-0.49,0.33-1.02,0.59-1.59,0.76c-0.58,0.18-1.18,0.26-1.82,0.26c-0.96,0-1.78-0.14-2.45-0.42
		c-0.67-0.28-1.22-0.65-1.64-1.1c-0.43-0.45-0.73-0.96-0.92-1.54c-0.19-0.58-0.28-1.16-0.28-1.75c0-0.84,0.14-1.62,0.43-2.34
		c0.29-0.72,0.63-1.29,1.03-1.7l0.54,0.17c-0.31,0.58-0.52,1.13-0.61,1.66c-0.1,0.53-0.14,0.99-0.14,1.36
		c0,0.58,0.11,1.09,0.32,1.54c0.21,0.45,0.5,0.83,0.87,1.14c0.36,0.31,0.79,0.55,1.29,0.71c0.5,0.16,1.03,0.24,1.59,0.24
		c0.69,0,1.27-0.11,1.75-0.32c0.48-0.21,0.86-0.51,1.16-0.88c0.3-0.37,0.52-0.82,0.65-1.33c0.13-0.52,0.2-1.08,0.2-1.69v-3.89h2.1
		V188c0,0.31,0.03,0.62,0.07,0.93c0.05,0.31,0.14,0.58,0.27,0.82c0.13,0.24,0.32,0.43,0.55,0.57c0.24,0.14,0.55,0.22,0.94,0.22h0.85
		c0.32,0,0.49,0.16,0.49,0.47v0.55c0,0.32-0.16,0.49-0.49,0.49h-0.34c-0.66,0-1.19-0.21-1.6-0.63c-0.4-0.42-0.65-0.95-0.75-1.59
		v0.02C430.73,190.51,430.69,191.02,430.64,191.39"/>
	<path class="st3" d="M457.67,188.32c0-1.25-0.27-2.16-0.82-2.72c-0.55-0.56-1.25-0.84-2.11-0.84c-0.49,0-0.98,0.12-1.48,0.37
		c-0.5,0.25-0.98,0.61-1.43,1.1c-0.45,0.49-0.85,1.09-1.21,1.81c-0.35,0.72-0.64,1.56-0.85,2.51h7.9V188.32z M447.89,190.54v-13.29
		h2.1v10.66c0.25-0.85,0.57-1.59,0.98-2.22c0.4-0.63,0.84-1.16,1.33-1.57c0.49-0.41,1.01-0.72,1.56-0.93
		c0.55-0.21,1.1-0.31,1.63-0.31c0.68,0,1.28,0.13,1.81,0.38c0.53,0.26,0.99,0.62,1.36,1.08c0.38,0.46,0.66,1.01,0.86,1.65
		c0.2,0.64,0.3,1.34,0.3,2.1v3.94h-26.75c-0.17,0-0.28-0.04-0.33-0.13c-0.04-0.09-0.07-0.2-0.07-0.34v-0.62
		c0-0.13,0.02-0.22,0.08-0.3c0.05-0.07,0.16-0.11,0.32-0.11H447.89z"/>
	<path class="st3" d="M467.79,190.54v-5.33h-1.28c-0.24,0-0.51,0.05-0.8,0.15c-0.29,0.1-0.57,0.27-0.82,0.51
		c-0.25,0.24-0.46,0.55-0.64,0.94c-0.18,0.39-0.26,0.88-0.26,1.46c0,0.39,0.04,0.77,0.11,1.16c0.07,0.38,0.2,0.75,0.37,1.12H467.79z
		 M462.72,192.04c-0.24-0.53-0.43-1.08-0.58-1.67c-0.15-0.59-0.23-1.16-0.23-1.73c0-0.75,0.13-1.43,0.38-2.03
		c0.26-0.61,0.6-1.13,1.03-1.56c0.43-0.43,0.94-0.76,1.51-0.99c0.57-0.23,1.18-0.35,1.8-0.35h3.25v7.02c0,0.25-0.01,0.49-0.01,0.73
		c-0.01,0.24-0.02,0.47-0.03,0.69c-0.02,0.79-0.16,1.44-0.4,1.94c-0.24,0.51-0.54,0.91-0.9,1.2c-0.35,0.29-0.74,0.5-1.16,0.62
		c-0.42,0.12-0.82,0.18-1.19,0.18c-0.48,0-0.96-0.06-1.45-0.19c-0.5-0.13-0.92-0.29-1.27-0.51c0.05-0.14,0.09-0.3,0.13-0.49
		c0.2,0.06,0.42,0.1,0.67,0.12c0.25,0.02,0.46,0.03,0.65,0.03c0.45,0,0.85-0.04,1.2-0.1c0.35-0.07,0.65-0.21,0.9-0.42
		c0.25-0.21,0.45-0.51,0.58-0.91c0.14-0.39,0.21-0.92,0.23-1.59H462.72z"/>
	<path class="st3" d="M477.89,190.54v-5.33h-1.28c-0.24,0-0.5,0.05-0.79,0.15c-0.3,0.1-0.57,0.27-0.82,0.51
		c-0.25,0.24-0.46,0.55-0.64,0.94c-0.18,0.39-0.26,0.88-0.26,1.46c0,0.39,0.04,0.77,0.11,1.16c0.08,0.38,0.2,0.75,0.38,1.12H477.89z
		 M472.82,192.04c-0.24-0.53-0.43-1.08-0.58-1.67c-0.15-0.59-0.22-1.16-0.22-1.73c0-0.75,0.13-1.43,0.38-2.03
		c0.26-0.61,0.6-1.13,1.03-1.56c0.43-0.43,0.94-0.76,1.51-0.99c0.58-0.23,1.18-0.35,1.8-0.35h3.25v7.02c0,0.25,0,0.49-0.01,0.73
		c-0.01,0.24-0.01,0.47-0.03,0.69c-0.03,0.79-0.16,1.44-0.4,1.94c-0.25,0.51-0.54,0.91-0.9,1.2c-0.36,0.29-0.75,0.5-1.17,0.62
		c-0.42,0.12-0.82,0.18-1.19,0.18c-0.47,0-0.96-0.06-1.45-0.19c-0.49-0.13-0.92-0.29-1.27-0.51c0.05-0.14,0.1-0.3,0.13-0.49
		c0.2,0.06,0.42,0.1,0.67,0.12c0.24,0.02,0.46,0.03,0.65,0.03c0.45,0,0.85-0.04,1.2-0.1c0.35-0.07,0.65-0.21,0.9-0.42
		s0.45-0.51,0.58-0.91c0.14-0.39,0.21-0.92,0.23-1.59H472.82z"/>
	<path class="st3" d="M490.41,180.44c0-0.29,0.1-0.54,0.32-0.75c0.21-0.21,0.47-0.32,0.77-0.32c0.31,0,0.57,0.11,0.78,0.32
		c0.21,0.21,0.31,0.46,0.31,0.75c0,0.31-0.1,0.58-0.31,0.79c-0.21,0.21-0.47,0.32-0.78,0.32c-0.3,0-0.56-0.11-0.77-0.32
		C490.51,181.02,490.41,180.75,490.41,180.44 M491.1,190.54c0.06-0.4,0.11-0.79,0.14-1.17c0.03-0.38,0.05-0.76,0.05-1.14
		c0-0.52-0.02-1.04-0.08-1.54c-0.05-0.5-0.11-1-0.17-1.48h-1.07c-0.24,0-0.5,0.05-0.8,0.15c-0.29,0.1-0.57,0.27-0.82,0.51
		c-0.25,0.24-0.46,0.55-0.64,0.94c-0.18,0.39-0.26,0.88-0.26,1.46c0,0.39,0.04,0.77,0.11,1.16c0.08,0.38,0.2,0.75,0.37,1.12H491.1z
		 M487.35,180.44c0-0.29,0.11-0.54,0.32-0.75c0.21-0.21,0.47-0.32,0.77-0.32c0.3,0,0.56,0.11,0.78,0.32
		c0.22,0.21,0.33,0.46,0.33,0.75c0,0.31-0.11,0.58-0.33,0.79c-0.22,0.21-0.48,0.32-0.78,0.32c-0.3,0-0.56-0.11-0.77-0.32
		C487.45,181.02,487.35,180.75,487.35,180.44 M492.98,183.7c0.11,0.78,0.2,1.58,0.27,2.41c0.07,0.83,0.1,1.69,0.1,2.56
		c0,0.31-0.01,0.62-0.02,0.92c-0.01,0.3-0.03,0.61-0.06,0.94h1.9c0.17,0,0.3,0.04,0.37,0.11c0.07,0.08,0.1,0.19,0.1,0.36v0.55
		c0,0.32-0.15,0.49-0.47,0.49h-9.03c-0.24-0.53-0.42-1.08-0.55-1.67c-0.13-0.59-0.2-1.16-0.2-1.73c0-0.75,0.13-1.43,0.39-2.03
		c0.26-0.61,0.6-1.13,1.03-1.56c0.43-0.43,0.93-0.76,1.5-0.99c0.57-0.23,1.17-0.35,1.79-0.35H492.98z"/>
	<path class="st3" d="M494.82,192.04c-0.17,0-0.28-0.04-0.33-0.13c-0.04-0.09-0.07-0.2-0.07-0.34v-0.62c0-0.13,0.03-0.22,0.08-0.3
		c0.05-0.07,0.16-0.11,0.32-0.11h3.29c-0.57-0.55-1.03-1.13-1.39-1.75c-0.36-0.61-0.55-1.29-0.55-2.03c0-0.66,0.13-1.24,0.39-1.72
		c0.26-0.48,0.59-0.88,1-1.21c0.41-0.33,0.89-0.57,1.42-0.72c0.53-0.16,1.07-0.24,1.62-0.24c0.35,0,0.75,0.04,1.19,0.12
		c0.45,0.08,0.82,0.2,1.14,0.35v1.5c-0.25-0.12-0.54-0.22-0.88-0.29c-0.34-0.07-0.6-0.11-0.79-0.11c-0.39,0-0.76,0.05-1.12,0.14
		c-0.35,0.09-0.67,0.25-0.94,0.46c-0.27,0.21-0.49,0.49-0.65,0.82c-0.16,0.34-0.24,0.74-0.24,1.22c0,0.35,0.06,0.7,0.17,1.04
		c0.11,0.35,0.26,0.66,0.43,0.96c0.18,0.29,0.38,0.56,0.61,0.81c0.23,0.24,0.46,0.45,0.69,0.63h4.58c0.19,0,0.31,0.04,0.38,0.11
		c0.07,0.08,0.11,0.19,0.11,0.35v0.55c0,0.32-0.16,0.49-0.49,0.49H494.82z"/>
	<path class="st3" d="M511.69,190.54c0.18-0.36,0.3-0.73,0.39-1.12c0.08-0.38,0.12-0.77,0.12-1.16c0-0.59-0.09-1.08-0.27-1.46
		c-0.18-0.39-0.39-0.7-0.65-0.94c-0.26-0.24-0.53-0.41-0.82-0.51c-0.29-0.1-0.55-0.15-0.79-0.15h-1.07
		c-0.06,0.49-0.12,0.98-0.17,1.48c-0.05,0.5-0.08,1.01-0.08,1.54c0,0.75,0.06,1.52,0.17,2.31H511.69z M504.43,192.04
		c-0.17,0-0.28-0.04-0.33-0.13c-0.04-0.09-0.06-0.2-0.06-0.34v-0.62c0-0.13,0.03-0.22,0.08-0.3c0.05-0.07,0.16-0.11,0.32-0.11h1.93
		c-0.04-0.64-0.06-1.26-0.06-1.86c0-0.88,0.03-1.73,0.1-2.56c0.07-0.83,0.16-1.63,0.25-2.41h2.87c0.64,0,1.24,0.12,1.81,0.35
		c0.57,0.23,1.07,0.56,1.5,0.99c0.43,0.43,0.78,0.95,1.03,1.56c0.26,0.61,0.39,1.28,0.39,2.03c0,0.57-0.07,1.14-0.21,1.73
		c-0.14,0.59-0.32,1.15-0.54,1.67H504.43z"/>
	<path class="st3" d="M516.93,192.04v-14.79h2.1v13.29h1.65c0.18,0,13.01,0.04,13.08,0.11c0.07,0.08,0.1,0.19,0.1,0.35v0.55
		c0,0.32-12.87,0.49-13.18,0.49H516.93z"/>
	<path class="st3" d="M536.76,194.52c0-0.31,0.1-0.57,0.31-0.78c0.21-0.2,0.47-0.31,0.78-0.31c0.3,0,0.56,0.1,0.77,0.31
		c0.21,0.21,0.32,0.47,0.32,0.78c0,0.3-0.1,0.55-0.32,0.76c-0.21,0.21-0.47,0.31-0.77,0.31c-0.31,0-0.57-0.1-0.78-0.31
		C536.86,195.07,536.76,194.82,536.76,194.52 M520.33,192.04c-0.18,0-0.29-0.04-0.33-0.13c-0.04-0.09-0.07-0.2-0.07-0.34v-0.62
		c0-0.13,0.03-0.22,0.08-0.3c0.05-0.07,0.16-0.11,0.32-0.11h20.63c-0.16-0.32-0.29-0.68-0.38-1.08c-0.1-0.4-0.18-0.79-0.24-1.19
		c-0.09-0.51-0.18-1.02-0.29-1.51c-0.11-0.49-0.27-0.94-0.5-1.32c-0.23-0.39-0.53-0.7-0.92-0.94c-0.39-0.24-0.91-0.36-1.58-0.36
		c-0.63,0-1.34,0.14-2.14,0.43c-0.06-0.18-0.12-0.35-0.16-0.53c-0.04-0.18-0.09-0.35-0.14-0.53c0.18-0.07,0.38-0.15,0.6-0.22
		c0.23-0.08,0.47-0.14,0.72-0.2c0.26-0.06,0.52-0.12,0.8-0.15c0.28-0.04,0.54-0.06,0.81-0.06c0.69,0,1.28,0.08,1.77,0.24
		c0.5,0.15,0.92,0.37,1.27,0.65c0.35,0.27,0.64,0.6,0.87,0.96c0.22,0.37,0.41,0.77,0.55,1.2c0.14,0.43,0.26,0.88,0.34,1.35
		c0.08,0.47,0.16,0.94,0.22,1.42c0.08,0.61,0.17,1.2,0.27,1.76c0.1,0.56,0.27,1.09,0.48,1.58H520.33z"/>
</g>
</svg>
